<svg xmlns="http://www.w3.org/2000/svg" width="278" height="66" fill="none" viewBox="0 0 278 66">
    <rect width="278" height="66" fill="#000" fill-opacity=".5" rx="10"/>
    <path fill="#fff" d="M76.824 40.684c0-.672.177-1.307.532-1.904.355-.597.868-1.11 1.54-1.54.672-.43 1.484-.765 2.436-1.008.97-.261 2.063-.392 3.276-.392 1.213 0 2.296.13 3.248.392.97.243 1.792.579 2.464 1.008.672.43 1.185.943 1.54 1.54a3.67 3.67 0 0 1 .532 1.904v1.12a3.67 3.67 0 0 1-.532 1.904c-.355.597-.868 1.11-1.54 1.54-.672.43-1.493.765-2.464 1.008-.952.261-2.035.392-3.248.392s-2.305-.13-3.276-.392c-.952-.243-1.764-.579-2.436-1.008-.672-.43-1.185-.943-1.54-1.54a3.67 3.67 0 0 1-.532-1.904v-1.12zm-3.668-6.972V21.364h2.716v4.172h6.636v-4.172h2.716v12.348H73.156zm16.52 7.14c0-.336-.121-.672-.364-1.008-.224-.336-.56-.625-1.008-.868-.43-.261-.961-.467-1.596-.616-.616-.168-1.316-.252-2.1-.252s-1.493.084-2.128.252a5.929 5.929 0 0 0-1.596.616c-.43.243-.765.532-1.008.868-.224.336-.336.672-.336 1.008v.784c0 .336.112.672.336 1.008.243.336.579.625 1.008.868.448.261.98.467 1.596.616a8.319 8.319 0 0 0 2.128.252c.784 0 1.484-.084 2.1-.252.635-.15 1.167-.355 1.596-.616.448-.243.784-.532 1.008-.868.243-.336.364-.672.364-1.008v-.784zm6.272-12.348H92.28v7h-2.744v-15.4h2.744v5.992h3.668v2.408zM75.872 31.36h6.636v-3.5h-6.636v3.5zm24.336-5.124v-2.408h7.616v-3.444h2.772v3.444h7.672v2.408h-7.672v.112c0 .896.206 1.699.616 2.408.43.69 1.204 1.39 2.324 2.1.542.336 1.036.644 1.484.924.467.261.924.523 1.372.784.448.243.915.485 1.4.728a73.74 73.74 0 0 0 1.624.784l-1.316 2.212c-.597-.299-1.148-.579-1.652-.84l-1.456-.756a48.895 48.895 0 0 0-1.344-.756 72.295 72.295 0 0 1-1.344-.84c-.933-.597-1.642-1.101-2.128-1.512-.466-.41-.774-.737-.924-.98h-.028c-.149.261-.476.607-.98 1.036-.485.41-1.194.915-2.128 1.512a57.226 57.226 0 0 1-2.8 1.652c-.914.485-1.904.99-2.968 1.512l-1.344-2.212a70.464 70.464 0 0 0 1.68-.84 99.345 99.345 0 0 0 1.484-.756c.486-.261.943-.523 1.372-.784.448-.261.896-.532 1.344-.812 1.083-.71 1.839-1.419 2.268-2.128.448-.71.672-1.521.672-2.436v-.112h-7.616zm20.86 13.888v2.352H97.38v-2.352h10.444v-4.816h2.8v4.816h10.444zm24.309 5.796h-2.716V31.5h-3.052v13.16h-2.716V20.636h2.716v8.456h3.052v-8.988h2.716V45.92zm-11.508-20.944h-7.14v11.62h1.428c.634 0 1.232-.01 1.792-.028.56-.019 1.11-.047 1.652-.084a61.183 61.183 0 0 0 1.68-.14 45.635 45.635 0 0 0 1.848-.28l.28 2.324c-.728.112-1.41.215-2.044.308-.635.075-1.26.14-1.876.196-.616.037-1.242.065-1.876.084a66.79 66.79 0 0 1-2.016.028h-3.668V22.568h9.94v2.408zm28.06 11.256c1.251 0 2.361.121 3.332.364.989.224 1.82.55 2.492.98.691.41 1.213.905 1.568 1.484.355.56.532 1.167.532 1.82V42c0 .653-.177 1.26-.532 1.82-.355.579-.877 1.073-1.568 1.484-.672.43-1.503.756-2.492.98-.971.243-2.081.364-3.332.364s-2.371-.121-3.36-.364c-.971-.224-1.801-.55-2.492-.98-.672-.41-1.185-.905-1.54-1.484a3.335 3.335 0 0 1-.532-1.82v-1.12c0-.653.177-1.26.532-1.82.355-.579.868-1.073 1.54-1.484.691-.43 1.521-.756 2.492-.98.989-.243 2.109-.364 3.36-.364zm0 8.148c.803 0 1.521-.075 2.156-.224.653-.13 1.204-.317 1.652-.56.448-.243.793-.523 1.036-.84.243-.299.364-.607.364-.924v-.784c0-.317-.121-.625-.364-.924-.243-.317-.588-.588-1.036-.812-.448-.243-.999-.439-1.652-.588-.635-.15-1.353-.224-2.156-.224-.821 0-1.559.075-2.212.224-.635.15-1.176.345-1.624.588-.448.224-.793.495-1.036.812-.224.299-.336.607-.336.924v.784c0 .317.112.625.336.924.243.317.588.597 1.036.84.448.243.989.43 1.624.56.653.15 1.391.224 2.212.224zm5.068-8.484V20.104h2.744v15.792h-2.744zm-16.968-1.456v-7.728h8.764v-3.024h-8.764v-2.352h11.508v7.672h-8.764v3.08H157.365a85.675 85.675 0 0 0 2.184-.084c.728-.037 1.475-.084 2.24-.14a83.86 83.86 0 0 0 2.464-.28l.252 2.296c-.784.093-1.54.177-2.268.252-.728.075-1.475.14-2.24.196-.747.037-1.54.065-2.38.084-.821.019-1.745.028-2.772.028h-4.816zm44.161-12.096v4.424c0 1.25-.019 2.38-.056 3.388a43.657 43.657 0 0 1-.196 2.856 48.162 48.162 0 0 1-.7 5.096l-2.772-.336c.205-1.045.364-2.044.476-2.996.13-.952.233-1.913.308-2.884l-14.728.252-.056-2.352 14.924-.168V28.7c.018-.317.028-.635.028-.952v-2.996h-14.532v-2.408h17.304zm3.332 17.78v2.352h-23.688v-2.352h23.688zm29.068-9.352h-7.028v2.352h10.444v2.352h-23.688v-2.352h10.444v-2.352h-7.056V20.664h2.744v3.08h11.396v-3.108h2.744v10.136zm-17.22 6.972h17.332v8.428h-2.772v-6.076h-14.56v-2.352zm3.08-9.296h11.396v-2.464H212.45v2.464zm43.516 3.388h-3.976V45.92h-2.772V20.104h2.772v9.324h3.976v2.408zm-16.52 1.12a3.73 3.73 0 0 1-.588.952 17.79 17.79 0 0 1-1.036 1.204 61.736 61.736 0 0 1-1.988 2.072c-.746.728-1.596 1.53-2.548 2.408l-1.82-1.876c1.699-1.512 3.174-2.959 4.424-4.34.43-.485.784-.933 1.064-1.344.28-.41.495-.812.644-1.204.168-.41.28-.821.336-1.232a8.15 8.15 0 0 0 .112-1.4V21.98h2.8v6.216c0 .56.038 1.064.112 1.512.075.43.196.85.364 1.26.168.392.392.793.672 1.204.299.392.663.821 1.092 1.288a46.126 46.126 0 0 0 1.876 1.932c.654.616 1.4 1.297 2.24 2.044l-1.792 1.904c-.97-.896-1.792-1.67-2.464-2.324-.653-.672-1.25-1.297-1.792-1.876-.392-.43-.746-.83-1.064-1.204-.298-.373-.504-.7-.616-.98h-.028zM56.063 35.75h-2.376a1.188 1.188 0 0 0-1.187 1.188v8.312H28.75V21.5h10.688a1.188 1.188 0 0 0 1.187-1.188v-2.375a1.188 1.188 0 0 0-1.188-1.187H27.563A3.563 3.563 0 0 0 24 20.313v26.125A3.563 3.563 0 0 0 27.563 50h26.125a3.563 3.563 0 0 0 3.562-3.563v-9.5a1.188 1.188 0 0 0-1.188-1.187zM60.218 12h-9.5c-1.586 0-2.379 1.923-1.262 3.043l2.652 2.652-18.09 18.083a1.781 1.781 0 0 0 0 2.523l1.683 1.68a1.782 1.782 0 0 0 2.523 0l18.08-18.086 2.652 2.648C60.07 25.656 62 24.877 62 23.281v-9.5A1.781 1.781 0 0 0 60.219 12z"/>
</svg>
