<svg xmlns="http://www.w3.org/2000/svg" width="270" height="63" fill="none" viewBox="0 0 270 63">
    <path fill="#210081" d="M46.628 19.384c0 5.658-1.524 10.22-4.572 13.685-3.027 3.445-6.952 5.167-11.774 5.167-2.923 0-5.386-.522-7.39-1.566-1.859-1.002-2.788-2.14-2.788-3.413V33.1c0-.877.261-1.628.783-2.255.522-.626 1.159-.939 1.91-.939.355 0 1.357.355 3.007 1.065 1.67.71 3.184 1.064 4.54 1.064 2.84 0 5.188-1.137 7.046-3.413 1.858-2.275 2.788-5.177 2.788-8.706 0-3.632-1.41-6.565-4.228-8.8-2.819-2.233-6.524-3.35-11.117-3.35-1.336 0-3.236.157-5.7.47.376 5.992.564 10.605.564 13.841 0 7.015-.146 13.278-.438 18.79-.355 6.555-1.148 12.285-2.38 17.192-.439 1.753-1.378 2.63-2.819 2.63-2.212 0-3.319-1.493-3.319-4.478 0 .334.616-4.436 1.848-14.311.417-3.403.626-7.829.626-13.278 0-7.286-.167-13.465-.501-18.538-1.461.751-3.08 1.983-4.854 3.695-1.336 1.294-2.39 1.941-3.163 1.941-.856 0-1.597-.313-2.223-.94-.647-.625-.97-1.356-.97-2.191 0-.919.876-2.224 2.63-3.915 4.99-4.78 11.618-7.17 19.885-7.17 6.93 0 12.432 1.617 16.503 4.853 4.07 3.215 6.106 7.557 6.106 13.027zM61.534 6.42c0 2.964-1.45 4.446-4.352 4.446-1.17 0-2.161-.407-2.975-1.22-.794-.815-1.19-1.796-1.19-2.945 0-1.252.438-2.317 1.315-3.194.877-.877 1.952-1.315 3.225-1.315 1.19 0 2.15.386 2.881 1.159.731.772 1.096 1.795 1.096 3.069zm-1.346 11.93c0 12.59-.449 21.89-1.347 27.903-.355 2.421-.751 4.05-1.19 4.885-.563 1.106-1.472 1.66-2.724 1.66-.835 0-1.545-.272-2.13-.815-.584-.563-.876-1.231-.876-2.004 0 .105.167-.616.5-2.16.397-1.754.721-3.748.971-5.982.334-3.173.502-6.722.502-10.647 0-1.712-.021-3.518-.063-5.418-.042-1.9-.063-2.933-.063-3.1 0-2.818.24-4.78.72-5.887.502-1.21 1.441-1.816 2.819-1.816 1.92 0 2.88 1.127 2.88 3.382zm42.933 22.767c0 2.171-2.202 4.958-6.607 8.361-3.111 2.38-7.192 3.57-12.245 3.57-5.01 0-8.956-1.65-11.837-4.948-2.944-3.361-4.415-7.975-4.415-13.841 0-7.578 1.69-13.476 5.073-17.693 3.382-4.238 8.027-6.357 13.935-6.357 4.384 0 7.975.981 10.772 2.943 2.652 1.838 3.978 4.04 3.978 6.608 0 2.108-.982 3.163-2.944 3.163-.919 0-1.587-.324-2.004-.971-.376-.919-.95-2.067-1.723-3.445-1.482-1.67-4.175-2.505-8.079-2.505-4.07 0-7.223 1.535-9.457 4.603-2.213 3.07-3.32 7.453-3.32 13.153 0 9.019 3.591 13.528 10.773 13.528 4.154 0 7.703-1.472 10.647-4.415.02-.021.668-.96 1.942-2.819.751-1.127 1.607-1.69 2.567-1.69.752 0 1.431.291 2.036.876.605.564.908 1.19.908 1.879zm31.253-16.41c0 .731-.23 1.358-.689 1.88-.46.5-1.002.751-1.629.751-.313 0-1.513-.407-3.601-1.221-2.067-.814-4.092-1.221-6.075-1.221-.626 0-1.284.041-1.973.125-.772 3.403-1.159 6.524-1.159 9.363 0 3.654.616 6.462 1.848 8.424 1.232 1.962 2.944 2.944 5.136 2.944.668 0 1.545-.21 2.63-.627 1.107-.438 1.9-.657 2.38-.657 1.67 0 2.505.98 2.505 2.943 0 1.274-.689 2.307-2.066 3.1-1.378.794-3.257 1.19-5.637 1.19-8.852 0-13.278-5.897-13.278-17.693 0-2.484.303-5.219.908-8.204-.584.083-1.847.323-3.789.72-1.273.25-2.213.376-2.818.376-2.234 0-3.351-.856-3.351-2.568 0-2.338 3.852-3.862 11.555-4.572 1.587-5.031 3.529-7.547 5.825-7.547.71 0 1.315.26 1.816.783.501.5.752 1.117.752 1.847 0 .543-.157 1.232-.47 2.067a316.2 316.2 0 0 0-.939 2.474c8.079.271 12.119 2.046 12.119 5.324zm38.016 6.42c0 6.138-1.795 11.034-5.386 14.687-3.591 3.633-8.382 5.449-14.374 5.449-4.968 0-8.862-1.691-11.68-5.073-2.818-3.403-4.228-8.121-4.228-14.154 0-6.347 1.702-11.274 5.105-14.781 3.34-3.445 7.975-5.167 13.904-5.167 4.968 0 8.987 1.743 12.056 5.23 3.069 3.486 4.603 8.09 4.603 13.81zm-6.231.063c0-4.196-1.023-7.474-3.069-9.833-2.025-2.38-4.802-3.57-8.33-3.57-7.871 0-11.806 4.729-11.806 14.186 0 4.363.856 7.724 2.568 10.083 1.712 2.339 4.165 3.508 7.359 3.508 4.134 0 7.38-1.263 9.739-3.79 2.359-2.526 3.539-6.054 3.539-10.584zm35.762-8.518c0 .794-.24 1.462-.721 2.004-.48.543-1.054.815-1.722.815-.501 0-1.242-.366-2.223-1.096-.982-.731-1.869-1.096-2.662-1.096-1.983 0-3.591.876-4.823 2.63-1.231 1.733-1.847 4.081-1.847 7.046v4.102c0 4.572-.48 8.205-1.441 10.898-.897 2.526-2.056 3.79-3.476 3.79-1.9 0-2.849-.94-2.849-2.82 0-.375.292-1.753.876-4.133.585-2.4.877-4.655.877-6.764 0-5.846-.835-10.522-2.505-14.03-.042-.104-.616-1.158-1.722-3.162-.564-1.023-.846-1.837-.846-2.443 0-.668.324-1.294.971-1.879.647-.584 1.346-.876 2.098-.876 2.213 0 4.05 2.714 5.512 8.142 2.171-4.176 5.334-6.264 9.488-6.264 2.088 0 3.779.491 5.073 1.472 1.294.96 1.942 2.182 1.942 3.664zM216.294 6.42c0 2.964-1.451 4.446-4.352 4.446-1.17 0-2.161-.407-2.975-1.22-.794-.815-1.19-1.796-1.19-2.945 0-1.252.438-2.317 1.315-3.194.877-.877 1.952-1.315 3.225-1.315 1.19 0 2.151.386 2.881 1.159.731.772 1.096 1.795 1.096 3.069zm-1.346 11.93c0 12.59-.449 21.89-1.347 27.903-.355 2.421-.751 4.05-1.19 4.885-.563 1.106-1.472 1.66-2.724 1.66-.835 0-1.545-.272-2.13-.815-.584-.563-.876-1.231-.876-2.004 0 .105.167-.616.501-2.16.396-1.754.72-3.748.97-5.982.334-3.173.501-6.722.501-10.647 0-1.712-.02-3.518-.062-5.418-.042-1.9-.063-2.933-.063-3.1 0-2.818.24-4.78.72-5.887.501-1.21 1.441-1.816 2.819-1.816 1.92 0 2.881 1.127 2.881 3.382zm36.764 16.566c0 5.72-.835 11.702-2.505 17.944-.835 3.132-2.078 4.697-3.727 4.697-1.691 0-2.536-.96-2.536-2.88 0-.439.021-.763.062-.971-2.129 1.148-4.332 1.722-6.607 1.722-4.029 0-7.182-1.138-9.457-3.413-2.255-2.276-3.383-5.46-3.383-9.551 0-4.155 1.222-7.443 3.664-9.865 2.443-2.442 5.689-3.664 9.739-3.664 3.529 0 6.504 1.18 8.925 3.539-.396-8.246-3.455-12.37-9.175-12.37-1.274 0-2.641.387-4.102 1.159-1.441.752-2.38 1.127-2.819 1.127-.71 0-1.346-.292-1.91-.876-.564-.585-.846-1.253-.846-2.005 0-1.252.909-2.41 2.725-3.476 1.941-1.148 4.259-1.722 6.952-1.722 10 0 15 6.869 15 20.605zm-6.357 7.36c0-5.303-2.495-7.955-7.484-7.955-5.47 0-8.205 2.631-8.205 7.892 0 5.303 2.714 7.954 8.142 7.954 2.359 0 4.207-.689 5.543-2.067 1.336-1.398 2.004-3.34 2.004-5.824zm23.142 11.242c0 1.42-.094 2.39-.282 2.912-.355.919-1.138 1.378-2.349 1.378-1.983 0-3.152-1.608-3.507-4.823-.605-5.428-.908-12.86-.908-22.296 0-10.543.146-17.025.438-19.447.334-2.651 1.389-3.977 3.163-3.977 2.088 0 3.132 1.263 3.132 3.79 0 .626-.115 3.12-.345 7.484-.229 4.342-.344 8.35-.344 12.025 0 3.215.167 7.38.501 12.495.334 5.093.501 8.58.501 10.459z"/>
    <path fill="#210081" d="M42.056 33.069l-1.128-.993 1.128.993zM22.891 36.67l-.713 1.323.01.005.01.005.693-1.333zm2.913-5.7l-.595 1.382.007.002.588-1.383zm-6.67-22.734l-.19-1.491-1.399.178.088 1.407 1.5-.094zm.125 32.63l1.5.082v-.002l-1.5-.08zm-2.38 17.193l-1.458-.367v.002l1.458.364zm-4.29-16.16l1.491.187v-.003L12.59 41.9zm.125-31.816l1.5-.098-.15-2.286-2.037 1.048.687 1.337zM7.86 13.78l-1.043-1.082-.003.002 1.046 1.08zM2.474 14.78l1.063-1.063-.009-.009-.009-.008-1.045 1.08zm1.66-6.107L3.094 7.59l-.004.003 1.044 1.082zm36.388-2.317l-.935 1.177.003.003.932-1.18zm4.603 13.027c0 5.378-1.442 9.56-4.197 12.692l2.257 1.986c3.34-3.799 4.947-8.74 4.947-14.678h-3.007zm-4.198 12.693c-2.725 3.101-6.23 4.656-10.645 4.656v3.006c5.23 0 9.575-1.89 12.903-5.678l-2.258-1.984zm-10.645 4.656c-2.75 0-4.96-.492-6.696-1.396l-1.389 2.666c2.272 1.184 4.99 1.736 8.085 1.736v-3.006zm-6.677-1.386c-1.709-.921-1.997-1.668-1.997-2.09H18.6c0 2.125 1.57 3.654 3.577 4.736l1.427-2.646zm-1.997-2.09V33.1H18.6v.157h3.007zm0-.157c0-.554.155-.957.434-1.292l-2.31-1.925c-.764.918-1.13 2.017-1.13 3.217h3.006zm.434-1.292c.264-.317.491-.399.755-.399v-3.006c-1.238 0-2.285.544-3.064 1.48l2.309 1.925zm.755-.399c-.11 0-.134-.02.008.018.113.03.28.081.508.162a32.78 32.78 0 0 1 1.896.763l1.189-2.762a35.673 35.673 0 0 0-2.08-.835 9.548 9.548 0 0 0-.753-.237 3.102 3.102 0 0 0-.768-.115v3.006zm2.419.945c1.797.764 3.514 1.185 5.128 1.185v-3.007c-1.099 0-2.409-.289-3.952-.945l-1.176 2.767zm5.128 1.185c3.309 0 6.079-1.355 8.21-3.966l-2.328-1.901c-1.584 1.94-3.511 2.86-5.881 2.86v3.007zm8.21-3.966c2.12-2.595 3.127-5.854 3.127-9.657h-3.007c0 3.255-.85 5.8-2.448 7.756l2.329 1.9zm3.127-9.657c0-4.086-1.615-7.455-4.797-9.977l-1.868 2.356c2.455 1.945 3.658 4.443 3.658 7.621h3.007zM36.884 9.94c-3.15-2.497-7.215-3.676-12.051-3.676V9.27c4.35 0 7.697 1.055 10.183 3.026l1.868-2.356zM24.833 6.263c-1.432 0-3.406.166-5.889.482l.38 2.982c2.443-.31 4.269-.458 5.509-.458V6.263zm-7.2 2.067c.376 5.982.561 10.559.561 13.747H21.2c0-3.283-.19-7.934-.566-13.935l-3 .188zm.561 13.747c0 6.995-.146 13.23-.436 18.71l3.002.159c.294-5.544.44-11.834.44-18.869h-3.006zm-.436 18.708c-.351 6.486-1.134 12.118-2.337 16.907l2.916.733c1.26-5.023 2.064-10.853 2.423-17.477l-3.002-.163zM15.42 57.694c-.177.705-.413 1.063-.601 1.238-.157.147-.37.254-.76.254v3.006c1.052 0 2.029-.331 2.811-1.062.752-.701 1.204-1.659 1.466-2.707l-2.916-.73zm-1.36 1.492c-.733 0-1.069-.223-1.283-.512-.276-.372-.534-1.112-.534-2.463H9.238c0 1.634.295 3.133 1.125 4.254.893 1.204 2.218 1.727 3.697 1.727v-3.006zM9.237 56.21a1.518 1.518 0 0 0 .223.802 1.503 1.503 0 0 0 2.49.11c.12-.161.177-.31.19-.341.04-.098.06-.181.065-.2.023-.092.04-.195.047-.243.023-.137.054-.35.092-.628.079-.562.195-1.442.349-2.635.308-2.389.77-6.052 1.386-10.99l-2.983-.372c-.616 4.937-1.077 8.595-1.385 10.977-.154 1.192-.268 2.06-.344 2.607-.039.276-.065.458-.081.556-.012.07-.01.045.004-.01.002-.008.02-.084.058-.178.012-.03.07-.176.188-.336a1.502 1.502 0 0 1 2.699.728c.009.08.008.143.008.153H9.238zm4.843-14.128c.428-3.488.637-7.982.637-13.46h-3.006c0 5.418-.208 9.776-.615 13.094l2.984.366zm.637-13.46c0-7.307-.167-13.522-.504-18.638l-3 .197c.331 5.03.498 11.174.498 18.44h3.006zM12.027 8.746c-1.64.843-3.378 2.182-5.21 3.95l2.087 2.164c1.716-1.656 3.214-2.78 4.497-3.44l-1.374-2.674zm-5.213 3.952c-.624.605-1.134 1.01-1.533 1.255-.42.257-.595.263-.584.263v3.006c.784 0 1.522-.317 2.157-.707.655-.402 1.34-.968 2.052-1.658L6.814 12.7zm-2.117 1.518c-.442 0-.805-.144-1.16-.5L1.41 15.845c.897.897 2.016 1.38 3.286 1.38v-3.007zm-1.178-.516c-.38-.368-.513-.719-.513-1.112H0c0 1.276.514 2.387 1.429 3.272l2.09-2.16zm-.513-1.112c0 .006 0-.058.06-.21s.166-.357.342-.62c.357-.53.932-1.195 1.769-2.003L3.09 7.592c-.916.884-1.656 1.716-2.177 2.49-.5.744-.913 1.604-.913 2.507h3.006zm2.168-2.83C9.83 5.3 16.058 3.007 24.019 3.007V0C15.445 0 8.417 2.489 3.094 7.589l2.08 2.17zm18.845-6.753c6.704 0 11.84 1.564 15.568 4.528l1.87-2.354C37.044 1.672 31.177 0 24.02 0v3.006zm15.571 4.53c3.688 2.913 5.535 6.81 5.535 11.848h3.007c0-5.9-2.224-10.69-6.678-14.207l-1.864 2.36zm14.617 2.11l-1.077 1.048.007.007.007.007 1.063-1.063zm4.634 36.607l-1.486-.222v.004l1.486.218zm-1.19 4.885l-1.33-.699-.005.008-.004.008 1.34.683zm-4.854.845l-1.043 1.082.01.01.01.01 1.023-1.102zm-.375-4.165l-1.466-.331-.002.007-.002.007 1.47.317zm.97-5.98l1.494.167.001-.01-1.495-.158zm1.096-25.053l1.38.598.005-.011.004-.012-1.389-.575zM60.032 6.42c0 1.258-.308 1.924-.659 2.283-.345.353-.98.66-2.19.66v3.007c1.69 0 3.233-.434 4.338-1.564 1.1-1.123 1.518-2.68 1.518-4.386H60.03zm-2.85 2.943c-.777 0-1.384-.253-1.911-.78l-2.126 2.125c1.1 1.1 2.477 1.662 4.038 1.662V9.363zm-1.898-.767c-.517-.53-.763-1.134-.763-1.895h-3.006c0 1.536.546 2.895 1.616 3.993l2.153-2.098zm-.763-1.895c0-.858.283-1.54.875-2.13l-2.126-2.127c-1.162 1.162-1.755 2.61-1.755 4.257h3.006zm.875-2.13c.586-.587 1.275-.876 2.162-.876V.69c-1.66 0-3.12.588-4.288 1.755l2.126 2.126zm2.162-.876c.831 0 1.378.254 1.79.689l2.183-2.066c-1.05-1.11-2.424-1.63-3.973-1.63v3.007zm1.79.689c.415.44.684 1.066.684 2.036h3.007c0-1.577-.462-2.997-1.508-4.102l-2.184 2.066zm-.662 13.967c0 12.575-.45 21.783-1.33 27.68l2.973.444c.915-6.129 1.363-15.522 1.363-28.124h-3.006zm-1.33 27.684c-.358 2.439-.73 3.825-1.034 4.404l2.661 1.398c.573-1.092.994-2.962 1.347-5.366l-2.975-.436zm-1.043 4.42c-.177.348-.368.535-.546.644-.18.11-.439.195-.84.195v3.007c.853 0 1.675-.19 2.404-.635.729-.444 1.274-1.087 1.66-1.846l-2.678-1.364zm-1.385.84c-.475 0-.814-.142-1.107-.413l-2.045 2.203c.876.814 1.957 1.216 3.152 1.216v-3.007zM53.84 50.9c-.308-.296-.417-.58-.417-.922h-3.007c0 1.203.476 2.256 1.337 3.086l2.087-2.164zm-3.424-.922a1.511 1.511 0 0 0 .203.762 1.504 1.504 0 0 0 2.7-.19c.046-.114.076-.23.083-.255.029-.106.065-.258.107-.44.086-.371.214-.947.38-1.72l-2.938-.635c-.166.771-.29 1.328-.37 1.677-.042.179-.068.284-.08.331-.015.052 0-.012.036-.1a1.49 1.49 0 0 1 .358-.517 1.502 1.502 0 0 1 2.5.803c.029.146.028.263.028.284h-3.007zm3.47-1.829c.412-1.82.744-3.87 1-6.145l-2.988-.335c-.246 2.191-.562 4.129-.943 5.817l2.932.663zm1-6.155c.341-3.236.51-6.839.51-10.805H52.39c0 3.884-.165 7.379-.492 10.49l2.99.315zm.51-10.805c0-1.724-.021-3.541-.063-5.45l-3.006.066c.042 1.89.062 3.684.062 5.384h3.007zm-.063-5.45a414.368 414.368 0 0 1-.063-3.068h-3.006c0 .189.022 1.249.063 3.133l3.006-.066zm-.063-3.068c0-2.816.252-4.495.596-5.289l-2.757-1.196c-.617 1.42-.845 3.665-.845 6.485h3.006zm.606-5.312c.155-.373.336-.564.506-.674.176-.113.456-.214.924-.214v-3.006c-.91 0-1.789.201-2.552.693-.77.496-1.309 1.213-1.655 2.051l2.777 1.15zm1.43-.888c.66 0 .902.182 1.016.317.154.18.362.612.362 1.562h3.006c0-1.306-.273-2.565-1.08-3.511-.845-.993-2.043-1.374-3.304-1.374v3.006zm39.207 33.006l.913 1.194.005-.004-.918-1.19zM72.432 48.1l1.132-.989-.001-.001-1.13.99zm.658-31.534l1.172.94.003-.003-1.175-.937zm24.707-3.414l-.863 1.231.007.005.856-1.236zm-.97 8.8l-1.391.57.052.128.076.117 1.263-.815zm-1.723-3.445l1.311-.735-.079-.141-.107-.121-1.125.997zm-17.536 2.098l-1.215-.884-.004.005 1.219.88zm18.1 22.266l1.063 1.062-1.063-1.062zm1.942-2.819l1.24.85.005-.008.005-.008-1.25-.834zm4.603-.814l-1.044 1.081.01.01.01.01 1.024-1.101zm-.595 1.879c0 .591-.313 1.503-1.328 2.787-.995 1.259-2.542 2.72-4.695 4.385l1.838 2.379c2.25-1.74 4.008-3.373 5.216-4.9 1.187-1.504 1.975-3.071 1.975-4.651h-3.006zM95.6 48.284c-2.78 2.128-6.512 3.26-11.33 3.26v3.007c5.285 0 9.717-1.247 13.157-3.88L95.6 48.285zm-11.33 3.26c-4.647 0-8.153-1.51-10.706-4.433L71.3 49.09c3.21 3.674 7.594 5.462 12.97 5.462v-3.006zM73.562 47.11c-2.637-3.01-4.043-7.233-4.043-12.851h-3.006c0 6.114 1.537 11.12 4.787 14.831l2.262-1.98zM69.52 34.259c0-7.372 1.646-12.892 4.742-16.753l-2.345-1.88c-3.667 4.572-5.403 10.848-5.403 18.633h3.006zm4.745-16.756c3.068-3.845 7.262-5.791 12.76-5.791V8.706c-6.318 0-11.415 2.292-15.11 6.922l2.35 1.875zm12.76-5.791c4.163 0 7.428.93 9.91 2.67l1.726-2.46c-3.114-2.184-7.03-3.216-11.636-3.216v3.006zm9.916 2.676c2.363 1.637 3.33 3.424 3.33 5.372h3.007c0-3.188-1.684-5.806-4.624-7.843l-1.713 2.47zm3.33 5.372c0 .848-.199 1.204-.333 1.348-.114.123-.386.312-1.107.312v3.006c1.242 0 2.441-.339 3.308-1.27.848-.91 1.139-2.136 1.139-3.396h-3.007zm-1.44 1.66c-.522 0-.657-.153-.741-.283l-2.526 1.63c.75 1.164 1.952 1.659 3.267 1.659V21.42zm-.613-.037c-.409-.999-1.015-2.207-1.803-3.61l-2.622 1.47c.758 1.351 1.3 2.44 1.642 3.278l2.783-1.138zm-1.99-3.873c-1.92-2.165-5.172-3.011-9.203-3.011v3.006c3.777 0 5.911.824 6.955 2l2.249-1.995zm-9.203-3.011c-4.51 0-8.133 1.732-10.672 5.222l2.43 1.769c1.928-2.648 4.611-3.985 8.242-3.985V14.5zM76.35 19.726c-2.47 3.425-3.604 8.168-3.604 14.032h3.007c0-5.535 1.079-9.56 3.035-12.273l-2.438-1.759zm-3.604 14.032c0 4.669.923 8.448 3.02 11.082 2.15 2.7 5.33 3.95 9.256 3.95v-3.007c-3.257 0-5.462-1.005-6.904-2.815-1.493-1.876-2.365-4.86-2.365-9.21h-3.007zm12.276 15.031c4.554 0 8.485-1.63 11.71-4.856l-2.126-2.125c-2.662 2.662-5.83 3.975-9.584 3.975v3.006zm11.71-4.856c.058-.057.099-.108.103-.114l.03-.038.029-.038.039-.055.103-.147.372-.538c.325-.471.806-1.172 1.443-2.101l-2.48-1.7a1148.732 1148.732 0 0 1-1.891 2.749l-.013.018.003-.005a1.002 1.002 0 0 1 .036-.045c.003-.004.043-.054.1-.111l2.126 2.125zm2.13-3.047c.596-.896 1.048-1.022 1.316-1.022v-3.006c-1.651 0-2.912 1.001-3.818 2.36l2.501 1.668zm1.316-1.022c.315 0 .63.106.992.455l2.088-2.162c-.849-.82-1.891-1.299-3.08-1.299v3.006zm1.012.474c.366.341.429.59.429.779h3.006c0-1.19-.542-2.193-1.387-2.98l-2.048 2.201zm32.496-13.751l1.108 1.015.01-.01.01-.012-1.128-.993zm-5.23-.47l-.551 1.398.005.002.546-1.4zm-8.048-1.096l-.181-1.492-1.05.127-.235 1.032 1.466.333zm.689 17.787l-1.273.799 1.273-.8zm7.766 2.317l.54 1.403.007-.002.007-.003-.554-1.398zm-15.188-19.321l1.473.299.424-2.089-2.109.302.212 1.488zm-3.789.72l.29 1.475.011-.002-.301-1.473zm5.386-6.764l.138 1.497.995-.092.301-.953-1.434-.452zm7.641-6.764l-1.084 1.04.011.012.01.01 1.063-1.062zm.282 3.914l1.403.54.005-.012-1.408-.528zm-.939 2.474l-1.408-.528-.735 1.96 2.092.07.051-1.502zm10.616 5.324c0 .385-.11.653-.315.886l2.257 1.986c.714-.812 1.064-1.796 1.064-2.872h-3.006zm-.294.863c-.202.22-.354.264-.521.264v3.006c1.087 0 2.02-.457 2.737-1.239l-2.216-2.031zm-.521.264c.144 0 .186.028-.01-.025a10.903 10.903 0 0 1-.642-.2 60.65 60.65 0 0 1-2.403-.893l-1.092 2.8c1.052.41 1.898.725 2.529.94.315.106.594.194.827.256.182.05.491.128.791.128v-3.006zm-3.05-1.117c-2.221-.875-4.433-1.326-6.626-1.326V26.4c1.773 0 3.612.363 5.524 1.116l1.102-2.797zm-6.626-1.326c-.693 0-1.411.047-2.154.137l.362 2.984a14.911 14.911 0 0 1 1.792-.114v-3.007zm-3.439 1.296c-.792 3.488-1.196 6.723-1.196 9.696h3.007c0-2.705.368-5.713 1.121-9.03l-2.932-.666zm-1.196 9.696c0 3.787.633 6.92 2.078 9.223l2.546-1.598c-1.018-1.622-1.617-4.105-1.617-7.625h-3.007zm2.078 9.223c1.488 2.37 3.665 3.648 6.409 3.648v-3.007c-1.641 0-2.887-.685-3.863-2.24l-2.546 1.599zm6.409 3.648c.941 0 2.02-.285 3.17-.727l-1.079-2.806c-1.022.393-1.696.526-2.091.526v3.007zm3.184-.732c1.116-.443 1.666-.552 1.826-.552v-3.006c-.8 0-1.837.328-2.933.763l1.107 2.795zm1.826-.552c.534 0 .682.145.734.207.092.108.268.43.268 1.233h3.007c0-1.159-.242-2.308-.985-3.182-.783-.92-1.888-1.264-3.024-1.264v3.006zm1.002 1.44c0 .597-.267 1.195-1.313 1.798l1.5 2.605c1.708-.984 2.82-2.452 2.82-4.403h-3.007zm-1.313 1.798c-1.064.612-2.649.99-4.887.99v3.006c2.522 0 4.695-.417 6.387-1.39l-1.5-2.606zm-4.887.99c-4.06 0-6.885-1.33-8.756-3.823-1.932-2.574-3.019-6.615-3.019-12.368h-3.006c0 6.043 1.126 10.849 3.62 14.172 2.556 3.405 6.369 5.025 11.161 5.025v-3.007zm-11.775-16.19c0-2.365.289-4.998.878-7.907l-2.946-.597c-.621 3.063-.938 5.9-.938 8.503h3.006zm-.807-9.693c-.638.09-1.947.34-3.878.735l.602 2.946c1.953-.4 3.169-.63 3.701-.705l-.425-2.976zm-3.867.733c-1.261.248-2.079.348-2.528.348v3.006c.761 0 1.822-.151 3.108-.404l-.58-2.95zm-2.528.348c-.967 0-1.417-.193-1.599-.332-.106-.082-.249-.232-.249-.733h-3.006c0 1.21.416 2.344 1.426 3.119.936.717 2.161.952 3.428.952v-3.006zm-1.848-1.065c0-.164.11-.775 1.939-1.499 1.724-.682 4.441-1.225 8.251-1.576l-.276-2.994c-3.893.359-6.953.933-9.081 1.775-2.023.8-3.839 2.12-3.839 4.294h3.006zm11.486-4.12c.77-2.443 1.588-4.138 2.402-5.194.803-1.04 1.469-1.302 1.989-1.302V10.71c-1.776 0-3.229.995-4.368 2.471-1.127 1.46-2.074 3.539-2.89 6.127l2.867.904zm4.391-6.496c.292 0 .508.088.732.32l2.169-2.081c-.779-.81-1.773-1.245-2.901-1.245v3.006zm.753.343c.21.21.312.439.312.784h3.006c0-1.115-.399-2.117-1.192-2.91l-2.126 2.126zm.312.784c0 .284-.089.779-.374 1.54l2.815 1.055c.341-.91.565-1.793.565-2.595h-3.006zm-.37 1.528c-.314.818-.629 1.646-.944 2.485l2.815 1.056c.312-.831.623-1.652.935-2.462l-2.806-1.08zm.413 4.515c3.981.134 6.781.638 8.535 1.409 1.7.746 2.132 1.583 2.132 2.413h3.006c0-2.448-1.588-4.138-3.929-5.166-2.284-1.003-5.544-1.523-9.643-1.66l-.101 3.004zm44.8 24.928l1.069 1.057.003-.003-1.072-1.054zm-26.054.376l-1.158.959.003.003 1.155-.962zm.877-28.935l1.079 1.046-1.079-1.046zm21.263 4.102l-1.145.974.009.01 1.136-.984zm-17.568 20.7l-1.217.882.004.005 1.213-.888zm25.365-10.93c0 5.827-1.694 10.316-4.955 13.634l2.144 2.107c3.921-3.99 5.818-9.292 5.818-15.74h-3.007zm-4.952 13.63c-3.26 3.298-7.639 5.003-13.305 5.003v3.006c6.319 0 11.521-1.928 15.443-5.895l-2.138-2.114zM152.63 49.76c-4.587 0-8.031-1.54-10.525-4.532l-2.31 1.924c3.143 3.772 7.485 5.614 12.835 5.614V49.76zm-10.522-4.529c-2.526-3.049-3.883-7.385-3.883-13.196h-3.006c0 6.256 1.462 11.357 4.573 15.114l2.316-1.918zm-3.883-13.196c0-6.076 1.624-10.583 4.681-13.734l-2.158-2.093c-3.749 3.864-5.529 9.211-5.529 15.828h3.006zm4.681-13.734c2.993-3.087 7.2-4.71 12.825-4.71v-3.006c-6.234 0-11.296 1.82-14.983 5.623l2.158 2.093zm12.825-4.71c4.571 0 8.166 1.582 10.928 4.72l2.256-1.987c-3.376-3.835-7.818-5.74-13.184-5.74v3.007zm10.928 4.72c2.775 3.152 4.228 7.373 4.228 12.816h3.007c0-5.997-1.616-10.982-4.979-14.803l-2.256 1.986zm1.003 12.879c0-4.433-1.083-8.104-3.437-10.818l-2.271 1.97c1.738 2.004 2.702 4.888 2.702 8.848h3.006zm-3.427-10.807c-2.35-2.761-5.57-4.1-9.475-4.1v3.007c3.151 0 5.484 1.042 7.185 3.041l2.29-1.948zm-9.475-4.1c-4.247 0-7.68 1.29-10.01 4.089-2.285 2.746-3.299 6.7-3.299 11.6h3.006c0-4.556.954-7.695 2.604-9.677 1.606-1.93 4.075-3.005 7.699-3.005v-3.006zm-13.309 15.69c0 4.53.884 8.251 2.854 10.966l2.433-1.765c-1.453-2.004-2.281-5.006-2.281-9.201h-3.006zm2.858 10.971c2.027 2.769 4.955 4.123 8.572 4.123V44.06c-2.772 0-4.749-.984-6.146-2.892l-2.426 1.776zm8.572 4.123c4.462 0 8.139-1.377 10.838-4.267l-2.198-2.051c-2.019 2.162-4.834 3.311-8.64 3.311v3.007zm10.838-4.267c2.691-2.882 3.943-6.82 3.943-11.61h-3.006c0 4.271-1.108 7.389-3.135 9.559l2.198 2.051zM189.77 25.93l1.226.87.004-.006-1.23-.864zm-3.288 22.046l-1.416-.505v.002l1.416.503zm-5.449-3.163l1.46.359.001-.003-1.461-.356zm-1.628-20.793l-1.396.558.018.045.021.043 1.357-.646zm-1.722-3.163l-1.317.725.001.001 1.316-.726zm7.735 2.944l-1.452.39 1.004 3.729 1.781-3.426-1.333-.693zm14.561-4.792l-.908 1.198.006.005.006.005.896-1.208zm.439 3.664c0 .464-.13.767-.343 1.008l2.251 1.992c.747-.844 1.098-1.877 1.098-3h-3.006zm-.343 1.008c-.223.252-.399.308-.597.308v3.006c1.138 0 2.11-.487 2.848-1.322l-2.251-1.992zm-.597.308c.083 0 .015.02-.267-.12-.26-.128-.61-.345-1.059-.679l-1.795 2.411c.532.397 1.044.728 1.525.965.459.226 1.012.429 1.596.429v-3.006zm-1.326-.799c-1.108-.826-2.309-1.394-3.559-1.394v3.007c.337 0 .91.162 1.764.798l1.795-2.411zm-3.559-1.394c-2.518 0-4.566 1.154-6.053 3.27l2.46 1.728c.977-1.39 2.144-1.991 3.593-1.991v-3.007zm-6.048 3.263c-1.471 2.07-2.125 4.76-2.125 7.917h3.006c0-2.772.577-4.78 1.57-6.175l-2.451-1.742zm-2.125 7.917v4.102h3.006v-4.102h-3.006zm0 4.102c0 4.49-.475 7.93-1.354 10.393l2.832 1.01c1.042-2.923 1.528-6.749 1.528-11.403h-3.006zm-1.354 10.395c-.415 1.168-.846 1.906-1.234 2.329-.358.39-.623.46-.826.46v3.006c1.217 0 2.242-.562 3.042-1.434.77-.84 1.368-1.997 1.851-3.355l-2.833-1.006zm-2.06 2.789c-.722 0-.987-.178-1.08-.27-.09-.09-.266-.342-.266-1.045h-3.007c0 1.175.299 2.332 1.159 3.182.857.848 2.017 1.14 3.194 1.14V50.26zm-1.346-1.315c0 .004.029-.263.186-1.004.141-.666.356-1.587.647-2.771l-2.919-.717a97.272 97.272 0 0 0-.669 2.865c-.135.637-.252 1.247-.252 1.627h3.007zm.834-3.778c.608-2.498.919-4.873.919-7.12h-3.006c0 1.97-.273 4.105-.834 6.408l2.921.712zm.919-7.12c0-5.966-.848-10.89-2.651-14.676l-2.714 1.293c1.538 3.23 2.359 7.658 2.359 13.383h3.006zm-2.612-14.588c-.049-.122-.146-.302-.2-.403-.08-.152-.193-.361-.338-.626a525.22 525.22 0 0 0-1.264-2.302l-2.632 1.453a471.603 471.603 0 0 1 1.58 2.886c.1.189.09.18.062.109l2.792-1.117zm-1.802-3.33c-.535-.971-.659-1.507-.659-1.717h-3.006c0 1.001.44 2.094 1.032 3.168l2.633-1.45zm-.659-1.717c0-.122.042-.371.475-.763l-2.015-2.231c-.86.777-1.466 1.78-1.466 2.994h3.006zm.475-.763c.419-.378.771-.49 1.091-.49v-3.005c-1.183 0-2.229.473-3.106 1.264l2.015 2.23zm1.091-.49c.398 0 1.011.22 1.793 1.376.781 1.154 1.553 3.003 2.267 5.654l2.903-.781c-.748-2.777-1.625-4.999-2.681-6.558-1.055-1.56-2.467-2.696-4.282-2.696v3.006zm6.845 7.333c.996-1.915 2.173-3.263 3.495-4.136 1.312-.866 2.848-1.317 4.66-1.317v-3.007c-2.342 0-4.465.593-6.316 1.815-1.841 1.215-3.331 2.998-4.506 5.258l2.667 1.387zm8.155-5.453c1.854 0 3.198.433 4.165 1.166l1.816-2.395c-1.622-1.23-3.66-1.778-5.981-1.778v3.007zm4.177 1.175c.951.706 1.335 1.497 1.335 2.457h3.006c0-2.004-.911-3.656-2.549-4.87l-1.792 2.413zm9.884-10.57l-1.077 1.05.007.006.007.007 1.063-1.063zm4.634 36.608l-1.486-.222-.001.004 1.487.218zm-1.19 4.885l-1.331-.699-.004.008-.004.008 1.339.683zm-4.854.845l-1.043 1.082.01.01.011.01 1.022-1.102zm-.375-4.165l-1.466-.331-.002.007-.002.007 1.47.317zm.97-5.98l1.494.167.001-.01-1.495-.158zm1.096-25.053l1.379.598.005-.011.005-.012-1.389-.575zm5.543-10.365c0 1.258-.308 1.924-.659 2.283-.345.353-.979.66-2.19.66v3.007c1.69 0 3.233-.434 4.338-1.564 1.1-1.123 1.517-2.68 1.517-4.386h-3.006zm-2.849 2.943c-.778 0-1.385-.253-1.913-.78l-2.125 2.125c1.101 1.1 2.477 1.662 4.038 1.662V9.363zm-1.899-.767c-.517-.53-.763-1.134-.763-1.895h-3.007c0 1.536.547 2.895 1.617 3.993l2.153-2.098zm-.763-1.895c0-.858.283-1.54.875-2.13l-2.126-2.127c-1.162 1.162-1.756 2.61-1.756 4.257h3.007zm.875-2.13c.586-.587 1.275-.876 2.162-.876V.69c-1.66 0-3.121.588-4.288 1.755l2.126 2.126zm2.162-.876c.831 0 1.378.254 1.789.689l2.184-2.066c-1.05-1.11-2.424-1.63-3.973-1.63v3.007zm1.789.689c.416.44.685 1.066.685 2.036h3.006c0-1.577-.461-2.997-1.507-4.102l-2.184 2.066zm-.661 13.967c0 12.575-.45 21.783-1.33 27.68l2.973.444c.915-6.129 1.363-15.522 1.363-28.124h-3.006zm-1.331 27.684c-.357 2.439-.73 3.825-1.034 4.404l2.662 1.398c.573-1.092.994-2.962 1.347-5.366l-2.975-.436zm-1.042 4.42c-.177.348-.368.535-.547.644-.179.11-.438.195-.838.195v3.007c.852 0 1.674-.19 2.402-.635.73-.444 1.275-1.087 1.662-1.846l-2.679-1.364zm-1.385.84c-.475 0-.814-.142-1.107-.413l-2.045 2.203c.876.814 1.957 1.216 3.152 1.216v-3.007zm-1.086-.394c-.308-.296-.417-.58-.417-.922h-3.007c0 1.203.476 2.256 1.337 3.086l2.087-2.164zm-3.424-.922a1.547 1.547 0 0 0 .203.762 1.506 1.506 0 0 0 2.699-.19c.046-.114.077-.23.084-.255.028-.106.065-.258.107-.44.086-.371.214-.947.381-1.72l-2.939-.635c-.166.771-.29 1.328-.37 1.677-.042.179-.068.284-.081.331-.014.052.001-.012.037-.1a1.421 1.421 0 0 1 .358-.517 1.5 1.5 0 0 1 2.327.344c.121.21.16.397.173.46.029.145.028.262.028.283h-3.007zm3.471-1.829c.411-1.82.743-3.87.998-6.145l-2.987-.335c-.246 2.191-.562 4.129-.943 5.817l2.932.663zm.999-6.155c.341-3.236.51-6.839.51-10.805h-3.007c0 3.884-.165 7.379-.492 10.49l2.989.315zm.51-10.805c0-1.724-.021-3.541-.063-5.45l-3.006.066c.042 1.89.062 3.684.062 5.384h3.007zm-.063-5.45a383.461 383.461 0 0 1-.063-3.068h-3.006c0 .189.022 1.249.063 3.133l3.006-.066zm-.063-3.068c0-2.816.252-4.495.596-5.289l-2.757-1.196c-.617 1.42-.845 3.665-.845 6.485h3.006zm.606-5.312c.155-.373.336-.564.506-.674.176-.113.456-.214.924-.214v-3.006c-.911 0-1.789.201-2.552.693-.769.496-1.309 1.213-1.655 2.051l2.777 1.15zm1.43-.888c.66 0 .902.182 1.016.317.154.18.362.612.362 1.562h3.006c0-1.306-.273-2.565-1.079-3.511-.846-.993-2.045-1.374-3.305-1.374v3.006zm37.14 36.388l-1.452-.388h-.001l1.453.388zm-6.201.846l1.474.294.627-3.135-2.814 1.518.713 1.323zm-16.064-1.691l-1.068 1.058.005.005 1.063-1.063zm.281-19.416l1.059 1.068.004-.005-1.063-1.063zm18.664-.125l-1.049 1.077 2.734 2.663-.183-3.812-1.502.072zM232.61 21.263l.695 1.333.007-.004-.702-1.329zm-4.729.25l-1.082 1.044 1.082-1.043zm1.879-5.48l.76 1.297.005-.003-.765-1.294zM243.351 48.1l1.079 1.047.008-.008-1.087-1.039zm6.858-13.184c0 5.574-.814 11.424-2.454 17.556l2.904.777c1.699-6.353 2.556-12.465 2.556-18.333h-3.006zm-2.455 17.557c-.393 1.475-.845 2.424-1.283 2.976-.403.508-.723.605-.991.605v3.006c1.382 0 2.507-.685 3.346-1.743.805-1.014 1.391-2.413 1.833-4.07l-2.905-.774zm-2.274 3.581c-.56 0-.721-.15-.774-.21-.085-.097-.259-.395-.259-1.168h-3.006c0 1.149.248 2.29 1.009 3.154.792.9 1.9 1.23 3.03 1.23v-3.006zm-1.033-1.378c0-.42.022-.62.033-.676l-2.948-.59c-.072.363-.091.81-.091 1.266h3.006zm-2.154-2.293c-1.925 1.037-3.883 1.542-5.894 1.542v3.006c2.54 0 4.986-.644 7.321-1.902l-1.427-2.646zm-5.894 1.542c-3.737 0-6.468-1.047-8.395-2.973l-2.125 2.126c2.624 2.624 6.198 3.853 10.52 3.853v-3.006zm-8.39-2.968c-1.904-1.922-2.946-4.683-2.946-8.493h-3.007c0 4.373 1.212 7.98 3.818 10.609l2.135-2.116zm-2.946-8.493c0-3.843 1.118-6.715 3.219-8.797l-2.117-2.135c-2.785 2.76-4.109 6.465-4.109 10.932h3.007zm3.223-8.802c2.113-2.112 4.951-3.224 8.676-3.224v-3.006c-4.374 0-8.029 1.331-10.802 4.104l2.126 2.126zm8.676-3.224c3.156 0 5.749 1.04 7.876 3.113l2.098-2.154c-2.716-2.645-6.073-3.965-9.974-3.965v3.006zm10.427 1.964c-.205-4.256-1.101-7.695-2.886-10.1-1.848-2.492-4.518-3.7-7.791-3.7v3.006c2.447 0 4.166.853 5.377 2.484 1.274 1.718 2.105 4.463 2.297 8.454l3.003-.144zm-10.677-13.8c-1.581 0-3.189.478-4.805 1.332l1.405 2.658c1.307-.691 2.433-.984 3.4-.984V18.6zm-4.798 1.328c-.699.365-1.244.621-1.648.783-.464.186-.571.174-.475.174v3.006c.535 0 1.117-.199 1.592-.389.536-.214 1.18-.521 1.922-.908l-1.391-2.666zm-2.123.957c-.241 0-.503-.08-.828-.417l-2.164 2.087c.802.832 1.814 1.337 2.992 1.337v-3.007zm-.828-.417c-.317-.329-.424-.631-.424-.96h-3.007c0 1.173.457 2.207 1.267 3.047l2.164-2.087zm-.424-.96c0-.43.302-1.196 1.981-2.18L229 14.737c-1.954 1.145-3.468 2.696-3.468 4.772h3.007zm1.986-2.183c1.669-.987 3.711-1.513 6.187-1.513v-3.006c-2.91 0-5.503.622-7.717 1.932l1.53 2.587zm6.187-1.513c4.616 0 7.87 1.56 10.035 4.533 2.229 3.062 3.462 7.839 3.462 14.57h3.006c0-7.007-1.267-12.533-4.038-16.34-2.835-3.894-7.081-5.77-12.465-5.77v3.007zm10.146 26.462c0-2.862-.671-5.287-2.279-6.996-1.625-1.726-3.958-2.462-6.708-2.462v3.007c2.238 0 3.648.59 4.518 1.515.887.942 1.463 2.494 1.463 4.936h3.006zm-8.987-9.458c-2.953 0-5.445.71-7.196 2.393-1.761 1.694-2.512 4.125-2.512 7.002h3.006c0-2.384.617-3.899 1.59-4.835.985-.947 2.594-1.553 5.112-1.553v-3.007zm-9.708 9.395c0 2.892.742 5.335 2.488 7.04 1.739 1.7 4.22 2.417 7.157 2.417v-3.006c-2.491 0-4.082-.609-5.056-1.56-.968-.947-1.583-2.48-1.583-4.891h-3.006zm9.645 9.457c2.666 0 4.94-.79 6.622-2.523l-2.158-2.093c-.991 1.021-2.412 1.61-4.464 1.61v3.006zm6.63-2.532c1.673-1.75 2.42-4.106 2.42-6.862h-3.006c0 2.211-.589 3.74-1.588 4.786l2.174 2.077zm23.777 7.292l1.402.542.006-.016.006-.017-1.414-.509zm-5.856-3.445l1.494-.164v-.002l-1.494.166zm-.47-41.743l-1.491-.188-.001.008 1.492.18zm5.95 7.297l1.501.079-1.501-.08zm.157 24.52l-1.5.097 1.5-.097zm-1.002 10.459c0 1.435-.105 2.158-.193 2.403l2.828 1.018c.288-.799.371-2.017.371-3.421h-3.006zm-.181 2.37c-.066.172-.139.236-.212.279-.096.056-.31.138-.735.138v3.006c.787 0 1.57-.148 2.256-.551.71-.416 1.206-1.04 1.495-1.788l-2.804-1.084zm-.947.417c-.509 0-.846-.17-1.148-.587-.363-.499-.7-1.404-.865-2.898l-2.988.33c.19 1.722.615 3.228 1.421 4.336.867 1.192 2.107 1.825 3.58 1.825v-3.006zm-2.013-3.486c-.596-5.347-.899-12.716-.899-22.13h-3.006c0 9.458.303 16.954.917 22.463l2.988-.333zm-.899-22.13c0-10.581.149-16.956.428-19.267l-2.985-.36c-.306 2.533-.449 9.123-.449 19.627h3.006zm.427-19.259c.15-1.196.443-1.879.726-2.235.227-.285.491-.427.945-.427V5.762c-1.32 0-2.47.521-3.298 1.562-.771.969-1.173 2.275-1.356 3.73l2.983.376zm1.671-2.662c.729 0 1.029.207 1.19.402.207.25.439.79.439 1.884h3.006c0-1.432-.29-2.786-1.128-3.8-.882-1.067-2.148-1.492-3.507-1.492v3.006zm1.629 2.286c0 .575-.112 3.014-.343 7.406l3.002.158c.228-4.336.347-6.886.347-7.564h-3.006zm-.343 7.405c-.231 4.364-.346 8.4-.346 12.105h3.006c0-3.644.114-7.625.342-11.946l-3.002-.159zm-.346 12.105c0 3.26.169 7.462.504 12.592l3-.195c-.333-5.1-.498-9.228-.498-12.397h-3.006zm.504 12.593c.334 5.098.498 8.538.498 10.36H270c0-1.934-.171-5.468-.504-10.557l-3 .197z"/>
</svg>
