<?xml version="1.0" encoding="utf-8"?>
<!-- Generator: Adobe Illustrator 17.0.0, SVG Export Plug-In . SVG Version: 6.00 Build 0)  -->
<!DOCTYPE svg PUBLIC "-//W3C//DTD SVG 1.1//EN" "http://www.w3.org/Graphics/SVG/1.1/DTD/svg11.dtd">
<svg version="1.1" id="레이어_1" xmlns="http://www.w3.org/2000/svg" xmlns:xlink="http://www.w3.org/1999/xlink" x="0px"
	 y="0px" width="400px" height="250px" viewBox="0 0 400 250" enable-background="new 0 0 400 250" xml:space="preserve">
<rect fill="#F39800" width="400" height="250"/>
<path fill="#DCDDDD" d="M374.587,250.393c0,6.627-5.373,12-12,12H196.004c-6.627,0-12-5.373-12-12V86.731c0-6.627,5.373-12,12-12
	h166.583c6.627,0,12,5.373,12,12V250.393z"/>
<path fill="#EFEFEF" d="M370.633,248.299c0,6.627-5.373,12-12,12H192.05c-6.627,0-12-5.373-12-12V84.637c0-6.627,5.373-12,12-12
	h166.583c6.627,0,12,5.373,12,12V248.299z"/>
<text transform="matrix(1 0 0 1 200.0002 109.6665)" font-family="'BMHANNA11yrsold'" font-size="26">1분 30초 예상</text>
<g>
	<polygon fill="#57555C" points="198.492,56.912 176.226,92.733 162.348,84.104 147.929,75.142 170.195,39.322 184.39,48.146 	"/>
	<polygon fill="#2A292C" points="198.492,56.912 176.226,92.733 162.348,84.104 184.39,48.146 	"/>
	
		<rect x="90.854" y="39.254" transform="matrix(-0.9888 0.1489 -0.1489 -0.9888 227.2408 94.8113)" fill="#57555C" width="38.433" height="33.319"/>
	
		<rect x="109.963" y="37.823" transform="matrix(-0.9888 0.1489 -0.1489 -0.9888 245.9234 90.5506)" fill="#2A292C" width="19.216" height="33.319"/>
	<path fill="#379AD6" d="M212.957,134.741c7.39,49.072-26.521,95.009-75.593,102.4s-95.009-26.521-102.4-75.593
		s26.521-95.009,75.593-102.399S205.567,85.669,212.957,134.741z"/>
	<path fill="#167AC0" d="M212.957,134.741c7.39,49.072-26.521,95.009-75.593,102.4L110.558,59.148
		C159.63,51.758,205.567,85.669,212.957,134.741z"/>
	<path fill="#E2E1E3" d="M199.718,136.735c6.291,41.772-22.576,80.876-64.348,87.167c-41.772,6.291-80.876-22.576-87.167-64.348
		s22.576-80.875,64.348-87.166S193.427,94.963,199.718,136.735z"/>
	<path fill="#ADACB2" d="M199.718,136.735c6.291,41.772-22.576,80.876-64.348,87.167L112.551,72.387
		C154.324,66.096,193.427,94.963,199.718,136.735z"/>
	<g>
		
			<rect x="73.497" y="20.726" transform="matrix(-0.9888 0.1489 -0.1489 -0.9888 218.6653 57.2107)" fill="#E72139" width="67.387" height="32.132"/>
		
			<rect x="139.834" y="97.125" transform="matrix(0.7861 0.6181 -0.6181 0.7861 105.173 -65.0196)" fill="#E72139" width="13.389" height="44.643"/>
	</g>
	<g>
		<path fill="#57555C" d="M120.904,127.845c-10.141,1.527-17.147,11.017-15.619,21.158c1.527,10.141,11.017,17.147,21.158,15.619
			c10.141-1.527,17.147-11.017,15.619-21.158C140.535,133.323,131.045,126.317,120.904,127.845z M124.449,151.383
			c-2.838,0.427-5.498-1.537-5.926-4.374s1.537-5.498,4.374-5.926c2.838-0.427,5.498,1.537,5.926,4.374
			C129.25,148.296,127.286,150.956,124.449,151.383z"/>
		
			<rect x="41.426" y="151.741" transform="matrix(-0.9888 0.1489 -0.1489 -0.9888 134.2401 306.8178)" fill="#57555C" width="28.414" height="13.388"/>
	</g>
	
		<rect x="178.082" y="131.16" transform="matrix(-0.9888 0.1489 -0.1489 -0.9888 402.9631 245.534)" fill="#2A292C" width="28.414" height="13.388"/>
	<g>
		
			<rect x="127.557" y="202.265" transform="matrix(-0.9888 0.1489 -0.1489 -0.9888 299.244 410.5377)" fill="#57555C" width="13.388" height="28.414"/>
		
			<rect x="106.976" y="65.609" transform="matrix(-0.9888 0.1489 -0.1489 -0.9888 237.96 141.8139)" fill="#57555C" width="13.388" height="28.414"/>
	</g>
	<g>
		
			<rect x="113.633" y="65.111" transform="matrix(-0.9888 0.1489 -0.1489 -0.9888 244.4677 140.3298)" fill="#2A292C" width="6.694" height="28.414"/>
		
			<rect x="134.214" y="201.767" transform="matrix(-0.9888 0.1489 -0.1489 -0.9888 305.7517 409.0536)" fill="#2A292C" width="6.694" height="28.414"/>
		<path fill="#2A292C" d="M142.062,143.464c1.527,10.141-5.478,19.631-15.619,21.158l-1.994-13.239
			c2.838-0.427,4.802-3.088,4.374-5.926c-0.427-2.838-3.088-4.802-5.926-4.374l-1.994-13.239
			C131.045,126.317,140.535,133.323,142.062,143.464z"/>
	</g>
	
		<rect x="107.003" y="18.217" transform="matrix(-0.9888 0.1489 -0.1489 -0.9888 251.4239 49.7399)" fill="#911D22" width="33.694" height="32.132"/>
</g>
<g>
	<path fill="#DCDDDD" d="M280.463,125c2.696,0,5.393,0,8.089,0c0.123,0.116,0.231,0.318,0.372,0.337
		c4.594,0.64,8.75,2.117,12.327,4.78c0.533,0.397,1.096,0.741,2.032,0.329c4.635-2.042,9.481-3.053,14.774-2.67
		c6.314,0.458,11.657,2.652,16.228,6.298c4.369,3.484,6.986,7.891,8.041,13.011c0.108,0.526,0.757,1.278,1.289,1.378
		c4.755,0.892,8.725,2.878,11.579,6.335c4.811,5.827,5.568,12.121,2.226,18.676c-0.902,1.769-2.384,3.311-3.627,4.995
		c0.333,0.417,0.659,0.872,1.037,1.291c2.083,2.308,3.693,4.828,4.57,7.685c0.436,1.42,0.887,2.836,1.331,4.253
		c0,1.996,0,3.993,0,5.989c-0.131,0.111-0.365,0.214-0.378,0.335c-0.356,3.317-1.625,6.382-3.516,9.234
		c-2.832,4.271-6.741,7.557-12.046,9.413c-2.018,0.706-4.111,1.246-6.162,1.859c-0.789,8.109-5.986,13.642-14.023,15.727
		c-8.475,2.199-15.93,0.115-21.866-5.276c-2.635,1.655-4.936,3.443-7.574,4.682c-4.674,2.196-9.744,3.28-15.102,2.588
		c-2.456-0.317-4.934-0.708-7.289-1.372c-4.035-1.136-7.349-3.313-10.27-5.992c-0.479-0.439-1.438-0.774-2.113-0.704
		c-3.094,0.323-6.155,0.432-9.13-0.505c-7.008-2.208-12.633-5.549-13.388-12.786c-0.158-1.514-0.491-3.025-0.495-4.538
		c-0.003-1.138-0.327-1.818-1.58-2.289c-4.22-1.587-7.583-4.204-10.064-7.494c-3.827-5.074-5.34-10.709-4.297-16.812
		c1.132-6.622,4.725-11.88,11.121-15.597c0.913-0.531,1.119-0.953,0.622-1.839c-2.242-3.997-3.173-8.188-2.4-12.648
		c0.904-5.214,3.356-9.759,7.556-13.525c3.543-3.177,7.79-5.416,12.74-6.474c3.41-0.729,6.875-0.954,10.399-0.474
		c0.82,0.112,1.832,0.754,2.697-0.177c3.1-3.336,7.13-5.473,11.751-6.808C277.427,125.782,278.95,125.404,280.463,125z
		 M263.718,156.828c6.213-0.15,11.372-1.497,15.754-4.589c1.537-1.085,2.927-2.481,3.917-3.972c1.582-2.382,0.472-4.642-2.43-5.76
		c-3.235-1.245-6.591-1.033-9.93-0.56c-5.393,0.763-10.034,2.849-13.651,6.47c-3.378,3.382-2.039,6.913,2.96,7.945
		C261.641,156.631,262.989,156.731,263.718,156.828z"/>
	<path fill="#DCDDDD" d="M200.732,253.22c0.231-0.309,0.56-0.592,0.679-0.931c1.321-3.763,5.322-6.245,9.895-6.159
		c4.709,0.088,8.555,2.336,9.967,6.523c1.614,4.787-1.413,10.184-7.084,11.406c-0.151,0.033-0.261,0.211-0.39,0.322
		c-1.763,0-3.526,0-5.289,0c-0.127-0.112-0.231-0.285-0.383-0.326c-3.514-0.964-5.708-3.058-6.861-6.068
		c-0.096-0.252-0.353-0.457-0.535-0.684C200.732,255.943,200.732,254.582,200.732,253.22z M207.608,251.266
		c1.733-0.019,3.44-1.009,3.166-1.652c-0.183-0.428-1.002-0.847-1.583-0.904c-1.206-0.117-2.894,0.968-2.653,1.629
		C206.706,250.801,207.416,251.11,207.608,251.266z"/>
	<path fill="#DCDDDD" fill-opacity="0.5" d="M263.011,156.828c-0.729-0.097-2.077-0.197-3.379-0.466
		c-4.999-1.033-6.338-4.563-2.96-7.945c3.617-3.621,8.258-5.707,13.651-6.47c3.339-0.473,6.695-0.685,9.93,0.56
		c2.902,1.117,4.012,3.377,2.43,5.76c-0.99,1.491-2.38,2.888-3.917,3.972C274.383,155.331,269.224,156.678,263.011,156.828z"/>
	<path fill="#DCDDDD" d="M234.569,251.265c-7.972-0.057-12.055-5.336-12.1-12.181c-0.046-6.908,4.893-12.081,11.95-12.068
		c7.508,0.013,11.922,5.302,12.048,12.104C246.59,245.821,241.368,251.329,234.569,251.265z M232.066,230.072
		c-1.457,0.537-2.87,0.943-4.129,1.581c-0.489,0.248-1.03,1.223-0.841,1.509c0.313,0.473,1.27,0.99,1.829,0.898
		c1.431-0.235,2.859-0.685,4.151-1.278c0.524-0.241,1.053-1.157,0.918-1.617C233.868,230.732,232.87,230.494,232.066,230.072z"/>
</g>
<text transform="matrix(1 0 0 1 249.3463 183.0573)"><tspan x="0" y="0" font-family="'DXPnM-KSCpc-EUC-H'" font-size="14">스크립트 양을</tspan><tspan x="6.72" y="16.8" font-family="'DXPnM-KSCpc-EUC-H'" font-size="14">줄여야겠군.</tspan></text>
</svg>
