<?xml version="1.0" encoding="utf-8"?>
<!-- Generator: Adobe Illustrator 17.0.0, SVG Export Plug-In . SVG Version: 6.00 Build 0)  -->
<!DOCTYPE svg PUBLIC "-//W3C//DTD SVG 1.1//EN" "http://www.w3.org/Graphics/SVG/1.1/DTD/svg11.dtd">
<svg version="1.1" id="레이어_1" xmlns="http://www.w3.org/2000/svg" xmlns:xlink="http://www.w3.org/1999/xlink" x="0px"
	 y="0px" width="400px" height="250px" viewBox="0 0 400 250" enable-background="new 0 0 400 250" xml:space="preserve">
<rect fill="#3BB379" width="400" height="250"/>
<g>
	<path fill="#E4E7E6" d="M360,209.546v5c0,8.25-6.75,15-15,15H55c-8.25-0.001-15-6.75-15-15v-5H360L360,209.546z"/>
	<path fill="#C8CBCB" d="M177.5,204.546h45c4.25,0,7.5,3.25,7.5,7.5s-3.25,7.5-7.5,7.5h-45c-4.25,0-7.5-3.25-7.5-7.5
		C170,208.046,173.25,204.546,177.5,204.546z"/>
	<path fill="#36434E" d="M80,24.546h240c5.5,0,10,4.5,10,10v175H70v-175C70,29.046,74.5,24.546,80,24.546z"/>
	<path fill="#455663" d="M85,39.545h230v155H85V39.545z"/>
	<path fill="#7D8892" d="M140,174.545h120c8.25,0,15,6.75,15,15v5H125v-5C125,181.295,131.75,174.545,140,174.545z"/>
	<path fill="#E4E7E6" d="M155,164.545c5.5,0,10,4.5,10,10c0,5.5-4.5,10-10,10s-10-4.5-10-10C145,169.045,149.5,164.545,155,164.545z
		"/>
	<path fill="#E7C260" d="M185,164.545c5.5,0,10,4.5,10,10c0,5.5-4.5,10-10,10c-5.5,0-10-4.5-10-10
		C175,169.045,179.5,164.545,185,164.545z"/>
	<path fill="#E4E7E6" d="M215,164.545c5.5,0,10,4.5,10,10c0,5.5-4.5,10-10,10c-5.5,0-10-4.5-10-10
		C205,169.045,209.5,164.545,215,164.545z M245,164.545c5.5,0,10,4.5,10,10c0,5.5-4.5,10-10,10c-5.5,0-10-4.5-10-10
		C235,169.045,239.5,164.545,245,164.545z"/>
</g>
<rect x="85" y="39.545" fill="#F7F8F8" width="230" height="155"/>
<rect x="85" y="39.545" fill="#EFEFEF" width="230" height="22.708"/>
<rect x="101.299" y="77.483" fill="#EFEFEF" stroke="#727171" stroke-width="0.5" stroke-miterlimit="10" width="91.379" height="85.345"/>
<rect x="206.437" y="77.483" fill="#EFEFEF" stroke="#727171" stroke-width="0.5" stroke-miterlimit="10" width="91.379" height="40"/>
<rect x="206.437" y="122.828" fill="#EFEFEF" stroke="#727171" stroke-width="0.5" stroke-miterlimit="10" width="91.379" height="40"/>
<g>
	<path fill="#0B4777" d="M93.507,52.714V48.18c0-0.586-0.038-0.958-0.115-1.116c-0.076-0.158-0.284-0.286-0.622-0.384
		c-0.491-0.149-0.737-0.408-0.737-0.776c0-0.259,0.103-0.457,0.311-0.595c0.207-0.138,0.508-0.207,0.901-0.207
		c0.131,0,0.456,0.009,0.974,0.026h0.491c0.906-0.006,1.437-0.013,1.593-0.022c0.155-0.008,0.711-0.059,1.667-0.151
		c0.317-0.034,0.606-0.052,0.868-0.052c0.895,0,1.692,0.193,2.391,0.578c1.217,0.667,1.826,1.724,1.826,3.172
		c0,1.172-0.426,2.112-1.278,2.819c-0.802,0.661-1.774,0.991-2.915,0.991c-0.29,0-0.644-0.02-1.064-0.06
		c-0.224-0.017-0.363-0.026-0.418-0.026c-0.158,0-0.238,0.095-0.238,0.284v0.052l0.057,1.414c0.011,0.276,0.059,0.482,0.143,0.616
		c0.085,0.135,0.258,0.275,0.52,0.418c0.355,0.201,0.532,0.419,0.532,0.655c0,0.362-0.262,0.641-0.786,0.836
		c-0.524,0.195-1.266,0.293-2.227,0.293c-2.02,0-3.03-0.365-3.03-1.095c0-0.173,0.044-0.304,0.131-0.396
		c0.087-0.092,0.292-0.224,0.614-0.396c0.196-0.109,0.311-0.261,0.344-0.457C93.474,54.406,93.496,53.777,93.507,52.714z
		 M97.2,47.085v2.931c0,0.224,0.046,0.359,0.139,0.405c0.158,0.081,0.357,0.121,0.598,0.121c0.361,0,0.663-0.106,0.909-0.319
		c0.355-0.304,0.532-0.816,0.532-1.534c0-0.747-0.208-1.287-0.623-1.62c-0.262-0.212-0.579-0.319-0.95-0.319
		C97.402,46.749,97.2,46.861,97.2,47.085z"/>
	<path fill="#289E62" d="M108.272,49.938v2.767c0,1.224,0.018,1.937,0.053,2.138c0.036,0.201,0.171,0.356,0.405,0.465
		c0.202,0.092,0.337,0.178,0.405,0.259c0.068,0.081,0.103,0.195,0.103,0.345c0,0.19-0.064,0.362-0.192,0.517
		c-0.129,0.155-0.299,0.264-0.512,0.328c-0.393,0.126-1.056,0.19-1.99,0.19c-1.054,0-1.794-0.084-2.219-0.25
		c-0.197-0.074-0.358-0.191-0.483-0.349c-0.126-0.158-0.188-0.323-0.188-0.496c0-0.138,0.034-0.244,0.103-0.319
		c0.068-0.075,0.217-0.164,0.446-0.267c0.213-0.098,0.344-0.365,0.393-0.802c0.087-0.747,0.131-1.81,0.131-3.189
		c0-1.402-0.038-2.304-0.115-2.707c-0.076-0.402-0.268-0.701-0.573-0.897c-0.229-0.138-0.387-0.269-0.471-0.392
		c-0.085-0.123-0.127-0.274-0.127-0.452c0-0.282,0.128-0.527,0.385-0.737c0.256-0.21,0.666-0.404,1.228-0.582
		c0.377-0.121,0.865-0.236,1.466-0.345c0.601-0.109,1.037-0.164,1.31-0.164c0.431,0,0.647,0.282,0.647,0.845
		c0,0.184-0.027,0.606-0.082,1.267C108.323,48.14,108.283,49.082,108.272,49.938z"/>
	<path fill="#289E62" d="M114.209,48.68v4.672c0,1,0.314,1.5,0.942,1.5c0.158,0,0.314-0.047,0.467-0.142
		c0.153-0.095,0.259-0.211,0.319-0.349c0.12-0.276,0.18-0.891,0.18-1.845c0-0.942-0.03-1.586-0.09-1.931
		c-0.022-0.143-0.06-0.248-0.115-0.315c-0.055-0.066-0.158-0.142-0.311-0.229c-0.311-0.173-0.467-0.391-0.467-0.655
		c0-0.356,0.267-0.603,0.802-0.741c1.015-0.264,2.017-0.396,3.005-0.396c0.551,0,0.827,0.308,0.827,0.922
		c0,0.063-0.003,0.193-0.008,0.388c-0.011,0.276-0.02,0.612-0.024,1.008v3.801c0,0.195,0.158,0.374,0.475,0.535
		c0.267,0.138,0.401,0.339,0.401,0.603c0,0.517-0.582,0.917-1.744,1.198c-0.683,0.167-1.343,0.25-1.982,0.25
		c-0.262,0-0.441-0.032-0.536-0.095c-0.096-0.063-0.151-0.187-0.168-0.371c-0.027-0.356-0.131-0.535-0.311-0.535
		c-0.065,0-0.126,0.016-0.18,0.047c-0.055,0.032-0.221,0.148-0.5,0.349c-0.552,0.396-1.144,0.595-1.777,0.595
		c-1.048,0-1.788-0.319-2.219-0.957c-0.366-0.535-0.549-1.434-0.549-2.698c0-0.471,0.002-0.873,0.008-1.207c0-0.195,0-0.328,0-0.396
		c0-0.494-0.042-0.858-0.127-1.09c-0.085-0.233-0.239-0.415-0.463-0.548c-0.213-0.115-0.348-0.207-0.405-0.276
		s-0.086-0.164-0.086-0.284c0-0.437,0.314-0.727,0.942-0.871c1.07-0.247,2.14-0.371,3.21-0.371
		C114.048,48.249,114.209,48.392,114.209,48.68z"/>
	<path fill="#289E62" d="M128.654,52.912h-3.849c-0.169,0-0.254,0.077-0.254,0.233c0,0.374,0.192,0.726,0.577,1.056
		c0.385,0.33,0.798,0.496,1.241,0.496c0.262,0,0.553-0.053,0.872-0.16c0.319-0.106,0.583-0.237,0.79-0.392
		c0.186-0.138,0.333-0.207,0.442-0.207c0.142,0,0.281,0.092,0.418,0.276c0.136,0.184,0.205,0.374,0.205,0.569
		c0,0.414-0.246,0.813-0.737,1.198c-0.868,0.684-1.87,1.026-3.005,1.026c-1.147,0-2.108-0.35-2.882-1.052
		c-0.377-0.345-0.688-0.761-0.934-1.25c-0.322-0.649-0.483-1.333-0.483-2.052c0-0.965,0.278-1.833,0.835-2.603
		c0.48-0.667,1.092-1.164,1.834-1.491c0.557-0.247,1.16-0.371,1.81-0.371c1.037,0,1.919,0.31,2.645,0.931
		c0.366,0.31,0.661,0.678,0.884,1.104c0.256,0.483,0.385,0.954,0.385,1.414c0,0.374-0.073,0.68-0.221,0.918
		C129.08,52.793,128.889,52.912,128.654,52.912z M125.018,51.3h0.827c0.349,0,0.524-0.169,0.524-0.509
		c0-0.31-0.085-0.563-0.254-0.758c-0.169-0.195-0.391-0.293-0.663-0.293c-0.306,0-0.546,0.126-0.721,0.379
		c-0.164,0.236-0.246,0.474-0.246,0.715c0,0.172,0.04,0.293,0.119,0.362C124.684,51.266,124.821,51.3,125.018,51.3z"/>
	<path fill="#289E62" d="M139.914,51.369l0.115,3.034c0.011,0.23,0.045,0.4,0.102,0.509c0.058,0.109,0.225,0.319,0.504,0.629
		c0.082,0.092,0.123,0.221,0.123,0.388c0,0.379-0.216,0.644-0.647,0.793c-0.431,0.149-1.201,0.224-2.31,0.224
		c-0.753,0-1.285-0.069-1.597-0.207c-0.322-0.144-0.483-0.376-0.483-0.698c0-0.115,0.017-0.2,0.049-0.254
		c0.033-0.055,0.142-0.188,0.328-0.401c0.218-0.241,0.328-1.046,0.328-2.414c0-0.793-0.087-1.379-0.262-1.759
		c-0.142-0.304-0.404-0.457-0.786-0.457c-0.366,0-0.617,0.124-0.754,0.37c-0.136,0.247-0.205,0.695-0.205,1.345v1.707
		c0,0.339,0.02,0.572,0.062,0.698c0.041,0.126,0.176,0.37,0.405,0.732c0.06,0.103,0.09,0.221,0.09,0.354
		c0,0.339-0.224,0.589-0.672,0.75c-0.448,0.161-1.146,0.241-2.096,0.241c-1.518,0-2.277-0.33-2.277-0.991
		c0-0.138,0.023-0.243,0.07-0.315c0.046-0.072,0.157-0.174,0.331-0.306c0.142-0.109,0.232-0.234,0.27-0.375
		c0.038-0.141,0.073-0.487,0.107-1.039c0.038-0.655,0.057-1.342,0.057-2.06c0-0.396-0.029-0.656-0.086-0.78
		c-0.058-0.123-0.223-0.274-0.496-0.452c-0.235-0.155-0.352-0.345-0.352-0.569c0-0.23,0.095-0.418,0.286-0.565
		c0.191-0.146,0.584-0.332,1.179-0.556c0.524-0.195,1.029-0.361,1.515-0.496c0.486-0.135,0.819-0.203,0.999-0.203
		c0.164,0,0.302,0.063,0.413,0.19c0.112,0.126,0.168,0.276,0.168,0.448c0,0.017-0.003,0.089-0.008,0.216
		c-0.006,0.046-0.008,0.086-0.008,0.121c0,0.276,0.109,0.414,0.328,0.414c0.131,0,0.27-0.109,0.418-0.328
		c0.47-0.712,1.152-1.069,2.047-1.069c0.688,0,1.277,0.19,1.769,0.569c0.344,0.27,0.584,0.588,0.721,0.952
		C139.796,50.126,139.881,50.662,139.914,51.369z"/>
	<path fill="#0B4777" d="M144.098,45.008h4.316c0.464-0.017,0.887-0.083,1.269-0.198c0.164-0.046,0.308-0.069,0.434-0.069
		c0.442,0,0.872,0.345,1.29,1.034c0.418,0.69,0.627,1.4,0.627,2.129c0,0.5-0.145,0.865-0.434,1.095
		c-0.218,0.173-0.481,0.259-0.786,0.259c-0.29,0-0.54-0.085-0.754-0.254c-0.213-0.169-0.423-0.449-0.631-0.84
		c-0.18-0.356-0.322-0.589-0.426-0.698c-0.104-0.109-0.229-0.164-0.377-0.164c-0.202,0-0.347,0.089-0.434,0.267
		c-0.087,0.178-0.131,0.471-0.131,0.879v4.827c0,0.494,0.049,0.853,0.148,1.077s0.284,0.396,0.557,0.517
		c0.295,0.133,0.496,0.257,0.602,0.375c0.107,0.118,0.16,0.28,0.16,0.487c0,0.414-0.266,0.721-0.798,0.923s-1.35,0.302-2.453,0.302
		c-1.354,0-2.358-0.118-3.013-0.353c-0.551-0.195-0.827-0.511-0.827-0.948c0-0.236,0.098-0.419,0.295-0.552
		c0.049-0.029,0.243-0.098,0.582-0.207c0.208-0.063,0.351-0.184,0.43-0.362c0.079-0.178,0.143-0.52,0.193-1.026
		c0.044-0.448,0.084-1.173,0.123-2.176c0.038-1.003,0.057-1.872,0.057-2.607c0-0.517-0.038-0.885-0.115-1.104
		c-0.076-0.218-0.202-0.328-0.377-0.328c-0.213,0-0.42,0.161-0.623,0.483c-0.366,0.586-0.666,0.974-0.901,1.164
		c-0.278,0.224-0.548,0.336-0.811,0.336c-0.295,0-0.538-0.116-0.729-0.349c-0.191-0.233-0.287-0.53-0.287-0.892
		c0-0.356,0.077-0.749,0.229-1.177c0.153-0.428,0.357-0.823,0.614-1.185c0.415-0.586,0.824-0.879,1.228-0.879
		c0.109,0,0.235,0.017,0.377,0.052c0.295,0.063,0.536,0.107,0.725,0.129C143.635,44.996,143.853,45.008,144.098,45.008z"/>
</g>
<g>
	<path d="M126.494,102.552c-0.368,0-0.832,0.015-1.392,0.043c-0.561,0.029-0.918,0.063-1.073,0.102
		c-0.251,0.039-0.483,0.087-0.696,0.145c-0.213,0.058-0.368,0.106-0.464,0.145c-0.097,0.039-0.203,0.087-0.319,0.145
		c-0.116,0.058-0.222,0.116-0.319,0.174c-0.039,0-0.15-0.039-0.333-0.116c-0.184-0.077-0.363-0.155-0.537-0.232
		c-0.213-0.097-0.425-0.203-0.638-0.319c-0.213-0.116-0.426-0.241-0.638-0.377c-0.136-0.097-0.281-0.203-0.435-0.319
		c-0.155-0.116-0.232-0.232-0.232-0.348c0-0.097,0.039-0.164,0.116-0.203c0.077-0.039,0.174-0.048,0.29-0.029
		c0.097,0.02,0.271,0.043,0.522,0.072c0.251,0.029,0.464,0.054,0.638,0.073c0.193,0.02,0.58,0.043,1.16,0.072
		c0.58,0.029,1.131,0.044,1.653,0.044h6.061c0.329,0,0.706-0.01,1.131-0.029c0.425-0.019,0.783-0.067,1.073-0.145
		c0.193-0.039,0.381-0.106,0.565-0.203c0.184-0.096,0.314-0.183,0.392-0.261c0.271,0.02,0.512,0.034,0.725,0.043
		c0.212,0.01,0.435,0.034,0.667,0.072c0.174,0.02,0.348,0.044,0.522,0.073c0.174,0.029,0.357,0.063,0.551,0.102
		c0.174,0.039,0.343,0.116,0.507,0.232s0.247,0.31,0.247,0.58c0,0.193-0.048,0.348-0.145,0.464s-0.242,0.174-0.435,0.174
		c-0.077,0-0.237-0.009-0.479-0.029c-0.242-0.019-0.459-0.039-0.652-0.058c-0.193-0.019-0.585-0.039-1.174-0.058
		c-0.59-0.019-1.04-0.029-1.349-0.029H126.494z M128.175,113.746c-0.503,0-0.996-0.029-1.479-0.087s-0.851-0.116-1.102-0.174
		c-0.29-0.077-0.585-0.169-0.884-0.275c-0.3-0.106-0.565-0.227-0.797-0.363c-0.194-0.116-0.392-0.247-0.595-0.392
		s-0.362-0.285-0.479-0.42c-0.135-0.154-0.266-0.329-0.392-0.522c-0.126-0.193-0.228-0.357-0.304-0.493
		c-0.116-0.251-0.208-0.532-0.275-0.841c-0.068-0.309-0.102-0.638-0.102-0.986s0.033-0.677,0.102-0.986
		c0.067-0.309,0.159-0.589,0.275-0.841c0.077-0.154,0.178-0.323,0.304-0.507c0.125-0.184,0.256-0.353,0.392-0.508
		c0.116-0.135,0.275-0.275,0.479-0.42s0.401-0.275,0.595-0.392c0.232-0.135,0.498-0.256,0.797-0.362
		c0.299-0.106,0.594-0.198,0.884-0.275c0.251-0.058,0.619-0.116,1.102-0.174c0.483-0.058,0.976-0.087,1.479-0.087
		c0.502,0,0.996,0.029,1.479,0.087c0.483,0.058,0.851,0.116,1.102,0.174c0.29,0.077,0.584,0.169,0.885,0.275
		c0.299,0.106,0.565,0.228,0.797,0.362c0.212,0.116,0.416,0.247,0.609,0.392c0.193,0.145,0.348,0.286,0.464,0.42
		c0.155,0.155,0.29,0.324,0.406,0.508c0.116,0.184,0.212,0.353,0.29,0.507c0.116,0.251,0.208,0.532,0.275,0.841
		c0.067,0.31,0.102,0.638,0.102,0.986s-0.034,0.677-0.102,0.986c-0.068,0.31-0.16,0.59-0.275,0.841
		c-0.078,0.135-0.174,0.3-0.29,0.493c-0.116,0.193-0.251,0.368-0.406,0.522c-0.116,0.136-0.271,0.275-0.464,0.42
		c-0.193,0.145-0.396,0.276-0.609,0.392c-0.232,0.136-0.498,0.256-0.797,0.363c-0.3,0.106-0.595,0.198-0.885,0.275
		c-0.251,0.058-0.619,0.116-1.102,0.174S128.678,113.746,128.175,113.746z M126.377,116.008c0.135,0.039,0.271,0.102,0.406,0.188
		s0.203,0.188,0.203,0.305c0,0.135-0.024,0.28-0.072,0.435c-0.049,0.155-0.073,0.416-0.073,0.783v2.813
		c0,0.348,0.125,0.575,0.377,0.682c0.251,0.106,0.619,0.159,1.102,0.159h5.916c0.677,0,1.223-0.019,1.639-0.058
		c0.416-0.039,0.739-0.097,0.971-0.174c0.232-0.077,0.43-0.165,0.595-0.261c0.164-0.097,0.294-0.193,0.392-0.29
		c0.386,0.019,0.802,0.039,1.247,0.058c0.444,0.019,0.889,0.048,1.334,0.087c0.657,0.058,1.116,0.164,1.377,0.319
		c0.261,0.155,0.392,0.387,0.392,0.696c0,0.193-0.054,0.338-0.16,0.435c-0.106,0.097-0.256,0.145-0.45,0.145H128.06
		c-0.735,0-1.392-0.097-1.972-0.29s-0.87-0.706-0.87-1.537v-2.726c0-0.174-0.043-0.324-0.13-0.45
		c-0.087-0.125-0.179-0.227-0.275-0.304c-0.078-0.077-0.199-0.16-0.363-0.247s-0.314-0.16-0.449-0.218
		c-0.193-0.096-0.387-0.178-0.58-0.246c-0.193-0.068-0.358-0.121-0.493-0.16c-0.097-0.039-0.213-0.077-0.348-0.116
		c-0.136-0.039-0.203-0.096-0.203-0.174c0-0.135,0.077-0.242,0.232-0.319c0.154-0.077,0.357-0.116,0.609-0.116
		c0.135,0,0.377,0.024,0.725,0.073s0.638,0.092,0.87,0.13c0.251,0.039,0.531,0.097,0.841,0.174
		C125.961,115.882,126.204,115.95,126.377,116.008z M125.942,99.159c-0.387,0-0.745-0.048-1.073-0.145
		c-0.329-0.096-0.629-0.222-0.899-0.377c-0.193-0.116-0.396-0.266-0.609-0.449c-0.213-0.184-0.319-0.353-0.319-0.508
		c0-0.096,0.048-0.164,0.145-0.203c0.097-0.038,0.184-0.038,0.261,0c0.135,0.039,0.295,0.083,0.479,0.131s0.343,0.092,0.479,0.13
		c0.213,0.039,0.512,0.083,0.899,0.13c0.387,0.049,0.851,0.073,1.392,0.073h1.653c0.425,0,0.763-0.029,1.015-0.087
		c0.251-0.058,0.445-0.155,0.58-0.29c0.212,0.02,0.439,0.034,0.682,0.043c0.242,0.01,0.488,0.034,0.739,0.072
		c0.232,0.02,0.474,0.087,0.725,0.203c0.251,0.116,0.377,0.329,0.377,0.638c0,0.193-0.068,0.348-0.203,0.464
		c-0.136,0.116-0.319,0.174-0.551,0.174H125.942z M128.175,112.789c0.445,0,0.855-0.024,1.232-0.072
		c0.377-0.048,0.672-0.102,0.885-0.16c0.212-0.058,0.43-0.14,0.652-0.247c0.222-0.106,0.401-0.198,0.537-0.275
		c0.135-0.096,0.275-0.203,0.42-0.319c0.145-0.116,0.266-0.242,0.363-0.377c0.135-0.174,0.246-0.353,0.333-0.537
		c0.087-0.184,0.149-0.343,0.188-0.479c0.038-0.135,0.077-0.314,0.116-0.537c0.039-0.222,0.058-0.43,0.058-0.624
		c0-0.193-0.02-0.401-0.058-0.623c-0.039-0.222-0.078-0.401-0.116-0.537c-0.039-0.155-0.102-0.319-0.188-0.493
		c-0.087-0.174-0.199-0.348-0.333-0.522c-0.097-0.135-0.218-0.266-0.363-0.392c-0.145-0.125-0.286-0.227-0.42-0.304
		c-0.136-0.097-0.314-0.193-0.537-0.29s-0.44-0.174-0.652-0.232c-0.213-0.058-0.507-0.111-0.885-0.16
		c-0.377-0.048-0.788-0.073-1.232-0.073c-0.425,0-0.826,0.025-1.204,0.073c-0.377,0.048-0.672,0.102-0.884,0.16
		c-0.193,0.058-0.401,0.135-0.624,0.232c-0.223,0.097-0.411,0.193-0.565,0.29c-0.136,0.077-0.275,0.179-0.42,0.304
		c-0.145,0.126-0.266,0.256-0.363,0.392c-0.135,0.174-0.246,0.348-0.333,0.522c-0.087,0.174-0.15,0.338-0.188,0.493
		c-0.039,0.135-0.077,0.314-0.116,0.537c-0.039,0.222-0.058,0.43-0.058,0.623c0,0.194,0.019,0.402,0.058,0.624
		c0.039,0.223,0.077,0.402,0.116,0.537c0.039,0.136,0.102,0.295,0.188,0.479c0.087,0.184,0.198,0.362,0.333,0.537
		c0.097,0.135,0.218,0.261,0.363,0.377c0.145,0.116,0.285,0.223,0.42,0.319c0.154,0.078,0.343,0.169,0.565,0.275
		c0.222,0.107,0.43,0.189,0.624,0.247c0.212,0.058,0.507,0.112,0.884,0.16C127.349,112.765,127.75,112.789,128.175,112.789z
		 M140.674,106.67c0.232,0,0.439-0.024,0.624-0.073c0.184-0.048,0.372-0.14,0.565-0.275c0.116-0.097,0.227-0.198,0.333-0.305
		c0.106-0.106,0.179-0.188,0.218-0.246c0.212,0.019,0.435,0.039,0.667,0.058c0.232,0.02,0.464,0.049,0.696,0.087
		c0.367,0.039,0.677,0.13,0.928,0.275c0.251,0.145,0.377,0.382,0.377,0.71c0,0.251-0.068,0.43-0.203,0.537s-0.31,0.159-0.522,0.159
		h-4.031v3.045c0,0.31-0.005,0.706-0.015,1.189c-0.01,0.484-0.024,0.89-0.043,1.218c-0.02,0.348-0.039,0.725-0.058,1.131
		c-0.02,0.406-0.039,0.667-0.058,0.783c-0.02,0.135-0.043,0.314-0.072,0.537c-0.029,0.222-0.063,0.44-0.102,0.652
		c-0.02,0.174-0.058,0.333-0.116,0.479s-0.106,0.266-0.145,0.362c-0.039,0.078-0.087,0.141-0.145,0.188
		c-0.058,0.049-0.116,0.073-0.174,0.073c-0.097,0-0.169-0.039-0.217-0.116c-0.049-0.077-0.092-0.154-0.131-0.232
		c-0.02-0.077-0.043-0.174-0.072-0.29c-0.029-0.116-0.054-0.232-0.073-0.348c-0.02-0.135-0.034-0.285-0.043-0.449
		c-0.01-0.164-0.024-0.363-0.043-0.595c-0.02-0.328-0.034-0.763-0.043-1.305c-0.01-0.541-0.015-0.967-0.015-1.276V99.13
		c0-0.193-0.024-0.372-0.072-0.537c-0.048-0.164-0.111-0.294-0.188-0.392c-0.078-0.096-0.165-0.193-0.261-0.29
		c-0.097-0.096-0.203-0.184-0.319-0.261c-0.135-0.097-0.286-0.188-0.45-0.275c-0.164-0.087-0.304-0.16-0.42-0.218
		c-0.135-0.058-0.28-0.121-0.435-0.188c-0.155-0.067-0.29-0.121-0.406-0.16c-0.097-0.038-0.213-0.087-0.348-0.145
		c-0.135-0.058-0.203-0.135-0.203-0.232c0-0.116,0.077-0.203,0.232-0.261c0.154-0.058,0.328-0.087,0.522-0.087
		c0.116,0,0.367,0.029,0.754,0.087c0.386,0.058,0.734,0.126,1.044,0.203c0.251,0.058,0.507,0.126,0.769,0.203
		c0.261,0.078,0.526,0.165,0.797,0.261c0.193,0.078,0.377,0.165,0.551,0.261c0.174,0.097,0.261,0.223,0.261,0.377
		c0,0.078-0.02,0.174-0.058,0.29c-0.039,0.116-0.077,0.242-0.116,0.377c-0.02,0.116-0.039,0.271-0.058,0.464
		c-0.02,0.193-0.029,0.338-0.029,0.435v7.627H140.674z"/>
	<path d="M164.483,107.395c0.077-0.348,0.145-0.711,0.203-1.088s0.116-0.71,0.174-1c0.058-0.367,0.111-0.72,0.16-1.059
		c0.048-0.338,0.092-0.662,0.13-0.971c0.039-0.387,0.087-0.855,0.145-1.407c0.058-0.551,0.097-0.923,0.116-1.116
		c0.019-0.212,0.043-0.522,0.072-0.928c0.029-0.406,0.053-0.744,0.073-1.015h-7.975c-0.657,0-1.319,0.02-1.986,0.058
		c-0.667,0.039-1.165,0.078-1.494,0.116c-0.29,0.039-0.546,0.087-0.769,0.145c-0.223,0.058-0.411,0.116-0.565,0.174
		c-0.155,0.058-0.286,0.116-0.392,0.174c-0.106,0.058-0.208,0.116-0.304,0.174c-0.039,0-0.145-0.029-0.319-0.087
		c-0.174-0.058-0.329-0.116-0.464-0.174c-0.136-0.058-0.28-0.121-0.435-0.188c-0.155-0.067-0.31-0.14-0.464-0.217
		c-0.155-0.077-0.314-0.16-0.479-0.247c-0.165-0.087-0.324-0.169-0.479-0.247c-0.136-0.096-0.29-0.198-0.464-0.304
		c-0.174-0.106-0.261-0.218-0.261-0.333c0-0.135,0.058-0.218,0.174-0.247c0.116-0.029,0.213-0.034,0.29-0.015
		c0.116,0.02,0.285,0.039,0.508,0.058c0.222,0.02,0.43,0.039,0.624,0.058c0.348,0.019,0.86,0.043,1.537,0.072
		s1.566,0.043,2.668,0.043h10.556l0.551-0.435c0.271,0.02,0.536,0.034,0.797,0.043c0.261,0.01,0.498,0.034,0.71,0.073
		c0.154,0.02,0.305,0.063,0.449,0.13c0.146,0.068,0.219,0.169,0.219,0.305s-0.055,0.29-0.16,0.464s-0.18,0.358-0.217,0.551
		c-0.039,0.271-0.098,0.604-0.174,1c-0.078,0.396-0.146,0.73-0.203,1c-0.078,0.368-0.156,0.759-0.232,1.175
		c-0.078,0.416-0.165,0.788-0.261,1.116c-0.078,0.31-0.179,0.701-0.304,1.175c-0.126,0.474-0.237,0.855-0.333,1.146
		c-0.078,0.271-0.17,0.561-0.276,0.87c-0.106,0.309-0.208,0.609-0.304,0.899c0.019-0.019,0.039-0.029,0.058-0.029s0.039,0,0.058,0
		c0.212-0.039,0.435-0.082,0.667-0.13c0.232-0.048,0.416-0.111,0.551-0.188c0.096-0.039,0.188-0.087,0.275-0.145
		c0.086-0.058,0.168-0.116,0.247-0.174c0.27,0.02,0.518,0.034,0.74,0.043c0.221,0.01,0.486,0.034,0.797,0.072
		c0.309,0.02,0.58,0.049,0.813,0.087c0.23,0.039,0.453,0.087,0.666,0.145c0.193,0.039,0.381,0.121,0.566,0.247
		c0.184,0.126,0.275,0.324,0.275,0.595c0,0.193-0.049,0.367-0.146,0.522c-0.096,0.155-0.279,0.222-0.551,0.203
		c-0.193-0.019-0.4-0.034-0.623-0.043s-0.439-0.024-0.652-0.044c-0.232-0.019-0.662-0.043-1.291-0.072
		c-0.628-0.029-1.203-0.043-1.725-0.043h-6.641v2.755c0,0.29-0.005,0.604-0.015,0.942c-0.01,0.339-0.034,0.663-0.072,0.972
		c-0.02,0.193-0.058,0.431-0.116,0.71c-0.058,0.28-0.145,0.527-0.261,0.74h5.626l0.58-0.406c0.232,0.02,0.435,0.034,0.609,0.043
		c0.174,0.01,0.328,0.024,0.464,0.043c0.193,0.02,0.362,0.058,0.507,0.116s0.218,0.145,0.218,0.261c0,0.136-0.039,0.305-0.116,0.508
		c-0.078,0.203-0.116,0.44-0.116,0.71v2.639c0,0.252-0.005,0.537-0.015,0.856c-0.01,0.319-0.024,0.614-0.043,0.884
		c-0.02,0.271-0.034,0.532-0.043,0.783c-0.01,0.251-0.034,0.473-0.073,0.667c-0.02,0.135-0.043,0.29-0.072,0.464
		c-0.029,0.174-0.063,0.309-0.102,0.406c-0.039,0.135-0.078,0.247-0.116,0.333c-0.039,0.087-0.087,0.179-0.145,0.276
		c-0.039,0.077-0.092,0.14-0.159,0.188c-0.068,0.048-0.131,0.072-0.188,0.072c-0.078,0-0.145-0.029-0.203-0.087
		s-0.106-0.126-0.145-0.203c-0.039-0.097-0.073-0.203-0.102-0.319c-0.029-0.116-0.054-0.213-0.072-0.29
		c-0.02-0.097-0.034-0.208-0.044-0.333c-0.01-0.126-0.024-0.286-0.043-0.479c-0.02-0.213-0.034-0.542-0.043-0.986
		c-0.01-0.445-0.014-0.822-0.014-1.131v-4.031h-7.337c-0.696,0-1.348,0.02-1.958,0.058c-0.609,0.039-1.02,0.077-1.232,0.116
		c-0.271,0.039-0.518,0.083-0.739,0.131c-0.223,0.048-0.42,0.101-0.595,0.159c-0.155,0.058-0.304,0.116-0.449,0.174
		c-0.145,0.058-0.276,0.125-0.392,0.203c-0.078,0-0.228-0.043-0.45-0.13s-0.44-0.169-0.652-0.247
		c-0.213-0.097-0.469-0.217-0.769-0.362c-0.3-0.145-0.556-0.275-0.769-0.392c-0.135-0.097-0.295-0.203-0.479-0.319
		c-0.184-0.116-0.275-0.242-0.275-0.377c0-0.097,0.043-0.169,0.13-0.218c0.087-0.048,0.188-0.063,0.305-0.043
		c0.116,0.02,0.323,0.043,0.624,0.073c0.299,0.029,0.526,0.053,0.682,0.072c0.328,0.02,0.85,0.043,1.566,0.072
		c0.715,0.029,1.546,0.044,2.494,0.044h3.335c-0.077-0.155-0.135-0.338-0.174-0.551c-0.039-0.212-0.068-0.396-0.087-0.551
		c-0.02-0.271-0.039-0.609-0.058-1.015c-0.02-0.406-0.029-0.725-0.029-0.957v-3.045h-2.61c-1.083,0-2.04,0.039-2.871,0.116
		c-0.832,0.078-1.412,0.165-1.74,0.261c-0.193,0.058-0.382,0.121-0.565,0.188c-0.184,0.068-0.373,0.15-0.565,0.247
		c-0.078,0-0.247-0.053-0.507-0.16c-0.261-0.106-0.498-0.208-0.711-0.304c-0.232-0.097-0.464-0.208-0.696-0.333
		s-0.455-0.247-0.667-0.363c-0.174-0.097-0.343-0.208-0.507-0.333c-0.165-0.125-0.247-0.247-0.247-0.362
		c0-0.097,0.043-0.169,0.13-0.218c0.087-0.048,0.188-0.063,0.305-0.043c0.174,0.02,0.406,0.049,0.696,0.087
		c0.29,0.039,0.541,0.068,0.754,0.087c0.348,0.019,0.918,0.048,1.711,0.087c0.792,0.039,1.595,0.058,2.407,0.058h10.411
		c0.386,0,0.749,0,1.087,0C163.937,107.395,164.231,107.395,164.483,107.395z"/>
	<path d="M191.598,108.555c-0.58,0-1.054,0.034-1.421,0.102c-0.367,0.068-0.629,0.13-0.783,0.188
		c-0.136,0.058-0.271,0.121-0.406,0.188c-0.135,0.068-0.271,0.15-0.405,0.247c-0.078,0-0.257-0.067-0.537-0.203
		c-0.28-0.135-0.526-0.261-0.739-0.377c-0.077-0.039-0.169-0.091-0.275-0.159s-0.208-0.131-0.305-0.189
		c0,0.6-0.049,1.252-0.145,1.958c-0.098,0.706-0.242,1.301-0.436,1.784c-0.174,0.445-0.367,0.855-0.58,1.232
		s-0.483,0.75-0.812,1.117c-0.271,0.31-0.585,0.585-0.942,0.826c-0.358,0.242-0.701,0.44-1.03,0.595
		c-0.289,0.135-0.677,0.256-1.159,0.362c-0.483,0.106-1.035,0.16-1.653,0.16c-0.6,0-1.146-0.053-1.639-0.16
		c-0.493-0.106-0.885-0.227-1.175-0.362c-0.328-0.154-0.672-0.353-1.029-0.595c-0.357-0.241-0.672-0.517-0.942-0.826
		c-0.31-0.367-0.575-0.74-0.798-1.117c-0.222-0.377-0.42-0.788-0.594-1.232c-0.193-0.502-0.339-1.106-0.436-1.813
		c-0.097-0.706-0.145-1.329-0.145-1.871c0-0.541,0.048-1.169,0.145-1.885s0.242-1.314,0.436-1.798
		c0.174-0.444,0.367-0.855,0.58-1.232c0.212-0.377,0.474-0.749,0.782-1.116c0.271-0.329,0.59-0.614,0.957-0.855
		s0.716-0.43,1.044-0.566c0.213-0.096,0.474-0.188,0.783-0.275s0.647-0.14,1.016-0.159c0.154-0.097,0.271-0.184,0.348-0.261
		c0.077-0.077,0.125-0.154,0.145-0.232c0-0.116-0.028-0.217-0.087-0.305c-0.058-0.087-0.135-0.169-0.231-0.246
		c-0.078-0.097-0.174-0.179-0.29-0.247s-0.165-0.131-0.146-0.188c0.039-0.097,0.106-0.16,0.203-0.188
		c0.097-0.029,0.193-0.034,0.29-0.015c0.174,0.02,0.357,0.063,0.551,0.13c0.193,0.068,0.367,0.13,0.522,0.188
		c0.154,0.058,0.313,0.136,0.479,0.232c0.164,0.097,0.246,0.213,0.246,0.348c-0.039,0.136-0.092,0.261-0.159,0.377
		c-0.068,0.116-0.131,0.232-0.188,0.348c0.464,0.02,0.88,0.083,1.247,0.188c0.367,0.106,0.667,0.208,0.898,0.304
		c0.329,0.136,0.672,0.329,1.03,0.58c0.357,0.251,0.671,0.532,0.942,0.841c0.328,0.367,0.599,0.739,0.812,1.116
		s0.406,0.788,0.58,1.232c0.154,0.368,0.275,0.803,0.362,1.305c0.088,0.503,0.141,0.986,0.16,1.45
		c0.192,0.02,0.381,0.034,0.565,0.043c0.184,0.01,0.362,0.024,0.536,0.043c0.174,0.02,0.459,0.034,0.855,0.043
		s0.836,0.015,1.319,0.015h2.61v-8.468c0-0.193-0.02-0.367-0.058-0.522c-0.039-0.154-0.098-0.29-0.175-0.406
		c-0.077-0.097-0.164-0.198-0.261-0.305c-0.097-0.106-0.213-0.198-0.348-0.275c-0.136-0.097-0.275-0.184-0.421-0.261
		c-0.145-0.077-0.295-0.154-0.449-0.232c-0.136-0.058-0.285-0.121-0.449-0.188c-0.165-0.067-0.305-0.121-0.421-0.16
		c-0.116-0.038-0.237-0.087-0.362-0.145c-0.126-0.058-0.188-0.135-0.188-0.232c0-0.116,0.077-0.203,0.231-0.261
		c0.155-0.058,0.329-0.087,0.522-0.087c0.116,0,0.353,0.024,0.711,0.072c0.357,0.048,0.7,0.121,1.029,0.218
		c0.231,0.058,0.502,0.13,0.812,0.217s0.6,0.179,0.87,0.275c0.193,0.078,0.372,0.165,0.536,0.261s0.247,0.222,0.247,0.377
		c0,0.078-0.02,0.169-0.059,0.275c-0.038,0.106-0.077,0.228-0.115,0.362c-0.02,0.116-0.039,0.271-0.059,0.464
		s-0.028,0.338-0.028,0.435v17.748c0,0.387-0.011,0.865-0.029,1.435c-0.02,0.571-0.039,1.02-0.058,1.349
		c-0.02,0.58-0.049,1.068-0.088,1.464c-0.038,0.396-0.077,0.682-0.115,0.856c-0.039,0.251-0.083,0.464-0.131,0.638
		c-0.049,0.174-0.092,0.309-0.131,0.406c-0.039,0.096-0.092,0.188-0.159,0.275c-0.068,0.087-0.15,0.13-0.246,0.13
		c-0.078,0-0.146-0.043-0.203-0.13c-0.059-0.087-0.106-0.169-0.146-0.247c-0.02-0.097-0.043-0.208-0.072-0.333
		c-0.029-0.126-0.054-0.256-0.072-0.392c-0.02-0.271-0.034-0.503-0.044-0.696c-0.01-0.193-0.024-0.464-0.043-0.812
		c-0.02-0.426-0.029-0.986-0.029-1.682c0-0.696,0-1.16,0-1.392v-9.106H191.598z M179.969,115.341c0.444,0,0.87-0.053,1.276-0.16
		c0.405-0.106,0.754-0.236,1.044-0.392c0.386-0.212,0.705-0.454,0.957-0.725c0.251-0.271,0.454-0.532,0.608-0.783
		c0.213-0.329,0.392-0.686,0.537-1.073c0.145-0.387,0.256-0.735,0.333-1.044c0.097-0.328,0.174-0.768,0.232-1.319
		c0.058-0.551,0.087-1.039,0.087-1.464c0-0.445-0.029-0.938-0.087-1.479c-0.059-0.541-0.136-0.976-0.232-1.305
		c-0.077-0.329-0.188-0.681-0.333-1.059c-0.146-0.377-0.324-0.729-0.537-1.058c-0.154-0.251-0.357-0.517-0.608-0.798
		c-0.252-0.28-0.571-0.517-0.957-0.71c-0.29-0.154-0.639-0.285-1.044-0.392c-0.406-0.106-0.832-0.159-1.276-0.159
		c-0.426,0-0.846,0.053-1.262,0.159c-0.416,0.107-0.769,0.237-1.059,0.392c-0.387,0.193-0.706,0.431-0.957,0.71
		c-0.251,0.281-0.454,0.546-0.608,0.798c-0.213,0.329-0.388,0.681-0.522,1.058c-0.136,0.377-0.251,0.73-0.348,1.059
		c-0.078,0.329-0.15,0.764-0.218,1.305c-0.067,0.542-0.102,1.034-0.102,1.479c0,0.425,0.034,0.914,0.102,1.464
		c0.067,0.551,0.14,0.991,0.218,1.319c0.097,0.31,0.212,0.658,0.348,1.044c0.135,0.387,0.31,0.744,0.522,1.073
		c0.154,0.251,0.357,0.513,0.608,0.783c0.251,0.271,0.57,0.512,0.957,0.725c0.29,0.155,0.639,0.286,1.044,0.392
		C179.099,115.288,179.524,115.341,179.969,115.341z"/>
</g>
<g>
	<path d="M112.242,158.486l2.361,0.292c-0.373,1.379-1.062,2.45-2.069,3.212s-2.293,1.143-3.859,1.143
		c-1.972,0-3.536-0.607-4.691-1.822c-1.155-1.214-1.733-2.918-1.733-5.109c0-2.269,0.584-4.029,1.752-5.281
		c1.168-1.253,2.683-1.879,4.545-1.879c1.803,0,3.275,0.613,4.418,1.841c1.143,1.227,1.714,2.953,1.714,5.18
		c0,0.135-0.004,0.338-0.013,0.609h-10.055c0.084,1.48,0.503,2.615,1.257,3.402s1.693,1.181,2.818,1.181
		c0.838,0,1.553-0.221,2.146-0.66C111.425,160.153,111.895,159.451,112.242,158.486z M104.739,154.792h7.528
		c-0.102-1.135-0.389-1.985-0.863-2.552c-0.728-0.881-1.671-1.32-2.831-1.32c-1.049,0-1.932,0.351-2.647,1.054
		C105.211,152.676,104.815,153.615,104.739,154.792z"/>
	<path d="M117.473,162.828v-13.482h2.057v1.917c0.99-1.481,2.42-2.222,4.291-2.222c0.813,0,1.56,0.146,2.241,0.438
		s1.191,0.675,1.53,1.149c0.338,0.474,0.576,1.036,0.711,1.688c0.084,0.423,0.127,1.163,0.127,2.222v8.29h-2.285v-8.201
		c0-0.932-0.089-1.627-0.267-2.089c-0.178-0.461-0.493-0.829-0.946-1.104c-0.453-0.274-0.984-0.412-1.593-0.412
		c-0.973,0-1.813,0.309-2.52,0.927c-0.707,0.617-1.06,1.79-1.06,3.517v7.363H117.473z"/>
	<path d="M131.514,163.945l2.222,0.33c0.093,0.686,0.351,1.185,0.774,1.498c0.567,0.423,1.341,0.635,2.323,0.635
		c1.058,0,1.875-0.212,2.45-0.635c0.576-0.424,0.965-1.016,1.168-1.777c0.119-0.466,0.173-1.443,0.165-2.933
		c-0.999,1.176-2.243,1.765-3.732,1.765c-1.854,0-3.288-0.669-4.304-2.006c-1.016-1.338-1.523-2.941-1.523-4.812
		c0-1.287,0.233-2.474,0.698-3.562c0.465-1.087,1.141-1.928,2.025-2.52c0.884-0.593,1.923-0.889,3.117-0.889
		c1.591,0,2.903,0.643,3.936,1.93v-1.625h2.107V161c0,2.099-0.214,3.586-0.641,4.462s-1.104,1.568-2.031,2.076
		s-2.067,0.762-3.421,0.762c-1.608,0-2.907-0.362-3.897-1.086S131.48,165.4,131.514,163.945z M133.405,155.846
		c0,1.769,0.351,3.06,1.054,3.872s1.583,1.219,2.641,1.219c1.049,0,1.93-0.404,2.641-1.213c0.711-0.808,1.066-2.075,1.066-3.802
		c0-1.65-0.366-2.895-1.098-3.732s-1.614-1.257-2.647-1.257c-1.016,0-1.879,0.412-2.59,1.237S133.405,154.221,133.405,155.846z"/>
	<path d="M146.342,162.828v-18.611h2.285v18.611H146.342z"/>
	<path d="M152.182,146.845v-2.628h2.285v2.628H152.182z M152.182,162.828v-13.482h2.285v13.482H152.182z"/>
	<path d="M157.031,158.804l2.26-0.355c0.127,0.905,0.48,1.6,1.06,2.082c0.58,0.482,1.391,0.724,2.432,0.724
		c1.05,0,1.828-0.214,2.336-0.642c0.508-0.427,0.762-0.929,0.762-1.504c0-0.517-0.225-0.923-0.673-1.219
		c-0.313-0.203-1.092-0.462-2.336-0.774c-1.676-0.424-2.837-0.789-3.485-1.099c-0.646-0.309-1.138-0.736-1.473-1.282
		c-0.334-0.546-0.501-1.148-0.501-1.809c0-0.602,0.138-1.157,0.413-1.67c0.274-0.512,0.649-0.938,1.123-1.275
		c0.355-0.263,0.84-0.484,1.453-0.667c0.614-0.182,1.272-0.272,1.975-0.272c1.058,0,1.986,0.152,2.787,0.457
		c0.799,0.305,1.39,0.717,1.771,1.237s0.644,1.217,0.787,2.089l-2.234,0.305c-0.102-0.694-0.396-1.236-0.882-1.625
		c-0.487-0.39-1.175-0.584-2.063-0.584c-1.05,0-1.799,0.173-2.247,0.521c-0.448,0.347-0.673,0.753-0.673,1.219
		c0,0.296,0.093,0.563,0.279,0.8c0.187,0.245,0.479,0.448,0.876,0.609c0.229,0.084,0.901,0.279,2.019,0.584
		c1.616,0.432,2.744,0.785,3.384,1.06c0.639,0.275,1.14,0.675,1.504,1.2c0.364,0.524,0.546,1.176,0.546,1.955
		c0,0.762-0.222,1.479-0.667,2.151c-0.443,0.673-1.085,1.193-1.923,1.562s-1.786,0.553-2.844,0.553
		c-1.752,0-3.087-0.364-4.005-1.092C157.871,161.313,157.285,160.233,157.031,158.804z"/>
	<path d="M170.945,162.828v-18.611h2.285v6.678c1.066-1.236,2.412-1.854,4.037-1.854c0.999,0,1.866,0.196,2.603,0.59
		s1.264,0.938,1.58,1.632c0.318,0.693,0.477,1.701,0.477,3.021v8.544h-2.285v-8.544c0-1.143-0.248-1.975-0.742-2.495
		c-0.496-0.521-1.196-0.78-2.102-0.78c-0.677,0-1.314,0.176-1.91,0.526c-0.598,0.352-1.022,0.827-1.276,1.429
		c-0.254,0.601-0.381,1.43-0.381,2.488v7.376H170.945z"/>
</g>
<g>
	<path d="M228.238,83.443h-7.643v7.795h-1.904v-7.795h-7.617v-8.988h7.592v-3.148l-0.127-2.615l2.234,0.229l-0.178,3.656v1.879
		h7.643V83.443z M218.691,81.716v-5.561h-5.688v5.561H218.691z M226.334,81.742v-5.586h-5.738v5.586H226.334z"/>
	<path d="M252.41,89.308l-1.371,1.879c-0.187-0.068-0.559-0.208-1.117-0.419c-0.559-0.212-1.235-0.529-2.031-0.952
		c-0.796-0.44-1.688-1.007-2.679-1.701c-0.99-0.694-2.002-1.557-3.034-2.59c-0.829,0.863-1.688,1.625-2.577,2.285
		s-1.739,1.219-2.552,1.676s-1.57,0.825-2.272,1.104s-1.257,0.47-1.663,0.571l-1.346-1.854c0.542-0.051,1.189-0.203,1.942-0.457
		s1.553-0.584,2.399-0.99c0.847-0.44,1.676-0.956,2.488-1.549c0.813-0.592,1.558-1.286,2.234-2.082
		c-0.457-0.542-0.931-1.176-1.422-1.904c-0.491-0.728-0.939-1.498-1.346-2.311c-0.423-0.897-0.766-1.819-1.028-2.768
		c-0.263-0.948-0.461-1.862-0.597-2.742h-3.504V72.83h8.125c0-0.017-0.004-0.165-0.013-0.444s-0.021-0.613-0.038-1.003
		c-0.017-0.406-0.042-0.833-0.076-1.282c-0.034-0.448-0.085-0.851-0.152-1.206l2.311,0.355l-0.254,3.58h8.328v1.676h-3.809
		c-0.017,0.068-0.051,0.263-0.102,0.584c-0.051,0.322-0.144,0.736-0.279,1.244c-0.102,0.491-0.241,1.033-0.419,1.625
		c-0.178,0.593-0.385,1.177-0.622,1.752c-0.372,0.863-0.774,1.676-1.206,2.438s-0.867,1.405-1.308,1.93
		c0.931,1.066,1.917,1.934,2.958,2.603c1.041,0.669,1.984,1.198,2.831,1.587c0.863,0.39,1.583,0.66,2.158,0.813
		S252.292,89.308,252.41,89.308z M245.402,74.505h-7.084c0.051,0.474,0.174,1.075,0.368,1.803c0.194,0.728,0.461,1.481,0.8,2.26
		c0.339,0.796,0.732,1.57,1.181,2.323c0.448,0.753,0.91,1.375,1.384,1.866c0.457-0.508,0.88-1.096,1.27-1.765
		c0.39-0.668,0.72-1.367,0.99-2.095c0.305-0.728,0.542-1.473,0.711-2.234S245.317,75.183,245.402,74.505z"/>
</g>
<g>
	<path d="M211.959,158.379c-0.063,0.23-0.272,0.356-0.692,0.336c-0.735,3.422-1.113,7.181-1.113,9.448
		c0,1.574,0.063,3.17,0.273,4.157c0.398-1.029,1.302-3.233,1.596-3.969l0.882,0.924c-0.861,2.121-1.491,3.317-1.785,4.263
		c-0.104,0.356-0.168,0.692-0.168,0.986c0,0.231,0.042,0.441,0.105,0.651l-1.491,0.272c-0.672-1.994-0.924-4.43-0.924-7.223
		c0-2.75,0.441-6.593,1.113-10.225L211.959,158.379z M225.334,173.727c-0.756,0.042-1.533,0.063-2.31,0.063
		c-1.491,0-2.897-0.084-3.905-0.231c-2.583-0.378-3.779-1.806-3.779-3.485c0-1.448,0.798-2.666,1.974-4.052l1.364,0.588
		c-1.05,1.092-1.784,2.1-1.784,3.296c0,2.436,3.569,2.436,5.753,2.436c0.882,0,1.826-0.042,2.708-0.104L225.334,173.727z
		 M215.612,160.898c2.709-0.063,6.362-0.315,9.154-0.798l0.126,1.47c-2.604,0.44-6.823,0.714-9.238,0.776L215.612,160.898z"/>
	<path d="M228.088,165.118c0.378-0.084,1.155-0.294,1.869-0.504c2.604-0.776,5.647-1.49,7.601-1.49c2.834,0,5.375,1.512,5.375,4.934
		c0,4.619-4.577,6.32-10.184,6.761c-0.084-0.314-0.294-1.028-0.42-1.28c4.935-0.357,9.112-1.785,9.112-5.396
		c0-2.624-1.868-3.758-4.094-3.737c-1.68,0.021-4.389,0.63-7.034,1.533c-0.482,0.168-1.008,0.356-1.344,0.462
		c-0.042,0.168-0.188,0.314-0.336,0.356L228.088,165.118z"/>
	<path d="M250.284,158.463c-0.042,0.21-0.252,0.356-0.566,0.356c-0.798,3.003-1.26,6.866-1.26,9.092
		c0,1.554,0.084,3.023,0.272,3.779c0.252-0.882,0.966-2.855,1.575-4.263l0.944,0.861c-0.65,1.406-1.512,3.569-1.806,4.598
		c-0.084,0.315-0.126,0.567-0.126,0.819c0,0.314,0.063,0.608,0.189,0.986l-1.428,0.273c-0.672-1.722-1.05-4.347-1.05-7.034
		c0-2.729,0.524-6.361,1.238-9.805L250.284,158.463z M256.311,159.239c1.994,0,3.695-0.063,4.996-0.252
		c-0.021-0.146-0.041-0.294-0.041-0.44c0-1.344,1.112-2.352,2.372-2.352c1.302,0,2.352,1.05,2.352,2.352s-1.05,2.352-2.352,2.352
		c-0.63,0-1.218-0.252-1.659-0.672c-0.86,0.168-1.364,0.146-2.309,0.21l0.293,0.063c-0.041,0.168-0.168,0.231-0.398,0.273
		c-0.021,0.882,0.042,2.414,0.126,3.863c1.554-0.126,2.981-0.357,4.073-0.693l0.189,1.386c-1.113,0.294-2.583,0.504-4.179,0.609
		c0.084,1.658,0.21,3.254,0.272,4.199c1.449,0.65,2.939,1.574,4.283,2.666l-0.776,1.323c-1.155-0.987-2.436-1.89-3.507-2.436
		c0.168,2.624-0.965,3.632-3.316,3.632c-2.331,0-4.095-1.008-4.095-2.897s1.868-2.939,4.095-2.939c0.629,0,1.26,0.105,1.889,0.294
		c-0.041-1.028-0.146-2.372-0.252-3.758c-1.301,0.084-4.01,0.084-5.354,0.084v-1.323h3.338c0.651,0,1.323-0.021,1.953-0.042
		c-0.084-1.554-0.168-3.107-0.21-4.22c-0.608,0.021-1.218,0.042-1.827,0.042h-2.854v-1.323H256.311z M258.683,171.103
		c-0.692-0.252-1.344-0.399-1.974-0.399c-1.533,0-2.771,0.567-2.771,1.722c0,1.176,1.218,1.701,2.729,1.701
		c1.554,0,2.036-0.714,2.036-2.163L258.683,171.103z M265.275,158.547c0-0.924-0.734-1.68-1.638-1.68
		c-0.924,0-1.659,0.756-1.659,1.68c0,0.902,0.735,1.658,1.659,1.658C264.582,160.205,265.275,159.407,265.275,158.547z"/>
	<path d="M266.686,174.86c1.555-4.451,4.137-11.884,4.955-14.109c0.399-1.134,0.945-2.729,1.092-3.254l2.268,0.588
		c-0.104,0.294-0.398,0.398-0.818,0.398c-1.154,2.877-2.939,7.79-3.717,9.89h0.021c1.238-1.512,3.129-2.583,4.598-2.583
		c1.827,0,2.709,1.239,2.646,3.191l-0.063,2.499c-0.021,1.574,0.819,2.436,2.184,2.436c1.89,0,3.632-2.163,4.599-5.774
		c0.42,0.294,0.924,0.567,1.364,0.777c-1.155,4.01-3.233,6.529-6.026,6.529c-2.225,0-3.674-1.344-3.674-3.485
		c0-0.398,0.063-2.33,0.063-2.771c0-1.322-0.545-2.016-1.469-2.016c-2.415,0-4.851,3.507-5.375,4.871
		c-0.295,0.735-0.756,2.079-1.155,3.297L266.686,174.86z"/>
	<path d="M302.594,174.21c-1.848,0.336-4.305,0.482-6.446,0.482c-1.722,0-3.233-0.104-4.052-0.272
		c-2.541-0.567-3.633-2.163-3.633-4.011c0-1.574,0.882-3.212,2.142-4.472l1.218,0.63c-1.176,1.196-1.848,2.562-1.848,3.716
		c0,1.239,0.818,2.331,2.625,2.751c0.713,0.146,1.932,0.23,3.359,0.23c2.036,0,4.514-0.168,6.529-0.566L302.594,174.21z
		 M293.166,163.628c1.092-0.861,2.582-1.869,3.717-2.436v-0.021c-1.596,0.189-5.25,0.252-7.58,0.252c0-0.398,0-1.092-0.021-1.47
		h1.135c2.688,0,8.188-0.042,10.834-0.672l0.168,1.533c-0.693,0.104-1.197,0.21-2.205,0.63c-1.176,0.482-3.213,1.616-4.85,2.939
		L293.166,163.628z M302.572,166.609c-0.609-0.924-1.91-2.184-2.813-2.855l0.692-0.651c1.008,0.735,2.227,1.953,2.877,2.835
		L302.572,166.609z M304.777,164.614c-0.588-0.84-1.827-2.1-2.814-2.834l0.693-0.672c1.029,0.776,2.246,1.974,2.877,2.855
		L304.777,164.614z"/>
</g>
<g>
	<path d="M219.529,123.175l2.361,0.292c-0.372,1.379-1.062,2.45-2.069,3.211c-1.007,0.762-2.293,1.143-3.859,1.143
		c-1.972,0-3.535-0.607-4.69-1.821c-1.155-1.214-1.733-2.918-1.733-5.11c0-2.268,0.584-4.029,1.752-5.281s2.684-1.879,4.545-1.879
		c1.803,0,3.275,0.614,4.418,1.841s1.714,2.954,1.714,5.18c0,0.135-0.004,0.338-0.013,0.609h-10.055
		c0.085,1.481,0.504,2.615,1.257,3.402c0.754,0.787,1.693,1.181,2.818,1.181c0.838,0,1.554-0.22,2.146-0.66
		C218.713,124.843,219.183,124.14,219.529,123.175z M212.026,119.481h7.528c-0.102-1.134-0.389-1.985-0.863-2.552
		c-0.728-0.88-1.671-1.32-2.831-1.32c-1.049,0-1.932,0.351-2.646,1.054C212.498,117.365,212.103,118.305,212.026,119.481z"/>
	<path d="M223.846,123.493l2.26-0.355c0.127,0.906,0.48,1.6,1.061,2.082c0.579,0.482,1.39,0.724,2.431,0.724
		c1.05,0,1.828-0.214,2.336-0.641s0.762-0.929,0.762-1.504c0-0.516-0.224-0.922-0.673-1.219c-0.313-0.203-1.092-0.461-2.336-0.774
		c-1.676-0.423-2.837-0.789-3.484-1.098s-1.139-0.736-1.473-1.282c-0.335-0.546-0.502-1.149-0.502-1.809
		c0-0.601,0.138-1.157,0.413-1.669c0.274-0.512,0.649-0.938,1.123-1.276c0.355-0.262,0.84-0.484,1.454-0.667
		c0.613-0.182,1.271-0.273,1.974-0.273c1.059,0,1.987,0.152,2.787,0.457s1.39,0.717,1.771,1.238s0.644,1.217,0.787,2.088
		l-2.234,0.305c-0.102-0.694-0.396-1.236-0.882-1.625c-0.487-0.389-1.175-0.584-2.063-0.584c-1.049,0-1.798,0.173-2.247,0.521
		c-0.448,0.347-0.673,0.753-0.673,1.219c0,0.296,0.094,0.563,0.279,0.8c0.187,0.246,0.479,0.449,0.876,0.609
		c0.229,0.084,0.901,0.279,2.019,0.584c1.617,0.432,2.744,0.785,3.384,1.06c0.639,0.275,1.141,0.675,1.504,1.2
		c0.364,0.525,0.546,1.176,0.546,1.955c0,0.762-0.222,1.479-0.666,2.152s-1.086,1.193-1.924,1.562s-1.785,0.552-2.844,0.552
		c-1.752,0-3.087-0.363-4.005-1.092C224.686,126.002,224.1,124.923,223.846,123.493z"/>
	<path d="M237.76,132.684v-18.649h2.082v1.752c0.491-0.686,1.046-1.2,1.663-1.542c0.618-0.343,1.367-0.514,2.247-0.514
		c1.151,0,2.167,0.296,3.047,0.889c0.881,0.592,1.545,1.428,1.993,2.507c0.449,1.079,0.673,2.262,0.673,3.548
		c0,1.379-0.247,2.622-0.742,3.726s-1.215,1.95-2.158,2.539c-0.944,0.588-1.937,0.882-2.978,0.882c-0.762,0-1.445-0.16-2.05-0.482
		c-0.605-0.321-1.103-0.728-1.492-1.219v6.563H237.76z M239.829,120.852c0,1.735,0.352,3.017,1.054,3.847
		c0.703,0.83,1.554,1.244,2.552,1.244c1.016,0,1.886-0.43,2.609-1.289s1.085-2.19,1.085-3.993c0-1.718-0.354-3.004-1.06-3.859
		c-0.707-0.855-1.551-1.282-2.533-1.282c-0.973,0-1.834,0.455-2.583,1.365S239.829,119.117,239.829,120.852z"/>
	<path d="M261.019,125.854c-0.848,0.719-1.662,1.227-2.443,1.523c-0.783,0.297-1.624,0.444-2.521,0.444
		c-1.48,0-2.619-0.361-3.415-1.085c-0.795-0.724-1.193-1.648-1.193-2.774c0-0.66,0.15-1.263,0.451-1.809
		c0.3-0.546,0.693-0.984,1.181-1.314c0.486-0.33,1.034-0.58,1.644-0.749c0.449-0.119,1.126-0.233,2.032-0.343
		c1.844-0.22,3.203-0.482,4.074-0.787c0.01-0.313,0.014-0.512,0.014-0.597c0-0.931-0.217-1.587-0.648-1.968
		c-0.584-0.516-1.451-0.774-2.602-0.774c-1.075,0-1.869,0.188-2.381,0.565c-0.513,0.376-0.891,1.043-1.137,2l-2.234-0.305
		c0.203-0.957,0.538-1.729,1.003-2.317c0.466-0.588,1.139-1.041,2.019-1.358c0.881-0.317,1.9-0.476,3.061-0.476
		c1.15,0,2.086,0.135,2.805,0.406c0.721,0.271,1.248,0.611,1.588,1.022c0.338,0.411,0.574,0.929,0.711,1.555
		c0.076,0.389,0.113,1.092,0.113,2.107v3.047c0,2.125,0.049,3.468,0.146,4.031c0.098,0.563,0.289,1.103,0.578,1.618h-2.387
		C261.237,127.043,261.085,126.488,261.019,125.854z M260.827,120.75c-0.828,0.338-2.072,0.626-3.732,0.863
		c-0.939,0.135-1.604,0.288-1.993,0.457c-0.389,0.169-0.689,0.417-0.901,0.743c-0.211,0.326-0.317,0.688-0.317,1.085
		c0,0.609,0.23,1.117,0.692,1.523c0.461,0.406,1.136,0.609,2.025,0.609c0.88,0,1.662-0.192,2.348-0.577s1.189-0.912,1.512-1.581
		c0.244-0.516,0.367-1.278,0.367-2.285V120.75z"/>
	<path d="M266.68,127.517v-13.482h2.057v1.917c0.99-1.481,2.421-2.222,4.291-2.222c0.813,0,1.56,0.146,2.241,0.438
		c0.681,0.292,1.19,0.675,1.529,1.149s0.575,1.037,0.711,1.688c0.085,0.423,0.127,1.164,0.127,2.222v8.29h-2.285v-8.201
		c0-0.931-0.089-1.627-0.267-2.088s-0.493-0.83-0.946-1.104c-0.452-0.275-0.983-0.413-1.593-0.413c-0.974,0-1.813,0.309-2.521,0.927
		c-0.706,0.618-1.06,1.79-1.06,3.517v7.363H266.68z M268.292,112.042c-0.009-0.88,0.232-1.583,0.724-2.107
		c0.482-0.525,1.101-0.787,1.854-0.787c0.524,0,1.24,0.229,2.146,0.686c0.499,0.254,0.897,0.381,1.193,0.381
		c0.271,0,0.479-0.074,0.622-0.222s0.245-0.442,0.305-0.882h1.65c-0.025,0.965-0.269,1.688-0.729,2.171
		c-0.462,0.482-1.048,0.724-1.759,0.724c-0.533,0-1.235-0.237-2.107-0.711c-0.567-0.305-0.981-0.457-1.244-0.457
		c-0.288,0-0.521,0.102-0.698,0.305c-0.187,0.203-0.275,0.503-0.267,0.901H268.292z"/>
	<path d="M280.29,120.776c0-2.497,0.694-4.346,2.082-5.548c1.159-0.999,2.573-1.498,4.24-1.498c1.854,0,3.368,0.607,4.545,1.822
		s1.765,2.893,1.765,5.034c0,1.735-0.261,3.1-0.78,4.094c-0.521,0.995-1.278,1.767-2.273,2.316
		c-0.994,0.551-2.079,0.825-3.256,0.825c-1.888,0-3.413-0.604-4.576-1.815C280.872,124.796,280.29,123.053,280.29,120.776z
		 M282.639,120.776c0,1.727,0.377,3.02,1.13,3.878s1.701,1.289,2.844,1.289c1.134,0,2.078-0.432,2.831-1.295s1.13-2.179,1.13-3.948
		c0-1.667-0.379-2.931-1.137-3.79c-0.757-0.859-1.698-1.289-2.824-1.289c-1.143,0-2.091,0.427-2.844,1.282
		S282.639,119.049,282.639,120.776z"/>
	<path d="M295.549,127.517v-18.611h2.285v18.611H295.549z"/>
</g>
</svg>
