<?xml version="1.0" encoding="utf-8"?>
<!-- Generator: Adobe Illustrator 17.0.0, SVG Export Plug-In . SVG Version: 6.00 Build 0)  -->
<!DOCTYPE svg PUBLIC "-//W3C//DTD SVG 1.1//EN" "http://www.w3.org/Graphics/SVG/1.1/DTD/svg11.dtd">
<svg version="1.1" id="레이어_1" xmlns="http://www.w3.org/2000/svg" xmlns:xlink="http://www.w3.org/1999/xlink" x="0px"
	 y="0px" width="200px" height="50px" viewBox="0 0 200 50" enable-background="new 0 0 200 50" xml:space="preserve">
<g>
	<path fill="#0B497C" d="M7.473,30.771V16.131c0-1.893-0.124-3.094-0.37-3.604c-0.247-0.51-0.917-0.923-2.009-1.239
		c-1.586-0.482-2.38-1.317-2.38-2.505c0-0.835,0.334-1.475,1.005-1.92c0.669-0.445,1.639-0.668,2.908-0.668
		c0.423,0,1.472,0.028,3.146,0.083h1.586c2.926-0.018,4.64-0.042,5.143-0.07c0.502-0.027,2.296-0.19,5.381-0.487
		c1.022-0.111,1.957-0.167,2.803-0.167c2.891,0,5.464,0.622,7.72,1.865c3.931,2.153,5.896,5.566,5.896,10.242
		c0,3.785-1.375,6.819-4.125,9.101c-2.591,2.134-5.729,3.201-9.413,3.201c-0.935,0-2.08-0.065-3.437-0.195
		c-0.723-0.056-1.173-0.083-1.349-0.083c-0.511,0-0.767,0.306-0.767,0.918v0.167l0.185,4.564c0.035,0.891,0.189,1.555,0.462,1.99
		c0.273,0.437,0.833,0.887,1.679,1.35c1.146,0.65,1.719,1.354,1.719,2.115c0,1.169-0.846,2.069-2.539,2.7
		c-1.692,0.63-4.089,0.946-7.192,0.946c-6.522,0-9.783-1.179-9.783-3.535c0-0.557,0.141-0.983,0.423-1.28
		c0.282-0.296,0.943-0.724,1.983-1.28c0.634-0.352,1.004-0.844,1.11-1.475C7.367,36.235,7.437,34.204,7.473,30.771z M19.397,12.597
		v9.463c0,0.724,0.149,1.16,0.449,1.308c0.511,0.26,1.154,0.39,1.93,0.39c1.164,0,2.142-0.343,2.935-1.03
		c1.146-0.983,1.719-2.634,1.719-4.954c0-2.412-0.67-4.156-2.01-5.232c-0.846-0.686-1.869-1.03-3.067-1.03
		C20.049,11.511,19.397,11.873,19.397,12.597z"/>
	<path fill="#21A564" d="M55.145,21.809v8.934c0,3.952,0.057,6.253,0.172,6.902s0.551,1.15,1.309,1.503
		c0.652,0.297,1.088,0.575,1.309,0.835c0.22,0.26,0.331,0.631,0.331,1.113c0,0.612-0.208,1.169-0.621,1.67
		c-0.415,0.501-0.965,0.854-1.653,1.058c-1.269,0.407-3.411,0.612-6.425,0.612c-3.402,0-5.791-0.27-7.166-0.808
		c-0.635-0.24-1.155-0.616-1.56-1.127c-0.406-0.51-0.608-1.044-0.608-1.601c0-0.445,0.11-0.788,0.331-1.029
		c0.22-0.241,0.701-0.529,1.441-0.863c0.688-0.315,1.11-1.178,1.269-2.588c0.282-2.412,0.423-5.845,0.423-10.298
		c0-4.527-0.124-7.44-0.37-8.739c-0.247-1.298-0.864-2.264-1.851-2.895c-0.74-0.445-1.248-0.867-1.521-1.267
		c-0.273-0.398-0.41-0.886-0.41-1.461c0-0.909,0.414-1.702,1.243-2.38c0.828-0.677,2.15-1.303,3.966-1.878
		c1.216-0.39,2.794-0.761,4.733-1.113c1.939-0.352,3.349-0.529,4.23-0.529c1.393,0,2.089,0.909,2.089,2.728
		c0,0.594-0.088,1.958-0.264,4.091C55.312,16.002,55.18,19.044,55.145,21.809z"/>
	<path fill="#21A564" d="M74.314,17.746V32.83c0,3.229,1.013,4.843,3.041,4.843c0.511,0,1.014-0.152,1.507-0.459
		c0.493-0.306,0.837-0.682,1.031-1.127c0.387-0.891,0.582-2.876,0.582-5.956c0-3.043-0.097-5.121-0.291-6.234
		c-0.07-0.463-0.194-0.802-0.37-1.016s-0.511-0.459-1.005-0.738c-1.004-0.557-1.507-1.262-1.507-2.115
		c0-1.15,0.863-1.948,2.591-2.394c3.278-0.853,6.513-1.28,9.703-1.28c1.78,0,2.671,0.993,2.671,2.978
		c0,0.205-0.009,0.622-0.026,1.252c-0.036,0.891-0.063,1.976-0.079,3.256v12.273c0,0.631,0.511,1.207,1.533,1.726
		c0.863,0.445,1.296,1.096,1.296,1.948c0,1.67-1.878,2.96-5.632,3.869c-2.204,0.538-4.337,0.807-6.399,0.807
		c-0.846,0-1.424-0.102-1.731-0.306c-0.309-0.205-0.489-0.603-0.542-1.197c-0.088-1.15-0.423-1.726-1.005-1.726
		c-0.211,0-0.406,0.052-0.582,0.153c-0.176,0.103-0.714,0.478-1.613,1.127c-1.781,1.28-3.693,1.921-5.738,1.921
		c-3.384,0-5.773-1.03-7.165-3.09c-1.181-1.726-1.771-4.629-1.771-8.711c0-1.521,0.008-2.82,0.026-3.896c0-0.631,0-1.058,0-1.28
		c0-1.596-0.137-2.77-0.41-3.521c-0.273-0.752-0.771-1.34-1.494-1.768c-0.688-0.371-1.124-0.668-1.309-0.891
		s-0.278-0.529-0.278-0.918c0-1.41,1.013-2.347,3.041-2.811c3.455-0.797,6.91-1.197,10.365-1.197
		C73.794,16.354,74.314,16.818,74.314,17.746z"/>
	<path fill="#21A564" d="M120.955,31.411h-12.427c-0.547,0-0.819,0.25-0.819,0.751c0,1.207,0.621,2.343,1.863,3.41
		c1.243,1.066,2.578,1.6,4.006,1.6c0.847,0,1.785-0.171,2.816-0.515c1.031-0.343,1.881-0.766,2.551-1.267
		c0.6-0.445,1.075-0.668,1.428-0.668c0.459,0,0.908,0.297,1.349,0.891c0.44,0.595,0.661,1.207,0.661,1.837
		c0,1.336-0.793,2.626-2.38,3.869c-2.802,2.208-6.037,3.312-9.703,3.312c-3.702,0-6.805-1.131-9.307-3.396
		c-1.217-1.113-2.222-2.458-3.015-4.035c-1.04-2.097-1.56-4.305-1.56-6.624c0-3.117,0.898-5.918,2.696-8.405
		c1.551-2.152,3.526-3.757,5.923-4.815c1.798-0.797,3.745-1.197,5.844-1.197c3.349,0,6.195,1.002,8.54,3.006
		c1.181,1.002,2.133,2.189,2.855,3.563c0.828,1.559,1.242,3.08,1.242,4.564c0,1.206-0.237,2.194-0.714,2.964
		C122.33,31.026,121.713,31.411,120.955,31.411z M109.216,26.206h2.67c1.128,0,1.692-0.547,1.692-1.642
		c0-1.002-0.273-1.818-0.819-2.449c-0.547-0.63-1.261-0.946-2.142-0.946c-0.987,0-1.763,0.408-2.327,1.225
		c-0.528,0.761-0.793,1.531-0.793,2.31c0,0.556,0.128,0.946,0.384,1.168C108.136,26.095,108.581,26.206,109.216,26.206z"/>
	<path fill="#21A564" d="M157.312,26.429l0.37,9.797c0.035,0.742,0.146,1.29,0.33,1.643c0.186,0.353,0.728,1.029,1.626,2.031
		c0.265,0.297,0.397,0.715,0.397,1.253c0,1.225-0.697,2.078-2.089,2.561c-1.393,0.482-3.879,0.724-7.457,0.724
		c-2.432,0-4.15-0.223-5.155-0.668c-1.04-0.464-1.561-1.215-1.561-2.255c0-0.371,0.054-0.645,0.159-0.82
		c0.105-0.177,0.458-0.608,1.058-1.295c0.705-0.779,1.058-3.377,1.058-7.793c0-2.561-0.282-4.453-0.847-5.678
		c-0.458-0.983-1.305-1.475-2.538-1.475c-1.181,0-1.992,0.399-2.433,1.196c-0.44,0.798-0.661,2.245-0.661,4.342v5.511
		c0,1.096,0.066,1.847,0.199,2.255c0.132,0.408,0.568,1.196,1.309,2.365c0.193,0.334,0.291,0.715,0.291,1.142
		c0,1.095-0.724,1.902-2.169,2.421c-1.445,0.52-3.701,0.779-6.769,0.779c-4.9,0-7.351-1.066-7.351-3.2
		c0-0.445,0.075-0.784,0.226-1.016c0.149-0.232,0.506-0.562,1.07-0.988c0.458-0.353,0.749-0.756,0.873-1.211
		c0.123-0.454,0.237-1.572,0.344-3.354c0.123-2.115,0.185-4.332,0.185-6.652c0-1.28-0.093-2.119-0.277-2.519
		c-0.186-0.398-0.719-0.886-1.6-1.461c-0.759-0.501-1.137-1.113-1.137-1.837c0-0.742,0.308-1.35,0.925-1.823
		c0.617-0.473,1.886-1.071,3.808-1.795c1.692-0.63,3.322-1.164,4.892-1.601c1.568-0.436,2.644-0.654,3.226-0.654
		c0.528,0,0.974,0.205,1.335,0.612c0.361,0.408,0.542,0.891,0.542,1.447c0,0.056-0.009,0.288-0.026,0.696
		c-0.018,0.149-0.026,0.278-0.026,0.39c0,0.891,0.353,1.336,1.058,1.336c0.423,0,0.873-0.352,1.349-1.058
		c1.516-2.3,3.719-3.451,6.61-3.451c2.221,0,4.124,0.612,5.711,1.837c1.11,0.873,1.886,1.897,2.327,3.075
		C156.932,22.417,157.206,24.147,157.312,26.429z"/>
	<path fill="#0B497C" d="M170.822,5.889h13.935c1.498-0.056,2.864-0.269,4.098-0.64c0.529-0.148,0.996-0.223,1.401-0.223
		c1.428,0,2.816,1.113,4.164,3.34c1.349,2.227,2.023,4.519,2.023,6.875c0,1.614-0.468,2.793-1.401,3.535
		c-0.705,0.557-1.552,0.835-2.538,0.835c-0.935,0-1.745-0.273-2.433-0.821c-0.688-0.547-1.366-1.451-2.036-2.713
		c-0.582-1.15-1.04-1.902-1.375-2.254c-0.335-0.352-0.74-0.529-1.217-0.529c-0.651,0-1.119,0.288-1.4,0.863
		c-0.282,0.575-0.424,1.521-0.424,2.839V32.58c0,1.596,0.159,2.755,0.477,3.479s0.916,1.28,1.798,1.67
		c0.951,0.428,1.6,0.831,1.943,1.211c0.344,0.381,0.516,0.904,0.516,1.572c0,1.336-0.859,2.329-2.578,2.979
		s-4.358,0.974-7.919,0.974c-4.372,0-7.615-0.38-9.73-1.141c-1.78-0.631-2.67-1.651-2.67-3.062c0-0.761,0.317-1.354,0.951-1.781
		c0.159-0.093,0.784-0.315,1.878-0.668c0.67-0.204,1.132-0.594,1.388-1.169s0.463-1.68,0.622-3.313
		c0.141-1.447,0.272-3.789,0.396-7.027c0.123-3.237,0.185-6.043,0.185-8.419c0-1.67-0.123-2.857-0.37-3.563
		c-0.247-0.705-0.652-1.058-1.216-1.058c-0.688,0-1.357,0.52-2.01,1.559c-1.182,1.893-2.15,3.145-2.908,3.757
		c-0.899,0.724-1.771,1.085-2.618,1.085c-0.951,0-1.736-0.376-2.353-1.127c-0.617-0.752-0.926-1.712-0.926-2.881
		c0-1.15,0.247-2.417,0.74-3.799s1.154-2.658,1.983-3.827c1.339-1.893,2.661-2.839,3.966-2.839c0.353,0,0.758,0.056,1.216,0.167
		c0.952,0.205,1.732,0.344,2.341,0.417C169.328,5.852,170.029,5.889,170.822,5.889z"/>
</g>
</svg>
