<?xml version="1.0" encoding="utf-8"?>
<!-- Generator: Adobe Illustrator 17.0.0, SVG Export Plug-In . SVG Version: 6.00 Build 0)  -->
<!DOCTYPE svg PUBLIC "-//W3C//DTD SVG 1.1//EN" "http://www.w3.org/Graphics/SVG/1.1/DTD/svg11.dtd">
<svg version="1.1" id="레이어_1" xmlns="http://www.w3.org/2000/svg" xmlns:xlink="http://www.w3.org/1999/xlink" x="0px"
	 y="0px" width="1425px" height="450px" viewBox="0 0 1425 450" enable-background="new 0 0 1425 450" xml:space="preserve">
<polygon fill="#0B497C" points="1425,450 172.5,449.593 172.5,-0.407 1425,-0.407 "/>
<polyline fill="#21A564" points="0,-0.407 669.036,-0.407 766.862,449.593 0,449.593 "/>
<path fill="#F8B62D" d="M532.138,386.115c0,6.627-5.373,12-12,12H244.862c-6.627,0-12-5.373-12-12v-30.348c0-6.627,5.373-12,12-12
	h275.275c6.627,0,12,5.373,12,12V386.115z"/>
<g>
	<path d="M331.106,378.272h-21.114v-0.702h21.114V378.272z M320.522,364.367c-0.378,1.332-1.449,2.695-3.213,4.09
		c-1.765,1.396-3.672,2.399-5.724,3.011l-0.405-0.621c2.43-0.702,4.531-1.854,6.305-3.456c1.772-1.602,2.659-3.267,2.659-4.994
		v-1.972h0.729v1.972c0,1.728,0.9,3.406,2.7,5.035s3.924,2.785,6.372,3.47l-0.432,0.647c-2.052-0.611-3.974-1.629-5.765-3.051
		S320.883,365.699,320.522,364.367z"/>
	<path d="M354.462,378.029h-21.114v-0.702h21.114V378.029z M351.356,361.478v5.238c0,3.42-0.297,6.354-0.891,8.802l-0.729-0.107
		c0.433-1.674,0.72-3.906,0.864-6.696l-14.904,0.837l-0.216-0.756l15.147-0.756c0-0.162,0.004-0.396,0.013-0.702
		c0.009-0.306,0.014-0.53,0.014-0.675v-4.509h-14.606v-0.676H351.356z"/>
	<path d="M370.715,369.011l0.108,0.675c-3.15,0.522-7.2,0.783-12.15,0.783h-0.756v-5.967h9.396v-4.185h-9.396v-0.702h10.125v5.589
		h-9.423v4.563C363.623,369.767,367.654,369.516,370.715,369.011z M375.548,381.431h-14.715v-8.883h0.675v3.564h13.338v-3.618h0.702
		V381.431z M374.846,380.729v-3.888h-13.338v3.888H374.846z M375.548,371.171h-0.702v-12.744h0.702V371.171z"/>
	<path d="M401.171,378.272h-21.114v-0.676h21.114V378.272z M397.579,366.77H383.62v4.888h14.958v0.675h-15.659v-11.475h15.417v0.701
		H383.62v4.536h13.959V366.77z"/>
	<path d="M422.284,371.846h-10.962v-11.987h2.079v4.293h6.804v-4.293h2.079V371.846z M420.205,370.145v-4.293h-6.804v4.293H420.205z
		 M430.303,381.107H414.4v-7.183h2.052v5.481h13.851V381.107z M427.657,366.77h-4.131v-1.728h4.131v-6.75h2.052v17.199h-2.052
		V366.77z"/>
	<path d="M440.104,359.669c1.709,0,3.145,0.522,4.306,1.566s1.742,2.412,1.742,4.104c0,1.674-0.581,3.024-1.742,4.05
		c-1.161,1.026-2.597,1.539-4.306,1.539c-1.711,0-3.15-0.513-4.32-1.539c-1.171-1.025-1.755-2.366-1.755-4.022
		c0-1.674,0.589-3.042,1.769-4.104C436.977,360.2,438.412,359.669,440.104,359.669z M440.104,361.424c-1.171,0-2.134,0.36-2.89,1.08
		c-0.756,0.721-1.134,1.665-1.134,2.835c0,1.171,0.378,2.115,1.134,2.835c0.756,0.721,1.719,1.08,2.89,1.08
		c1.205,0,2.173-0.355,2.902-1.066c0.729-0.711,1.093-1.651,1.093-2.821c0-1.188-0.364-2.142-1.093-2.862
		C442.277,361.784,441.31,361.424,440.104,361.424z M437.242,373.439h15.822v8.478h-2.053v-6.777h-13.77V373.439z M446.719,363.314
		l-0.026-1.729h4.319v-3.294h2.053v13.905h-2.053v-3.321h-4.319l0.026-1.701h4.293v-3.86H446.719z"/>
</g>
<path fill="#F8B62D" d="M172.5,284.706c0-19.33,15.67-35,35-35s35,15.67,35,35s-15.67,35-35,35S172.5,304.036,172.5,284.706"/>
<path fill="none" stroke="#F8B62D" stroke-width="3" stroke-miterlimit="10" d="M741.058-105.507"/>
<path fill="none" stroke="#F8B62D" stroke-width="3" stroke-miterlimit="10" d="M224.147,167.164"/>
<path fill="none" stroke="#F8B62D" stroke-width="3" stroke-miterlimit="10" d="M747.329-93.215"/>
<path fill="none" stroke="#F8B62D" stroke-width="3" stroke-miterlimit="10" d="M230.419,179.456"/>
<g>
	<defs>
		<circle id="SVGID_1_" cx="512.595" cy="137.771" r="64.983"/>
	</defs>
	<clipPath id="SVGID_2_">
		<use xlink:href="#SVGID_1_"  overflow="visible"/>
	</clipPath>
	
		<line clip-path="url(#SVGID_2_)" fill="none" stroke="#F8B62D" stroke-width="3" stroke-miterlimit="10" x1="278.319" y1="267.71" x2="735.229" y2="-4.961"/>
	
		<line clip-path="url(#SVGID_2_)" fill="none" stroke="#F8B62D" stroke-width="3" stroke-miterlimit="10" x1="284.59" y1="280.002" x2="741.5" y2="7.331"/>
	
		<line clip-path="url(#SVGID_2_)" fill="none" stroke="#F8B62D" stroke-width="3" stroke-miterlimit="10" x1="293.038" y1="290.731" x2="749.949" y2="18.06"/>
	
		<line clip-path="url(#SVGID_2_)" fill="none" stroke="#F8B62D" stroke-width="3" stroke-miterlimit="10" x1="299.976" y1="304.139" x2="756.886" y2="31.468"/>
	
		<line clip-path="url(#SVGID_2_)" fill="none" stroke="#F8B62D" stroke-width="3" stroke-miterlimit="10" x1="307.364" y1="314.667" x2="764.274" y2="41.996"/>
	
		<line clip-path="url(#SVGID_2_)" fill="none" stroke="#F8B62D" stroke-width="3" stroke-miterlimit="10" x1="313.635" y1="326.959" x2="770.546" y2="54.288"/>
	
		<line clip-path="url(#SVGID_2_)" fill="none" stroke="#F8B62D" stroke-width="3" stroke-miterlimit="10" x1="322.084" y1="337.688" x2="778.994" y2="65.017"/>
	
		<line clip-path="url(#SVGID_2_)" fill="none" stroke="#F8B62D" stroke-width="3" stroke-miterlimit="10" x1="329.021" y1="351.096" x2="785.932" y2="78.425"/>
	
		<line clip-path="url(#SVGID_2_)" fill="none" stroke="#F8B62D" stroke-width="3" stroke-miterlimit="10" x1="233.874" y1="195.944" x2="690.785" y2="-76.727"/>
	
		<line clip-path="url(#SVGID_2_)" fill="none" stroke="#F8B62D" stroke-width="3" stroke-miterlimit="10" x1="240.812" y1="209.352" x2="697.722" y2="-63.319"/>
	
		<line clip-path="url(#SVGID_2_)" fill="none" stroke="#F8B62D" stroke-width="3" stroke-miterlimit="10" x1="248.2" y1="219.88" x2="705.11" y2="-52.791"/>
	
		<line clip-path="url(#SVGID_2_)" fill="none" stroke="#F8B62D" stroke-width="3" stroke-miterlimit="10" x1="254.471" y1="232.172" x2="711.382" y2="-40.499"/>
	
		<line clip-path="url(#SVGID_2_)" fill="none" stroke="#F8B62D" stroke-width="3" stroke-miterlimit="10" x1="262.92" y1="242.901" x2="719.83" y2="-29.77"/>
	
		<line clip-path="url(#SVGID_2_)" fill="none" stroke="#F8B62D" stroke-width="3" stroke-miterlimit="10" x1="269.857" y1="256.309" x2="726.767" y2="-16.362"/>
</g>
<g>
	<path d="M229.829,160.533h-21.303v-1.728h21.303V160.533z M229.046,152.325l-1.134,1.728c-1.908-0.576-3.722-1.562-5.44-2.957
		c-1.719-1.395-2.831-2.722-3.334-3.982c-0.432,1.26-1.495,2.588-3.186,3.982c-1.692,1.395-3.528,2.372-5.508,2.93l-1.08-1.755
		c2.07-0.414,4.045-1.44,5.927-3.078c1.881-1.638,2.821-3.366,2.821-5.184v-1.863h2.133v1.863c0,0.918,0.288,1.85,0.864,2.794
		c0.576,0.945,1.305,1.782,2.187,2.511s1.832,1.363,2.849,1.903C227.16,151.758,228.128,152.127,229.046,152.325z"/>
	<path d="M252.995,160.344h-21.303v-1.728h21.303V160.344z M250.268,142.767v3.024c-0.018,1.818-0.122,3.852-0.311,6.102
		c-0.189,2.25-0.445,4.068-0.77,5.454l-1.971-0.27c0.288-1.332,0.522-3.33,0.702-5.994l-13.959,0.729l-0.405-1.809l14.472-0.513
		c0.072-1.26,0.108-2.124,0.108-2.592v-2.43h-13.851v-1.701H250.268z"/>
	<path d="M268.79,150.192l0.243,1.674c-2.538,0.415-5.994,0.639-10.368,0.675h-2.619v-6.561h8.397v-2.97h-8.505v-1.674h10.557v6.291
		h-8.397v3.186C263.137,150.813,266.701,150.606,268.79,150.192z M274.163,163.449h-15.309v-9.018h2.052v2.889h11.205v-2.943h2.052
		V163.449z M272.11,161.749v-2.754h-11.205v2.754H272.11z M274.136,153.082h-2.052v-12.906h2.052V153.082z"/>
	<path d="M299.326,160.776h-21.303v-1.728h21.303V160.776z M296.086,149.328h-13.392V153h14.094v1.728h-16.173v-12.285h15.93v1.728
		h-13.851v3.429h13.392V149.328z"/>
	<path d="M317.146,157.779c-1.926,0.234-4.725,0.432-8.397,0.594c-2.682,0.126-5.067,0.207-7.155,0.243l-0.378-1.809
		c2.339,0.037,4.896-0.027,7.668-0.189c3.582-0.125,6.272-0.297,8.073-0.513L317.146,157.779z M314.797,147.627
		c0,1.638-0.585,2.961-1.755,3.969c-1.17,1.008-2.628,1.512-4.374,1.512c-1.746,0-3.208-0.522-4.387-1.566
		c-1.179-1.044-1.769-2.349-1.769-3.915c0-1.638,0.589-2.983,1.769-4.037c1.179-1.053,2.641-1.58,4.387-1.58
		c1.782,0,3.249,0.513,4.401,1.539S314.797,145.936,314.797,147.627z M312.799,147.627c0-1.17-0.396-2.106-1.188-2.808
		c-0.792-0.702-1.773-1.053-2.943-1.053c-1.152,0-2.133,0.369-2.943,1.107s-1.215,1.656-1.215,2.754c0,1.08,0.4,1.976,1.201,2.687
		s1.787,1.066,2.957,1.066c1.152,0,2.128-0.355,2.93-1.066C312.398,149.603,312.799,148.708,312.799,147.627z M318.523,140.175
		h2.052v23.598h-2.052V140.175z"/>
	<path d="M343.362,152.19h-11.259v-10.26h11.259V152.19z M351.111,162.261l-0.999,1.593c-1.638-0.252-3.267-0.887-4.887-1.904
		c-1.62-1.017-2.646-2.029-3.078-3.038c-0.469,1.044-1.481,2.048-3.038,3.011c-1.557,0.963-3.236,1.57-5.036,1.822l-0.918-1.566
		c1.98-0.216,3.735-0.851,5.265-1.903c1.53-1.053,2.394-2.183,2.592-3.389h-6.588v-1.674h15.363v1.674h-6.507
		c0.216,1.17,1.116,2.313,2.7,3.429C347.565,161.434,349.275,162.081,351.111,162.261z M341.31,150.489v-6.858h-7.155v6.858H341.31z
		 M353.001,148.086h-3.591v5.94h-2.052v-13.851h2.052v6.183h3.591V148.086z"/>
	<path d="M373.143,163.449h-16.146v-7.29h7.047v-2.376h-9.612v-1.701h21.303v1.701h-9.639v2.376h7.047V163.449z M374.601,149.274
		l-0.918,1.728c-1.962-0.27-3.735-0.733-5.319-1.391c-1.584-0.657-2.682-1.525-3.294-2.605c-0.558,1.098-1.634,1.976-3.227,2.632
		c-1.593,0.657-3.416,1.112-5.467,1.364l-0.756-1.647c1.944-0.108,3.735-0.495,5.373-1.161c1.638-0.666,2.619-1.557,2.943-2.673
		h-7.344v-1.674h17.01v1.674h-7.371c0.341,1.08,1.34,1.939,2.997,2.578C370.884,148.739,372.675,149.13,374.601,149.274z
		 M371.091,161.749v-3.915h-12.015v3.915H371.091z M368.85,142.011h-7.56v-1.782h7.56V142.011z"/>
	<path d="M389.424,152.379h-10.935v-10.935h2.079v3.699h6.777v-3.699h2.079V152.379z M387.345,150.678v-3.861h-6.777v3.861H387.345z
		 M396.984,163.449h-15.12v-9.207h2.052v2.916h11.016v-2.97h2.052V163.449z M394.932,161.775v-2.943h-11.016v2.943H394.932z
		 M394.905,147.627h-4.32v-1.755h4.32v-5.697h2.052v12.744h-2.052V147.627z"/>
	<path d="M428.978,160.291h-21.303v-1.728h5.346v-8.154h2.052v8.154h3.915v-8.154h2.052v8.154h7.938V160.291z M426.359,142.794
		v2.808c-0.036,4.266-0.342,7.686-0.918,10.26l-2.052-0.324c0.558-2.286,0.837-5.247,0.837-8.883v-2.133h-14.31v-1.728H426.359z"/>
	<path d="M431.462,143.875v-1.728h12.771v1.728h-5.319c0,0.666,0.009,1.089,0.027,1.269c0.09,1.512,0.738,2.88,1.944,4.104
		c1.206,1.225,2.592,2.07,4.158,2.538l-1.215,1.647c-1.242-0.486-2.426-1.229-3.551-2.228s-1.93-2.029-2.417-3.091
		c-0.324,1.098-1.089,2.259-2.295,3.483c-1.206,1.225-2.448,2.115-3.726,2.673l-1.107-1.647c1.584-0.611,2.979-1.61,4.185-2.997
		c1.206-1.386,1.836-2.88,1.89-4.482c0.018-0.18,0.027-0.603,0.027-1.269H431.462z M450.308,159.292c0,1.386-0.693,2.479-2.079,3.28
		c-1.386,0.801-3.339,1.202-5.859,1.202c-2.502,0-4.442-0.401-5.819-1.202s-2.065-1.894-2.065-3.28c0-1.404,0.688-2.506,2.065-3.308
		c1.377-0.801,3.316-1.202,5.819-1.202c2.52,0,4.473,0.401,5.859,1.202C449.615,156.785,450.308,157.887,450.308,159.292z
		 M442.37,156.51c-1.818,0-3.24,0.243-4.266,0.729s-1.539,1.17-1.539,2.052c0,0.864,0.513,1.539,1.539,2.025
		c1.026,0.486,2.448,0.729,4.266,0.729c1.854,0,3.289-0.238,4.306-0.716c1.017-0.477,1.526-1.156,1.526-2.038
		s-0.509-1.566-1.526-2.052S444.224,156.51,442.37,156.51z M448.067,148.032h-4.752v-1.728h4.752v-6.129h2.052v14.661h-2.052
		V148.032z"/>
	<path d="M465.644,163.8h-2.052v-7.776h-9.585v-1.728h21.303v1.728h-9.666V163.8z M472.717,151.488h-16.146v-10.395h2.079v3.483
		h12.015v-3.483h2.052V151.488z M470.666,149.787v-3.537H458.65v3.537H470.666z"/>
	<path d="M480.035,156.537h0.513c4.428,0,7.875-0.27,10.341-0.81l0.243,1.728c-2.97,0.559-6.543,0.837-10.719,0.837h-2.43v-15.984
		h11.178v1.701h-9.126v4.887h8.181v1.674h-8.181V156.537z M496.478,163.773h-2.052v-12.798h-4.671v-1.755h4.671v-9.045h2.052
		V163.773z"/>
	<path d="M213.386,193.473c-2.125,0-3.816-0.459-5.076-1.377l0.405-1.728c0.522,0.36,1.184,0.666,1.985,0.918
		c0.8,0.252,1.561,0.378,2.281,0.378c1.422,0,2.533-0.373,3.334-1.12c0.801-0.747,1.202-1.769,1.202-3.065
		c0-2.574-1.485-3.861-4.455-3.861c-1.206,0-2.466,0.297-3.78,0.891l0.648-9.504h9.18v1.836h-7.452l-0.378,5.508
		c0.972-0.252,1.836-0.378,2.592-0.378c1.872,0,3.321,0.459,4.347,1.377c1.026,0.918,1.539,2.304,1.539,4.158
		c0,1.674-0.576,3.087-1.728,4.239C216.878,192.897,215.33,193.473,213.386,193.473z"/>
	<path d="M231.989,175.356c-0.036,3.474-0.819,6.565-2.349,9.274c-1.53,2.709-3.708,4.918-6.534,6.628l-1.377-1.512
		c2.43-1.386,4.361-3.227,5.792-5.521c1.431-2.295,2.201-4.675,2.309-7.142h-7.29v-1.728H231.989z M241.708,196.173h-2.025v-12.609
		h-3.078v11.421h-2.025v-21.843h2.025v8.721h3.078v-9.288h2.025V196.173z"/>
	<path d="M254.155,188.37h7.344v-4.401h-9.612v-1.728h15.741c0.522-1.854,0.783-4.077,0.783-6.669h-13.932v-1.701h16.038
		c0,3.276-0.279,6.066-0.837,8.37h3.51v1.728h-9.639v4.401h6.939v7.965h-2.079v-6.264h-14.256V188.37z"/>
	<path d="M275.35,182.565c0-2.538,0.526-4.563,1.579-6.075c1.053-1.512,2.515-2.268,4.388-2.268c1.746,0,3.132,0.666,4.158,1.998
		c1.026,1.332,1.61,3.141,1.755,5.427h5.049v-9.072h2.052v23.598h-2.052v-12.771h-5.049c-0.108,2.304-0.68,4.131-1.715,5.481
		s-2.435,2.025-4.198,2.025c-1.873,0-3.334-0.751-4.388-2.254C275.876,187.151,275.35,185.122,275.35,182.565z M285.232,182.592
		c0-1.944-0.365-3.528-1.094-4.752s-1.669-1.836-2.821-1.836c-1.17,0-2.115,0.612-2.835,1.836c-0.72,1.224-1.08,2.808-1.08,4.752
		c0,1.926,0.36,3.497,1.08,4.711c0.72,1.215,1.665,1.822,2.835,1.822c1.152,0,2.092-0.607,2.821-1.822
		S285.232,184.519,285.232,182.592z"/>
	<path d="M316.983,186.129h-10.962v-11.988h2.079v4.293h6.804v-4.293h2.079V186.129z M314.904,184.428v-4.293H308.1v4.293H314.904z
		 M325.002,195.39h-15.903v-7.182h2.052v5.481h13.851V195.39z M322.356,181.053h-4.131v-1.728h4.131v-6.75h2.052v17.199h-2.052
		V181.053z"/>
	<path d="M334.614,173.952c1.709,0,3.145,0.522,4.306,1.566c1.161,1.044,1.742,2.413,1.742,4.104c0,1.674-0.581,3.024-1.742,4.05
		c-1.161,1.026-2.597,1.539-4.306,1.539c-1.71,0-3.15-0.513-4.32-1.539c-1.17-1.026-1.755-2.367-1.755-4.023
		c0-1.674,0.589-3.042,1.769-4.104C331.486,174.483,332.922,173.952,334.614,173.952z M334.614,175.707
		c-1.17,0-2.133,0.36-2.889,1.08c-0.756,0.72-1.134,1.665-1.134,2.835c0,1.17,0.378,2.115,1.134,2.835
		c0.756,0.72,1.719,1.08,2.889,1.08c1.206,0,2.173-0.355,2.902-1.066c0.729-0.711,1.093-1.651,1.093-2.821
		c0-1.188-0.364-2.142-1.093-2.862C336.788,176.067,335.82,175.707,334.614,175.707z M331.752,187.722h15.822v8.478h-2.052v-6.777
		h-13.77V187.722z M341.229,177.597l-0.027-1.728h4.32v-3.294h2.052v13.905h-2.052v-3.321h-4.32l0.027-1.701h4.293v-3.861H341.229z"
		/>
	<path d="M358.266,175.167c0,6.247-1.962,11.448-5.886,15.606l-1.674-1.215c1.656-1.494,2.974-3.456,3.956-5.886
		c0.981-2.43,1.489-4.689,1.525-6.777h-4.266v-1.728H358.266z M364.691,175.167c0,3.366-0.418,6.453-1.255,9.261
		s-2.264,5.409-4.279,7.803l-1.728-1.161c1.206-1.206,2.223-2.736,3.051-4.59c0.828-1.854,1.399-3.577,1.714-5.17
		c0.315-1.593,0.473-3.064,0.473-4.415h-3.321v-1.728H364.691z M369.957,172.575v9.828h3.591v1.728h-3.591v12.042h-2.025v-23.598
		H369.957z"/>
	<path d="M389.208,189.018l-1.269,1.539c-1.242-0.81-2.461-1.885-3.658-3.227c-1.197-1.341-1.985-2.659-2.363-3.956
		c-0.378,1.422-1.134,2.835-2.268,4.239c-1.134,1.404-2.412,2.565-3.834,3.483l-1.269-1.512c1.818-1.062,3.321-2.542,4.509-4.441
		c1.188-1.899,1.782-3.919,1.782-6.062v-2.43h-5.508v-1.701h13.149v1.701h-5.508v2.403c0,2.088,0.607,4.037,1.822,5.846
		C386.008,186.709,387.479,188.083,389.208,189.018z M391.935,172.575h2.052v23.598h-2.052V172.575z"/>
	<path d="M416.747,189.099l-1.296,1.512c-0.954-0.666-1.921-1.616-2.902-2.849c-0.981-1.233-1.625-2.425-1.931-3.578
		c-0.234,1.278-0.814,2.561-1.742,3.848c-0.927,1.287-1.984,2.354-3.172,3.2l-1.377-1.431c1.494-0.954,2.745-2.331,3.753-4.131
		c1.008-1.8,1.512-3.789,1.512-5.967v-2.646h-4.698v-1.701h11.259v1.701h-4.536v2.592
		C411.617,183.735,413.327,186.885,416.747,189.099z M419.933,194.985h-2.025v-12.042h-3.78v-1.701h3.78v-8.1h2.025V194.985z
		 M424.604,196.173h-2.025v-23.598h2.025V196.173z"/>
	<path d="M449.174,185.535h-21.303v-1.701h8.775v-4.995h2.052v4.995h10.476V185.535z M444.746,188.586
		c1.458,0.756,2.187,1.8,2.187,3.132s-0.729,2.372-2.187,3.119c-1.458,0.747-3.546,1.12-6.264,1.12c-2.736,0-4.838-0.374-6.305-1.12
		c-1.467-0.747-2.201-1.787-2.201-3.119s0.738-2.376,2.214-3.132c1.476-0.756,3.573-1.134,6.291-1.134
		C441.199,187.452,443.288,187.83,444.746,188.586z M446.663,173.871v2.106c0,2.466-0.225,4.563-0.675,6.291l-2.025-0.27
		c0.324-1.134,0.513-2.637,0.567-4.509l0.027-1.917H430.22v-1.701H446.663z M443.18,193.622c1.152-0.459,1.728-1.093,1.728-1.903
		s-0.576-1.444-1.728-1.903c-1.152-0.459-2.718-0.689-4.698-0.689c-1.998,0-3.574,0.229-4.725,0.689
		c-1.152,0.459-1.728,1.093-1.728,1.903s0.571,1.444,1.714,1.903s2.723,0.688,4.739,0.688
		C440.461,194.31,442.027,194.081,443.18,193.622z"/>
	<path d="M464.86,179.946h-13.932v-1.701h13.932V179.946z M463.456,186.345c0,1.386-0.513,2.542-1.539,3.47
		c-1.026,0.927-2.349,1.39-3.969,1.39s-2.943-0.459-3.969-1.377c-1.026-0.918-1.539-2.079-1.539-3.483s0.513-2.569,1.539-3.497
		c1.026-0.927,2.349-1.391,3.969-1.391s2.943,0.464,3.969,1.391C462.943,183.776,463.456,184.941,463.456,186.345z M461.377,175.95
		h-6.939v-1.755h6.939V175.95z M461.404,186.345c0-0.936-0.324-1.696-0.972-2.282c-0.648-0.584-1.476-0.877-2.484-0.877
		c-0.99,0-1.813,0.297-2.471,0.891c-0.657,0.594-0.985,1.35-0.985,2.268s0.328,1.674,0.985,2.268
		c0.657,0.594,1.48,0.891,2.471,0.891c1.008,0,1.836-0.297,2.484-0.891C461.08,188.019,461.404,187.263,461.404,186.345z
		 M473.014,184.266h-3.834v11.907h-2.052v-23.598h2.052v9.963h3.834V184.266z"/>
	<path d="M495.505,186.48h-21.303v-1.728h21.303V186.48z M493.237,195.66h-16.254v-6.966h2.052v5.265h14.202V195.66z
		 M493.129,181.809h-16.065v-8.235h2.052v6.534h14.013V181.809z"/>
	<path d="M210.929,220.365h6.669v-4.104h-9.288v-2.511h15.228c0.414-1.944,0.603-3.816,0.567-5.616h-13.014v-2.538h16.173
		c0,3.096-0.243,5.814-0.729,8.154h3.51v2.511h-9.288v4.104h6.507v8.478h-3.132v-5.967h-13.203V220.365z"/>
	<path d="M242.681,221.742c-0.63,0.18-1.755,0.342-3.375,0.486c-1.62,0.145-3.159,0.216-4.617,0.216h-2.16v-14.877h3.105v12.258
		c3.006,0,5.22-0.207,6.642-0.621c0.036,0.342,0.108,0.824,0.216,1.444C242.6,221.27,242.663,221.634,242.681,221.742z
		 M251.915,228.815h-2.997v-12.042h-2.322v10.935h-2.943v-22.518h2.943v9.045h2.322v-9.477h2.997V228.815z"/>
	<path d="M264.874,225.684v-15.228l-3.105,0.621v-1.944l4.698-2.106h1.755v18.657H264.874z"/>
	<path d="M280.912,228.114h-3.213v-7.965c-2.286,0.108-4.266,0.162-5.94,0.162l-0.459-2.592c5.832,0,11.106-0.243,15.822-0.729
		l0.27,2.43c-1.602,0.216-3.762,0.405-6.48,0.567V228.114z M285.529,211.023c0,1.44-0.59,2.633-1.769,3.578
		c-1.179,0.945-2.687,1.417-4.522,1.417c-1.854,0-3.357-0.468-4.509-1.404s-1.728-2.133-1.728-3.591
		c0-1.494,0.576-2.722,1.728-3.686c1.152-0.962,2.655-1.444,4.509-1.444c1.872,0,3.388,0.482,4.549,1.444
		C284.949,208.301,285.529,209.529,285.529,211.023z M282.37,210.996c0-0.738-0.292-1.345-0.877-1.822s-1.336-0.716-2.254-0.716
		c-0.882,0-1.616,0.239-2.201,0.716s-0.877,1.084-0.877,1.822c0,0.72,0.288,1.305,0.864,1.755c0.576,0.45,1.313,0.675,2.214,0.675
		c0.936,0,1.691-0.225,2.268-0.675C282.082,212.301,282.37,211.716,282.37,210.996z M291.523,204.759v24.056h-3.132v-24.056H291.523
		z"/>
	<path d="M313.554,216.099h-11.367v-10.422h3.105v3.024h5.103v-3.078h3.159V216.099z M321.061,228.627h-16.389v-6.372h12.501v-1.539
		h-12.69v-2.511h15.903v6.372h-12.582v1.512h13.257V228.627z M310.396,213.642v-2.457h-5.103v2.457H310.396z M323.76,212.292h-3.375
		v4.671h-3.213v-12.204h3.213v4.941h3.375V212.292z"/>
	<path d="M346.467,225.792h-21.735v-2.484h5.319v-4.644h3.159v4.644h4.698v-4.644h3.132v4.644h5.427V225.792z M344.416,209.052
		h-17.739v-2.511h17.739V209.052z M344.361,217.53H326.73v-2.511h3.321l-0.459-4.536l3.159-0.324l0.27,4.86h5.238l0.648-4.806
		l3.051,0.459l-0.756,4.347h3.159V217.53z"/>
	<path d="M376.544,217.638H354.81V215.1h9.234v-2.619h3.159v2.619h9.342V217.638z M365.69,208.944
		c-0.612,1.278-1.737,2.376-3.375,3.294c-1.638,0.918-3.375,1.503-5.211,1.755l-1.296-2.403c2.178-0.216,4.099-0.873,5.765-1.971
		c1.665-1.098,2.497-2.466,2.497-4.104v-0.486h3.267v0.486c0,1.098,0.459,2.115,1.377,3.051c0.918,0.937,1.998,1.661,3.24,2.174
		c1.242,0.513,2.466,0.806,3.672,0.877l-1.35,2.43c-1.728-0.27-3.442-0.877-5.144-1.822
		C367.432,211.28,366.285,210.186,365.69,208.944z M374.546,228.708H357.59v-6.021h12.906v-1.242h-13.068v-2.511h16.227v5.967
		h-12.933v1.242h13.824V228.708z"/>
	<path d="M390.368,228.843h-3.159v-7.695h-9.234v-2.511h21.735v2.511h-9.342V228.843z M397.631,216.558H380.81v-6.696h12.987v-2.025
		H380.81v-2.376h16.119v6.696h-12.933v1.998h13.635V216.558z"/>
	<path d="M415.451,216.882l-1.782,2.484c-0.918-0.342-1.917-1.04-2.997-2.093c-1.08-1.053-1.881-2.128-2.403-3.227
		c-0.342,1.207-1.071,2.399-2.187,3.578c-1.116,1.179-2.25,1.967-3.402,2.363l-1.863-2.511c1.746-0.648,3.15-1.732,4.212-3.253
		c1.062-1.521,1.593-3.2,1.593-5.036v-3.051h3.267v2.916c0,1.764,0.562,3.393,1.688,4.887
		C412.701,215.434,413.993,216.414,415.451,216.882z M421.553,228.168h-16.362v-7.56h3.159v5.076h13.203V228.168z M417.881,210.618
		h-3.618v-2.511h3.618v-3.348h3.159v17.442h-3.159v-6.777h-3.618v-2.538h3.618V210.618z"/>
	<path d="M445.852,221.094l-1.809,2.376c-1.062-0.648-2.151-1.634-3.267-2.957c-1.116-1.323-1.873-2.587-2.268-3.793
		c-0.396,1.368-1.139,2.731-2.228,4.09c-1.089,1.359-2.264,2.381-3.523,3.064l-1.89-2.322c3.978-2.592,5.967-6.291,5.967-11.097
		v-3.672h3.24v3.51c0,2.34,0.504,4.428,1.512,6.264C442.594,218.394,444.016,219.906,445.852,221.094z M451.144,228.815h-3.186
		v-13.256h-4.347v-2.673h4.347v-8.127h3.186V228.815z"/>
	<path d="M466.939,222.876h-11.367v-16.173h3.132v5.778h5.049v-5.832h3.186V222.876z M463.753,220.392v-5.427h-5.049v5.427H463.753z
		 M474.256,228.815h-3.132v-24.056h3.132V228.815z"/>
	<path d="M499.285,225.684H477.55v-2.511h21.735V225.684z M498.826,215.829l-1.593,2.457c-1.782-0.414-3.537-1.215-5.265-2.403
		s-2.916-2.529-3.564-4.023c-0.594,1.53-1.769,2.903-3.523,4.118s-3.533,2.021-5.333,2.417l-1.485-2.565
		c1.368-0.198,2.704-0.648,4.009-1.35c1.305-0.702,2.417-1.651,3.334-2.849c0.918-1.197,1.377-2.47,1.377-3.82v-1.593h3.294v1.593
		c0,0.81,0.185,1.606,0.554,2.39c0.369,0.783,0.859,1.48,1.471,2.092c0.612,0.612,1.3,1.166,2.066,1.661
		c0.765,0.495,1.543,0.9,2.335,1.215C497.295,215.483,498.07,215.704,498.826,215.829z"/>
	<path d="M500.688,229.221l1.08-5.454h3.402l-1.944,5.454H500.688z"/>
	<path fill="#FFFFFF" stroke="#000000" stroke-miterlimit="10" d="M245.255,266.147h-36.63v-5.444h36.63V266.147z M242.24,250.038
		h-30.465v-5.085h30.465V250.038z M241.745,259.533h-29.7v-4.95h4.86l-0.315-3.24l6.75-0.495l0.315,3.735h6.48l0.45-3.69l6.885,0.54
		l-0.585,3.15h4.86V259.533z M241.97,284.058h-29.43v-10.575h21.42v-1.35h-21.42v-4.905h28.53v10.485h-21.51v1.26h22.41V284.058z"/>
	<path fill="#FFFFFF" stroke="#000000" stroke-miterlimit="10" d="M268.879,284.508h-7.02v-11.025h-14.625v-5.489h36.63v5.489
		h-14.985V284.508z M281.029,265.607h-29.61v-12.779h21.375v-2.25H251.33v-5.535h28.53v12.96h-21.375v2.205h22.545V265.607z"/>
	<path fill="#FFFFFF" stroke="#000000" stroke-miterlimit="10" d="M313.114,259.803h-4.32c-0.601,2.4-1.913,4.313-3.938,5.737
		c-2.025,1.426-4.448,2.138-7.268,2.138c-3.33,0-6.061-0.982-8.19-2.947c-2.131-1.965-3.195-4.478-3.195-7.538
		c0-3.06,1.072-5.572,3.218-7.537c2.145-1.965,4.882-2.947,8.212-2.947c2.7,0,5.047,0.69,7.042,2.07
		c1.995,1.38,3.322,3.21,3.982,5.489h4.455v-10.35h7.065v29.295h-7.065V259.803z M320.989,283.652h-29.7v-13.274h7.11v7.785h22.59
		V283.652z M297.634,252.873c-1.35,0-2.408,0.397-3.172,1.192c-0.765,0.795-1.147,1.853-1.147,3.173c0,1.26,0.397,2.28,1.192,3.06
		c0.794,0.78,1.822,1.17,3.083,1.17c1.26,0,2.31-0.39,3.15-1.17c0.839-0.779,1.26-1.814,1.26-3.105c0-1.289-0.413-2.332-1.237-3.127
		C299.936,253.271,298.894,252.873,297.634,252.873z"/>
	<path fill="#FFFFFF" stroke="#000000" stroke-miterlimit="10" d="M361.083,279.918h-36.63v-5.625h36.63V279.918z M356.134,261.558
		h-20.34v2.925h21.87v5.761h-28.98v-23.311h28.53v5.896h-21.42v2.925h20.34V261.558z"/>
</g>
<g>
	<defs>
		<circle id="SVGID_3_" cx="102.898" cy="107.396" r="84.987"/>
	</defs>
	<clipPath id="SVGID_4_">
		<use xlink:href="#SVGID_3_"  overflow="visible"/>
	</clipPath>
	
		<line clip-path="url(#SVGID_4_)" fill="none" stroke="#920783" stroke-width="3" stroke-miterlimit="10" x1="365.047" y1="339.851" x2="-169.967" y2="-105.136"/>
	
		<line clip-path="url(#SVGID_4_)" fill="none" stroke="#920783" stroke-width="3" stroke-miterlimit="10" x1="377.48" y1="326.771" x2="-157.533" y2="-118.216"/>
	
		<line clip-path="url(#SVGID_4_)" fill="none" stroke="#920783" stroke-width="3" stroke-miterlimit="10" x1="387.04" y1="311.685" x2="-147.973" y2="-133.303"/>
	
		<line clip-path="url(#SVGID_4_)" fill="none" stroke="#920783" stroke-width="3" stroke-miterlimit="10" x1="400.561" y1="297.297" x2="-134.453" y2="-147.69"/>
	
		<line clip-path="url(#SVGID_4_)" fill="none" stroke="#920783" stroke-width="3" stroke-miterlimit="10" x1="410.334" y1="283.606" x2="-124.68" y2="-161.381"/>
	
		<line clip-path="url(#SVGID_4_)" fill="none" stroke="#920783" stroke-width="3" stroke-miterlimit="10" x1="422.767" y1="270.526" x2="-112.246" y2="-174.462"/>
	
		<line clip-path="url(#SVGID_4_)" fill="none" stroke="#F8B62D" stroke-width="3" stroke-miterlimit="10" x1="432.327" y1="255.439" x2="-102.686" y2="-189.548"/>
	
		<line clip-path="url(#SVGID_4_)" fill="none" stroke="#F8B62D" stroke-width="3" stroke-miterlimit="10" x1="445.848" y1="241.052" x2="-89.166" y2="-203.935"/>
	
		<line clip-path="url(#SVGID_4_)" fill="none" stroke="#F8B62D" stroke-width="3" stroke-miterlimit="10" x1="295.856" y1="425.879" x2="-239.157" y2="-19.108"/>
	
		<line clip-path="url(#SVGID_4_)" fill="none" stroke="#F8B62D" stroke-width="3" stroke-miterlimit="10" x1="309.377" y1="411.491" x2="-225.637" y2="-33.496"/>
	
		<line clip-path="url(#SVGID_4_)" fill="none" stroke="#920783" stroke-width="3" stroke-miterlimit="10" x1="319.15" y1="397.8" x2="-215.864" y2="-47.187"/>
	
		<line clip-path="url(#SVGID_4_)" fill="none" stroke="#920783" stroke-width="3" stroke-miterlimit="10" x1="331.584" y1="384.72" x2="-203.43" y2="-60.268"/>
	
		<line clip-path="url(#SVGID_4_)" fill="none" stroke="#920783" stroke-width="3" stroke-miterlimit="10" x1="341.143" y1="369.634" x2="-193.87" y2="-75.354"/>
	
		<line clip-path="url(#SVGID_4_)" fill="none" stroke="#920783" stroke-width="3" stroke-miterlimit="10" x1="354.664" y1="355.246" x2="-180.35" y2="-89.741"/>
</g>
<path fill="#22AC38" d="M1211.5,137.771c0-24.853,20.147-45,45-45s45,20.147,45,45s-20.147,45-45,45S1211.5,162.624,1211.5,137.771"
	/>
<g>
	<path fill="#F7F8F8" d="M1002.672,148.795l0.297,1.728c-1.367,0.324-3.253,0.585-5.656,0.783c-2.402,0.198-4.567,0.297-6.493,0.297
		h-1.431V136.32h2.051v13.473C996.318,149.758,1000.063,149.425,1002.672,148.795z M1006.723,133.972v9.369h3.86v1.755h-3.86v12.474
		h-2.053v-23.598H1006.723z"/>
	<path fill="#F7F8F8" d="M1017.332,136.023c1.584,0,2.822,0.661,3.713,1.984s1.381,3.092,1.472,5.306h2.538v-8.883h1.998v22.005
		h-1.998v-11.421h-2.538c-0.108,2.196-0.603,3.938-1.485,5.225c-0.882,1.287-2.115,1.931-3.699,1.931
		c-1.674,0-2.956-0.733-3.847-2.201c-0.892-1.467-1.337-3.424-1.337-5.872s0.445-4.405,1.337-5.873
		C1014.376,136.757,1015.658,136.023,1017.332,136.023z M1019.627,148.659c0.576-1.134,0.865-2.654,0.865-4.563
		s-0.289-3.43-0.865-4.563s-1.34-1.701-2.295-1.701c-0.936,0-1.688,0.567-2.254,1.701s-0.851,2.655-0.851,4.563
		s0.278,3.429,0.837,4.563s1.314,1.701,2.268,1.701C1018.287,150.36,1019.051,149.793,1019.627,148.659z M1031.67,157.569h-2.025
		v-23.598h2.025V157.569z"/>
	<path fill="#F7F8F8" d="M1044.899,136.726c-0.161,6.84-3.096,12.105-8.802,15.795l-1.404-1.512
		c2.412-1.368,4.334-3.187,5.765-5.454c1.431-2.269,2.21-4.635,2.335-7.102h-7.182v-1.728H1044.899z M1050.246,156.382h-1.972
		V144.88h-3.969v-1.729h3.969v-8.613h1.972V156.382z M1054.836,157.569h-2.025v-23.598h2.025V157.569z"/>
	<path fill="#F7F8F8" d="M1079.945,143.26l0.188,1.593c-1.261,0.198-3.628,0.405-7.101,0.621c-2.772,0.145-5.229,0.216-7.371,0.216
		l-0.297-1.755c1.457,0,2.547-0.009,3.267-0.027l-0.595-5.346l2.08-0.243l0.377,5.563c0.721-0.019,1.719-0.063,2.998-0.136
		c0.27,0,0.477-0.009,0.621-0.026l0.404-5.454l2.025,0.243l-0.594,5.13C1077.658,143.548,1078.99,143.422,1079.945,143.26z
		 M1078.838,137.185h-12.825v-1.674h12.825V137.185z M1085.183,157.407h-15.983v-5.858h13.067v-2.322h-13.149v-1.674h15.201v5.562
		h-13.067v2.592h13.932V157.407z M1084.292,146.392h-2.052v-12.42h2.052V146.392z"/>
	<path fill="#F7F8F8" d="M1109.482,154.572h-21.303v-1.728h5.266v-4.401l2.051-0.054v4.455h6.589v-4.455l2.052,0.054v4.401h5.346
		V154.572z M1107.322,141.666c0,1.818-0.782,3.285-2.349,4.401c-1.565,1.116-3.627,1.674-6.183,1.674
		c-2.538,0-4.586-0.558-6.143-1.674s-2.336-2.583-2.336-4.401c0-1.817,0.779-3.294,2.336-4.428s3.604-1.701,6.143-1.701
		c2.574,0,4.639,0.563,6.196,1.688C1106.544,138.35,1107.322,139.83,1107.322,141.666z M1103.543,144.88
		c1.205-0.811,1.809-1.881,1.809-3.214c0-1.331-0.599-2.402-1.795-3.213c-1.197-0.81-2.786-1.215-4.766-1.215
		c-1.963,0-3.537,0.405-4.725,1.215c-1.188,0.811-1.783,1.882-1.783,3.213c0,1.333,0.595,2.403,1.783,3.214
		c1.188,0.81,2.762,1.215,4.725,1.215C1100.752,146.095,1102.336,145.689,1103.543,144.88z"/>
	<path fill="#F7F8F8" d="M1125.062,140.101h-13.824v-1.701h13.824V140.101z M1123.711,145.5c0,1.225-0.521,2.219-1.565,2.984
		c-1.044,0.765-2.376,1.147-3.996,1.147c-1.584,0-2.902-0.383-3.956-1.147c-1.053-0.766-1.579-1.76-1.579-2.984
		c0-1.241,0.522-2.24,1.565-2.996c1.045-0.757,2.367-1.135,3.97-1.135c1.62,0,2.952,0.378,3.996,1.135
		C1123.189,143.26,1123.711,144.259,1123.711,145.5z M1121.768,145.5c0-0.756-0.352-1.363-1.053-1.822
		c-0.703-0.459-1.558-0.688-2.565-0.688c-0.99,0-1.836,0.229-2.538,0.688s-1.053,1.066-1.053,1.822c0,0.738,0.351,1.337,1.053,1.796
		s1.548,0.688,2.538,0.688c0.989,0,1.841-0.229,2.552-0.688S1121.768,146.238,1121.768,145.5z M1121.416,136.617h-6.804v-1.809
		h6.804V136.617z M1130.407,156.813h-15.714v-6.048h2.052v4.319h13.662V156.813z M1133.08,143.691h-3.591v7.695h-2.052v-17.415
		h2.052v7.992h3.591V143.691z"/>
	<path fill="#F7F8F8" d="M1153.275,145.365h-11.016V134.89h2.052v3.456h6.885v-3.456h2.079V145.365z M1151.196,143.664v-3.617
		h-6.885v3.617H1151.196z M1160.431,157.407H1144.5v-5.886h13.015v-2.322h-13.041v-1.674h15.093v5.589h-13.014v2.592h13.878V157.407
		z M1163.158,140.991h-3.592v5.185h-2.052v-12.204h2.052v5.292h3.592V140.991z"/>
	<path fill="#F7F8F8" d="M1185.892,154.572h-21.304v-1.728h5.779v-5.022h2.051v5.022h5.59v-5.022h2.052v5.022h5.832V154.572z
		 M1183.731,137.778h-17.091v-1.728h17.091V137.778z M1183.705,146.607h-17.037v-1.728h3.699l-0.621-5.725l2.133-0.216l0.432,5.94
		h5.805l0.702-5.913l2.024,0.323l-0.809,5.59h3.672V146.607z"/>
	<path fill="#F7F8F8" d="M1215.969,154.356h-21.303v-1.728h8.343v-6.237h2.052v6.237h10.908V154.356z M1197.149,136.455h16.146
		v2.512c0,4.374-0.314,7.956-0.944,10.746l-1.998-0.217c0.271-1.098,0.495-2.951,0.675-5.562l-14.201,0.729l-0.324-1.809
		l14.634-0.54c0.036-1.116,0.054-1.881,0.054-2.295v-1.863h-14.04V136.455z"/>
	<path fill="#F7F8F8" d="M1232.223,145.933l-1.08,1.674c-1.152-0.342-2.299-0.94-3.442-1.796c-1.144-0.854-1.984-1.804-2.524-2.848
		c-0.378,1.062-1.152,2.092-2.322,3.091s-2.439,1.742-3.807,2.228l-1.135-1.62c1.603-0.485,3.016-1.327,4.24-2.524
		c1.223-1.196,1.88-2.497,1.971-3.901h-5.373v-1.701h12.879v1.701h-5.4c0.09,1.35,0.729,2.552,1.917,3.604
		S1230.692,145.591,1232.223,145.933z M1235.22,149.996c1.386,0.765,2.079,1.822,2.079,3.172c0,1.351-0.693,2.408-2.079,3.173
		s-3.339,1.147-5.858,1.147c-2.503,0-4.442-0.383-5.819-1.147s-2.065-1.822-2.065-3.173c0-1.35,0.688-2.407,2.065-3.172
		s3.316-1.147,5.819-1.147C1231.881,148.849,1233.834,149.231,1235.22,149.996z M1228.389,136.51h-6.426v-1.729h6.426V136.51z
		 M1235.111,153.168c0-0.827-0.504-1.471-1.512-1.93s-2.421-0.688-4.238-0.688c-1.783,0-3.178,0.229-4.186,0.688
		s-1.512,1.103-1.512,1.93c0,0.811,0.504,1.445,1.512,1.904s2.402,0.688,4.186,0.688c1.817,0,3.23-0.229,4.238-0.688
		S1235.111,153.979,1235.111,153.168z M1237.109,148.74h-2.052v-14.769h2.052V148.74z"/>
	<path fill="#F7F8F8" d="M1255.874,151.603c-1.872,0.252-4.554,0.477-8.046,0.675c-2.771,0.126-5.094,0.189-6.966,0.189l-0.297-1.81
		c2.844,0,4.563-0.009,5.157-0.026v-7.452h2.078v7.397c3.402-0.162,6.039-0.387,7.912-0.675L1255.874,151.603z M1254.092,136.455
		c0.036,1.818-0.031,3.79-0.202,5.913c-0.171,2.124-0.383,3.763-0.634,4.914l-1.972-0.27c0.252-1.152,0.45-2.583,0.595-4.293
		c0.143-1.71,0.188-3.222,0.135-4.536h-10.26v-1.729H1254.092z M1263.11,145.581h-3.834v11.988h-2.052v-23.598h2.052v9.854h3.834
		V145.581z"/>
	<path fill="#F7F8F8" d="M925.966,167.938c1.817,0,3.335,0.549,4.55,1.646c1.215,1.099,1.822,2.512,1.822,4.239
		c0,1.729-0.604,3.137-1.809,4.226c-1.207,1.089-2.719,1.634-4.536,1.634c-1.818,0-3.335-0.54-4.55-1.62s-1.822-2.484-1.822-4.212
		c0-1.729,0.607-3.146,1.822-4.253C922.658,168.491,924.166,167.938,925.966,167.938z M925.966,169.72
		c-1.26,0-2.304,0.387-3.132,1.16c-0.828,0.774-1.242,1.756-1.242,2.943c0,1.17,0.419,2.138,1.256,2.902
		c0.837,0.766,1.885,1.147,3.146,1.147c1.296,0,2.353-0.378,3.173-1.134c0.818-0.756,1.229-1.719,1.229-2.889
		c0-1.224-0.41-2.219-1.229-2.983C928.346,170.102,927.279,169.72,925.966,169.72z M938.98,189.187h-15.984v-7.29h2.052v5.589
		h13.933V189.187z M938.387,183.598h-2.053v-17.227h2.053V183.598z"/>
	<path fill="#F7F8F8" d="M963.576,179.331h-21.303v-1.701h8.775v-4.994h2.052v4.994h10.476V179.331z M959.148,182.383
		c1.458,0.756,2.188,1.8,2.188,3.132s-0.729,2.371-2.188,3.118s-3.547,1.12-6.264,1.12c-2.736,0-4.838-0.373-6.305-1.12
		s-2.201-1.786-2.201-3.118s0.738-2.376,2.215-3.132c1.476-0.757,3.572-1.135,6.291-1.135
		C955.602,181.248,957.69,181.626,959.148,182.383z M961.065,167.667v2.106c0,2.466-0.226,4.563-0.675,6.291l-2.025-0.271
		c0.324-1.134,0.514-2.637,0.567-4.509l0.026-1.917h-14.336v-1.701H961.065z M957.582,187.418c1.152-0.459,1.729-1.094,1.729-1.903
		c0-0.811-0.576-1.444-1.729-1.903c-1.152-0.46-2.718-0.689-4.697-0.689c-1.998,0-3.574,0.229-4.725,0.689
		c-1.152,0.459-1.729,1.093-1.729,1.903c0,0.81,0.571,1.444,1.715,1.903c1.143,0.459,2.723,0.688,4.738,0.688
		C954.864,188.106,956.43,187.877,957.582,187.418z"/>
	<path fill="#F7F8F8" d="M980.02,182.814l-1.27,1.539c-1.241-0.811-2.461-1.886-3.658-3.227s-1.984-2.659-2.362-3.956
		c-0.378,1.423-1.134,2.835-2.269,4.239c-1.133,1.404-2.412,2.565-3.834,3.483l-1.269-1.513c1.817-1.062,3.321-2.542,4.509-4.441
		c1.188-1.898,1.782-3.919,1.782-6.062v-2.43h-5.508v-1.701h13.149v1.701h-5.508v2.403c0,2.088,0.607,4.036,1.822,5.846
		C976.82,180.506,978.291,181.879,980.02,182.814z M982.746,166.371h2.053v23.599h-2.053V166.371z"/>
	<path fill="#F7F8F8" d="M1009.908,179.088h-21.303v-1.7h21.303V179.088z M1007.586,185.434c0,1.403-0.733,2.488-2.2,3.253
		c-1.468,0.766-3.497,1.147-6.089,1.147s-4.617-0.382-6.074-1.147c-1.459-0.765-2.188-1.85-2.188-3.253
		c0-1.386,0.725-2.462,2.174-3.227c1.448-0.765,3.469-1.147,6.061-1.147c2.593,0,4.627,0.383,6.103,1.147
		S1007.586,184.048,1007.586,185.434z M1007.451,174.822h-15.876v-7.83h2.052v6.129h13.824V174.822z M999.27,182.733
		c-1.908,0-3.41,0.226-4.508,0.675c-1.099,0.45-1.647,1.125-1.647,2.025s0.549,1.575,1.647,2.024c1.098,0.45,2.6,0.676,4.508,0.676
		c1.944,0,3.471-0.226,4.577-0.676c1.106-0.449,1.661-1.124,1.661-2.024s-0.555-1.575-1.661-2.025
		C1002.74,182.959,1001.214,182.733,999.27,182.733z"/>
	<path fill="#F7F8F8" d="M1031.021,168.883c-0.054,3.689-1.084,6.97-3.092,9.841c-2.007,2.871-4.612,5.063-7.816,6.575l-1.188-1.62
		c2.916-1.278,5.242-3.092,6.979-5.44c1.737-2.35,2.714-4.892,2.93-7.628h-9.046v-1.728H1031.021z M1037.961,189.97h-2.053v-23.599
		h2.053V189.97z"/>
	<path fill="#F7F8F8" d="M1053.729,179.926h-11.151v-11.962h2.052v4.051h7.021v-4.051h2.079V179.926z M1051.649,178.251v-4.563
		h-7.021v4.563H1051.649z M1060.91,189.159h-15.93v-7.263h2.052v5.562h13.878V189.159z M1063.584,175.119h-3.592v8.37h-2.052
		v-17.118h2.052v7.021h3.592V175.119z"/>
	<path fill="#F7F8F8" d="M1072.844,168.181h10.881c-0.162,3.078-1.247,5.625-3.254,7.641c-2.007,2.017-4.621,3.483-7.844,4.401
		l-0.944-1.701c2.43-0.504,4.59-1.553,6.479-3.146c1.891-1.593,2.971-3.416,3.24-5.468h-8.559V168.181z M1090.069,189.646h-14.823
		v-8.424h14.823V189.646z M1088.018,187.944v-5.022h-10.719v5.022H1088.018z M1093.66,174.282h-3.591v5.724h-2.052v-13.635h2.052
		v6.21h3.591V174.282z"/>
	<path fill="#F7F8F8" d="M1095.713,170.07v-1.728h12.771v1.728h-5.319c0,0.666,0.01,1.089,0.027,1.269
		c0.09,1.513,0.738,2.881,1.943,4.104c1.207,1.225,2.593,2.07,4.158,2.538l-1.215,1.646c-1.242-0.485-2.426-1.229-3.551-2.228
		s-1.93-2.028-2.416-3.091c-0.324,1.098-1.09,2.259-2.295,3.482c-1.206,1.225-2.448,2.115-3.727,2.674l-1.106-1.647
		c1.584-0.611,2.979-1.61,4.185-2.997c1.206-1.386,1.836-2.88,1.891-4.482c0.018-0.18,0.027-0.603,0.027-1.269H1095.713z
		 M1114.559,185.487c0,1.387-0.693,2.479-2.079,3.28s-3.339,1.202-5.858,1.202c-2.503,0-4.442-0.401-5.819-1.202
		s-2.065-1.894-2.065-3.28c0-1.404,0.688-2.506,2.065-3.308c1.377-0.801,3.316-1.201,5.819-1.201c2.52,0,4.473,0.4,5.858,1.201
		C1113.865,182.981,1114.559,184.083,1114.559,185.487z M1106.621,182.706c-1.818,0-3.24,0.243-4.267,0.729
		c-1.026,0.485-1.539,1.17-1.539,2.052c0,0.864,0.513,1.539,1.539,2.025c1.026,0.485,2.448,0.729,4.267,0.729
		c1.854,0,3.289-0.238,4.306-0.716c1.017-0.477,1.526-1.156,1.526-2.038s-0.51-1.566-1.526-2.052
		C1109.91,182.949,1108.475,182.706,1106.621,182.706z M1112.317,174.229h-4.752V172.5h4.752v-6.129h2.052v14.661h-2.052V174.229z"
		/>
	<path fill="#F7F8F8" d="M1129.895,185.028h-2.053v-4.536h-9.585v-1.701h21.304v1.701h-9.666V185.028z M1136.859,176.146h-15.93
		v-9.019h2.053v2.916h11.799v-2.916h2.078V176.146z M1137.184,189.213h-16.227v-6.398h2.052v4.698h14.175V189.213z
		 M1134.781,174.417v-2.673h-11.799v2.673H1134.781z"/>
	<path fill="#F7F8F8" d="M1155.004,177.279l-1.215,1.62c-1.188-0.576-2.295-1.354-3.321-2.336c-1.026-0.98-1.765-2.029-2.214-3.146
		c-0.684,2.341-2.609,4.393-5.777,6.156l-1.27-1.593c1.764-0.811,3.195-1.931,4.293-3.361c1.098-1.432,1.646-3.047,1.646-4.847
		v-2.295h2.08v2.214c0,1.746,0.589,3.313,1.768,4.698C1152.174,175.776,1153.51,176.739,1155.004,177.279z M1160.729,189.97h-2.053
		v-6.805h-13.662v-1.701h15.715V189.97z M1158.648,173.418h-4.806v-1.728h4.806v-5.319h2.053v13.852h-2.053V173.418z"/>
	<path fill="#F7F8F8" d="M1185.892,178.306h-21.304v-1.729h21.304V178.306z M1184.002,189.753h-16.93v-5.615h14.094v-2.079h-14.147
		v-1.647h16.2v5.292h-14.094v2.376h14.877V189.753z M1181.314,167.775c1.467,0.72,2.201,1.728,2.201,3.024
		c0,1.296-0.734,2.299-2.201,3.01c-1.467,0.712-3.487,1.066-6.061,1.066c-2.557,0-4.563-0.354-6.021-1.066
		c-1.458-0.711-2.188-1.714-2.188-3.01c0-1.297,0.729-2.305,2.188-3.024s3.465-1.08,6.021-1.08
		C1177.827,166.695,1179.848,167.056,1181.314,167.775z M1175.254,168.369c-1.854,0-3.335,0.221-4.441,0.662
		c-1.107,0.44-1.661,1.03-1.661,1.769c0,0.72,0.554,1.296,1.661,1.728c1.106,0.432,2.587,0.648,4.441,0.648
		c1.89,0,3.393-0.217,4.509-0.648s1.674-1.008,1.674-1.728c0-0.738-0.563-1.328-1.688-1.769
		C1178.624,168.59,1177.125,168.369,1175.254,168.369z"/>
	<path fill="#F7F8F8" d="M1195.449,176.47c0-2.521,0.535-4.536,1.606-6.049c1.071-1.512,2.561-2.268,4.468-2.268
		c1.927,0,3.426,0.756,4.496,2.268c1.07,1.513,1.606,3.537,1.606,6.075s-0.536,4.563-1.606,6.075s-2.569,2.268-4.496,2.268
		c-1.907,0-3.396-0.756-4.468-2.268S1195.449,179.025,1195.449,176.47z M1204.535,181.234c0.764-1.215,1.146-2.794,1.146-4.738
		c0-1.943-0.383-3.523-1.146-4.738c-0.766-1.215-1.77-1.822-3.012-1.822c-1.241,0-2.24,0.607-2.996,1.822s-1.135,2.795-1.135,4.738
		c0,1.944,0.379,3.523,1.135,4.738c0.756,1.216,1.755,1.823,2.996,1.823C1202.766,183.058,1203.77,182.45,1204.535,181.234z
		 M1214.079,189.97h-2.052v-23.599h2.052V189.97z"/>
	<path fill="#F7F8F8" d="M1236.731,171.339c0,1.62-1.035,2.826-3.104,3.618v3.349h5.508v1.7h-21.303v-1.7h5.427v-3.375
		c-1.998-0.774-2.997-1.972-2.997-3.592c0-1.367,0.729-2.452,2.188-3.253c1.457-0.801,3.465-1.201,6.021-1.201
		c2.573,0,4.595,0.4,6.062,1.201S1236.731,169.972,1236.731,171.339z M1234.666,182.585c1.485,0.729,2.228,1.76,2.228,3.092
		s-0.738,2.357-2.214,3.077c-1.477,0.72-3.528,1.08-6.156,1.08s-4.676-0.36-6.143-1.08s-2.2-1.745-2.2-3.077s0.733-2.363,2.2-3.092
		c1.467-0.729,3.506-1.094,6.115-1.094C1231.125,181.491,1233.182,181.855,1234.666,182.585z M1228.496,183.273
		c-1.926,0-3.451,0.207-4.576,0.621s-1.688,1.008-1.688,1.782c0,0.756,0.567,1.341,1.701,1.755c1.135,0.414,2.654,0.621,4.563,0.621
		c1.944,0,3.483-0.207,4.617-0.621c1.135-0.414,1.701-0.999,1.701-1.755c0-0.774-0.566-1.368-1.701-1.782
		C1231.979,183.48,1230.44,183.273,1228.496,183.273z M1234.734,171.339c0-0.863-0.568-1.548-1.701-2.052
		c-1.135-0.504-2.656-0.756-4.563-0.756c-1.908,0-3.421,0.252-4.536,0.756c-1.116,0.504-1.674,1.188-1.674,2.052
		c0,0.847,0.563,1.518,1.688,2.012c1.125,0.495,2.633,0.743,4.522,0.743c1.907,0,3.429-0.248,4.563-0.743
		C1234.166,172.856,1234.734,172.186,1234.734,171.339z M1228.47,175.74c-1.152,0-2.205-0.081-3.159-0.243v2.809h6.264v-2.781
		C1230.566,175.669,1229.531,175.74,1228.47,175.74z"/>
	<path fill="#F7F8F8" d="M1252.688,173.823h-11.745v-1.701h11.745V173.823z M1250.826,176.482c0.953,0.874,1.431,2.012,1.431,3.416
		s-0.478,2.538-1.431,3.402c-0.955,0.863-2.197,1.296-3.727,1.296c-1.512,0-2.75-0.446-3.713-1.337s-1.443-2.012-1.443-3.361
		c0-1.422,0.477-2.565,1.43-3.429c0.955-0.864,2.196-1.296,3.727-1.296C1248.629,175.174,1249.871,175.61,1250.826,176.482z
		 M1250.15,169.962h-6.453v-1.781h6.453V169.962z M1250.285,179.898c0-0.9-0.297-1.624-0.891-2.174
		c-0.594-0.549-1.359-0.823-2.295-0.823s-1.697,0.274-2.281,0.823c-0.586,0.55-0.877,1.273-0.877,2.174
		c0,0.918,0.291,1.646,0.877,2.187c0.584,0.54,1.346,0.811,2.281,0.811s1.701-0.279,2.295-0.837S1250.285,180.78,1250.285,179.898z
		 M1260.896,189.97h-2.025v-12.231h-2.834v11.043h-1.998v-21.843h1.998v9.072h2.834v-9.64h2.025V189.97z"/>
	<path fill="#F7F8F8" d="M924.292,209.896h-11.366v-10.422h3.104v3.023h5.103v-3.078h3.159V209.896z M931.799,222.423h-16.39v-6.372
		h12.501v-1.538h-12.689v-2.512h15.902v6.372h-12.582v1.512h13.258V222.423z M921.133,207.438v-2.457h-5.103v2.457H921.133z
		 M934.498,206.088h-3.375v4.671h-3.213v-12.203h3.213v4.94h3.375V206.088z"/>
	<path fill="#F7F8F8" d="M957.205,219.588H935.47v-2.483h5.319v-4.645h3.158v4.645h4.698v-4.645h3.132v4.645h5.428V219.588z
		 M955.152,202.849h-17.738v-2.512h17.738V202.849z M955.099,211.326h-17.631v-2.511h3.321l-0.459-4.536l3.158-0.324l0.271,4.86
		h5.237l0.648-4.807l3.051,0.459l-0.756,4.348h3.159V211.326z"/>
	<path fill="#F7F8F8" d="M967.396,210.624c-1.16-1.115-1.741-2.556-1.741-4.319c0-1.765,0.581-3.204,1.741-4.32
		c1.161-1.116,2.695-1.674,4.604-1.674c1.891,0,3.416,0.558,4.576,1.674c1.162,1.116,1.742,2.556,1.742,4.32
		c0,1.764-0.58,3.204-1.742,4.319c-1.16,1.116-2.686,1.674-4.576,1.674C970.092,212.298,968.558,211.74,967.396,210.624z
		 M968.868,206.277c0,0.99,0.284,1.8,0.851,2.43c0.566,0.631,1.327,0.945,2.281,0.945c0.936,0,1.688-0.314,2.255-0.945
		c0.567-0.63,0.851-1.439,0.851-2.43c0-0.936-0.283-1.719-0.851-2.349s-1.319-0.945-2.255-0.945c-0.954,0-1.715,0.315-2.281,0.945
		S968.868,205.342,968.868,206.277z M985.959,221.964h-16.632v-7.587h3.214v5.104h13.418V221.964z M978.832,210.246l0.08-2.673
		h3.375v-3.294h-3.375l-0.054-2.673h3.429v-3.051h3.159v17.441h-3.159v-5.751H978.832z"/>
	<path fill="#F7F8F8" d="M1010.447,211.813h-21.734v-2.512h21.734V211.813z M999.594,202.956c-0.576,1.332-1.684,2.443-3.32,3.335
		c-1.639,0.891-3.402,1.462-5.293,1.714l-1.322-2.457c1.404-0.144,2.717-0.459,3.941-0.944c1.225-0.486,2.259-1.179,3.105-2.079
		c0.846-0.9,1.269-1.926,1.269-3.078v-0.648h3.267v0.648c0,1.134,0.464,2.174,1.391,3.118c0.928,0.945,2.016,1.665,3.268,2.16
		c1.251,0.495,2.479,0.77,3.686,0.823l-1.35,2.484c-1.135-0.162-2.269-0.454-3.402-0.878c-1.135-0.422-2.196-1.008-3.186-1.755
		C1000.656,204.653,999.972,203.839,999.594,202.956z M1007.667,222.315h-16.173v-9.207h3.132v2.295h9.909v-2.349h3.132V222.315z
		 M1004.535,219.805v-2.025h-9.909v2.025H1004.535z"/>
	<path fill="#F7F8F8" d="M1024.244,199.581c0,1.639-0.31,3.142-0.931,4.509c-0.621,1.368-1.454,2.516-2.497,3.443
		c-1.045,0.927-2.188,1.696-3.43,2.308c-1.242,0.612-2.564,1.063-3.969,1.351l-1.539-2.565c2.214-0.306,4.14-1.034,5.777-2.187
		c1.639-1.152,2.664-2.565,3.078-4.239h-7.694v-2.619H1024.244z M1032.507,222.45h-16.551v-6.479h12.663v-1.675h-12.799v-2.511
		h15.931v6.48h-12.608v1.646h13.364V222.45z M1031.751,210.598h-3.132v-2.053h-4.51v-2.376h4.51v-2.024h-4.077v-2.376h4.077v-3.213
		h3.132V210.598z"/>
	<path fill="#F7F8F8" d="M1049.786,216.97c-2.088,0.27-4.95,0.513-8.586,0.729c-2.483,0.108-4.59,0.162-6.317,0.162l-0.405-2.565
		c2.214,0,3.86-0.009,4.94-0.026v-6.777h3.024v6.642c3.096-0.161,5.463-0.351,7.101-0.566L1049.786,216.97z M1048.68,201.174
		c0,4.591-0.271,8.092-0.811,10.504l-3.023-0.324c0.414-1.926,0.621-4.473,0.621-7.642h-9.478v-2.538H1048.68z M1057.266,211.002
		h-3.186v11.61h-3.133v-24.057h3.133v9.854h3.186V211.002z"/>
	<path fill="#F7F8F8" d="M1077.785,217.348h-3.16v-3.942h-9.504v-2.484h21.735v2.484h-9.071V217.348z M1084.076,209.085h-16.174
		v-9.558h3.159v2.484h9.882V199.5h3.133V209.085z M1084.318,221.964h-16.416v-6.75h3.159v4.267h13.257V221.964z M1080.943,206.574
		v-2.106h-9.882v2.106H1080.943z"/>
	<path fill="#F7F8F8" d="M1102.705,209.085l-1.836,2.484c-0.99-0.378-2.002-1.021-3.037-1.931c-1.035-0.908-1.805-1.895-2.309-2.956
		c-0.342,1.188-1.066,2.304-2.174,3.348c-1.106,1.044-2.254,1.765-3.441,2.16l-1.863-2.511c1.781-0.648,3.194-1.656,4.238-3.024
		s1.566-2.943,1.566-4.725v-2.376h3.268v2.214c0,1.764,0.549,3.303,1.646,4.616C1099.861,207.699,1101.176,208.6,1102.705,209.085z
		 M1091.906,213.756h16.307v8.884h-3.186v-6.372h-13.121V213.756z M1108.187,212.541h-3.159v-6.398h-4.104v-2.538h4.104v-5.049
		h3.159V212.541z"/>
	<path fill="#F7F8F8" d="M1118.717,201.066c0.018,3.744-0.424,6.871-1.324,9.383c-0.9,2.511-2.33,4.811-4.293,6.898l-2.322-1.782
		c1.639-1.53,2.881-3.339,3.727-5.427s1.26-4.239,1.242-6.453h-3.482v-2.619H1118.717z M1125.385,201.066
		c0.018,4.194-0.359,7.578-1.134,10.151c-0.774,2.575-2.205,5.104-4.293,7.588l-2.457-1.756c3.276-3.438,4.914-7.893,4.914-13.364
		h-2.619v-2.619H1125.385z M1130.38,198.556v9.558h3.429v2.619h-3.429v11.88h-3.051v-24.057H1130.38z"/>
	<path fill="#F7F8F8" d="M1149.658,214.432l-1.755,2.457c-1.116-0.559-2.272-1.494-3.47-2.809c-1.197-1.313-1.976-2.528-2.336-3.645
		c-0.287,1.26-0.984,2.578-2.092,3.955s-2.346,2.398-3.713,3.064l-1.89-2.349c4.014-2.142,6.021-5.787,6.021-10.936v-0.647h-4.806
		v-2.511h12.771v2.511h-4.644v0.621C1143.745,208.969,1145.717,212.397,1149.658,214.432z M1154.518,222.612h-3.158v-24.057h3.158
		V222.612z"/>
	<path fill="#F7F8F8" d="M1164.67,206.817v-2.511h11.475v2.511H1164.67z M1174.254,209.071c0.973,0.909,1.459,2.12,1.459,3.632
		s-0.486,2.723-1.459,3.632c-0.972,0.909-2.24,1.363-3.807,1.363c-1.549,0-2.813-0.473-3.793-1.418
		c-0.982-0.944-1.473-2.137-1.473-3.577c0-1.512,0.49-2.723,1.473-3.632c0.98-0.908,2.244-1.363,3.793-1.363
		C1172.014,207.708,1173.282,208.163,1174.254,209.071z M1167.288,202.93v-2.512h6.479v2.512H1167.288z M1172.877,212.703
		c0-0.737-0.229-1.341-0.688-1.809c-0.46-0.468-1.04-0.702-1.742-0.702s-1.278,0.234-1.729,0.702
		c-0.449,0.468-0.674,1.071-0.674,1.809c0,0.756,0.225,1.363,0.674,1.822c0.45,0.459,1.026,0.688,1.729,0.688
		s1.282-0.238,1.742-0.715C1172.648,214.022,1172.877,213.424,1172.877,212.703z M1185.162,222.612h-2.997v-11.799h-1.998v10.691
		h-2.942v-22.518h2.942v9.288h1.998v-9.72h2.997V222.612z"/>
	<path fill="#F7F8F8" d="M1200.256,222.585h-3.187v-8.37h-9.207v-2.511h21.735v2.511h-9.342V222.585z M1190.211,209.949
		l-1.377-2.457c1.908-0.198,3.682-0.806,5.319-1.822s2.583-2.21,2.835-3.578h-7.182v-2.511h17.82v2.511h-7.183
		c0.18,0.918,0.702,1.769,1.565,2.552c0.864,0.783,1.877,1.404,3.038,1.863s2.353,0.752,3.577,0.877
		c-0.162,0.324-0.4,0.774-0.715,1.351c-0.315,0.576-0.518,0.945-0.607,1.106c-1.603-0.18-3.271-0.751-5.009-1.714
		s-2.93-2.002-3.577-3.119c-0.613,1.188-1.756,2.255-3.43,3.2C1193.613,209.152,1191.921,209.733,1190.211,209.949z"/>
	<path fill="#F7F8F8" d="M1225.311,212.974l0.405,2.538c-1.333,0.342-3.104,0.607-5.319,0.796c-2.214,0.189-4.158,0.283-5.832,0.283
		h-2.214v-15.633h3.132v12.934C1219.461,213.892,1222.736,213.585,1225.311,212.974z M1230.873,198.556v24.057h-3.105v-24.057
		H1230.873z"/>
	<path fill="#F7F8F8" d="M1241.457,201.066c0.018,3.744-0.424,6.871-1.323,9.383c-0.9,2.511-2.331,4.811-4.293,6.898l-2.322-1.782
		c1.638-1.53,2.88-3.339,3.726-5.427c0.847-2.088,1.26-4.239,1.242-6.453h-3.482v-2.619H1241.457z M1248.126,201.066
		c0.018,4.194-0.36,7.578-1.134,10.151c-0.774,2.575-2.205,5.104-4.293,7.588l-2.457-1.756c3.275-3.438,4.914-7.893,4.914-13.364
		h-2.619v-2.619H1248.126z M1253.121,198.556v9.558h3.429v2.619h-3.429v11.88h-3.051v-24.057H1253.121z"/>
	<path fill="#F7F8F8" d="M1257.332,223.018l1.08-5.454h3.402l-1.944,5.454H1257.332z"/>
	<path fill="#21A564" stroke="#172A88" stroke-miterlimit="10" d="M1100.834,247.164h-7.471c0.09,4.32,0.907,7.853,2.453,10.598
		c1.545,2.745,3.877,4.898,6.997,6.458l-3.825,5.535c-1.65-0.84-3.436-2.266-5.355-4.275s-3.18-3.899-3.779-5.67
		c-0.51,1.979-1.673,4.035-3.487,6.165c-1.815,2.13-3.667,3.66-5.558,4.59l-4.051-5.31c3.421-1.92,5.836-4.275,7.246-7.065
		c1.409-2.79,2.16-6.465,2.25-11.025h-7.83v-5.715h22.41V247.164z M1114.918,258.369h-4.994v19.846h-6.975v-40.501h6.975v14.94
		h4.994V258.369z"/>
	<path fill="#21A564" stroke="#172A88" stroke-miterlimit="10" d="M1141.378,255.895l-3.735,5.76
		c-1.59-0.51-3.248-1.508-4.973-2.992c-1.725-1.485-2.902-3.022-3.532-4.613c-0.569,1.74-1.808,3.45-3.712,5.131
		c-1.906,1.68-3.893,2.896-5.963,3.645l-3.6-5.625c3.06-0.93,5.438-2.572,7.133-4.928c1.693-2.354,2.542-5.002,2.542-7.942v-4.455
		h7.065v4.141c0,3,0.802,5.52,2.406,7.56C1136.615,253.614,1138.738,255.055,1141.378,255.895z M1151.008,277.359h-29.16v-13.14
		h7.065v7.649h22.095V277.359z M1150.423,266.694h-7.11v-28.98h7.11V266.694z"/>
	<path fill="#21A564" stroke="#172A88" stroke-miterlimit="10" d="M1156.408,239.874h19.574c-0.18,11.041-6.495,18.24-18.945,21.601
		c-0.33-0.75-0.816-1.755-1.462-3.016c-0.646-1.26-1.073-2.1-1.282-2.52c3.51-0.69,6.584-1.995,9.225-3.915
		c2.64-1.92,4.154-4.05,4.545-6.391h-11.654V239.874z M1187.098,277.854h-26.865v-16.11h26.865V277.854z M1180.123,272.454v-5.489
		h-12.825v5.489H1180.123z M1192.138,251.935h-5.04v8.055h-7.02v-22.275h7.02v8.506h5.04V251.935z"/>
	<path fill="#21A564" stroke="#172A88" stroke-miterlimit="10" d="M1219.767,273.085c-8.761,0-13.14-3.765-13.14-11.296v-19.395
		h8.505v19.08c0,1.92,0.397,3.308,1.192,4.162c0.795,0.855,2.032,1.283,3.713,1.283c1.68,0,2.887-0.428,3.622-1.283
		c0.735-0.854,1.103-2.257,1.103-4.207v-19.035h7.561v19.35c0,3.78-1.028,6.615-3.083,8.505
		C1227.184,272.14,1224.026,273.085,1219.767,273.085z"/>
	<path fill="#21A564" stroke="#172A88" stroke-miterlimit="10" d="M1237.541,272.59v-30.24h12.555c3.99,0,6.982,0.84,8.979,2.52
		c1.994,1.681,2.992,4.125,2.992,7.335c0,3.391-1.006,5.963-3.016,7.718s-4.92,2.633-8.729,2.633h-4.32v10.035H1237.541z
		 M1246.001,257.109h3.104c1.531,0,2.611-0.353,3.24-1.058c0.631-0.704,0.945-1.837,0.945-3.397c0-1.649-0.314-2.813-0.945-3.487
		c-0.629-0.675-1.65-1.013-3.06-1.013h-3.285V257.109z"/>
</g>
<g>
	<defs>
		<circle id="SVGID_5_" cx="917.597" cy="310.13" r="64.983"/>
	</defs>
	<clipPath id="SVGID_6_">
		<use xlink:href="#SVGID_5_"  overflow="visible"/>
	</clipPath>
	
		<line clip-path="url(#SVGID_6_)" fill="none" stroke="#DAE000" stroke-width="3" stroke-miterlimit="10" x1="702.184" y1="150.859" x2="1139.82" y2="453.5"/>
	
		<line clip-path="url(#SVGID_6_)" fill="none" stroke="#DAE000" stroke-width="3" stroke-miterlimit="10" x1="693.602" y1="161.665" x2="1131.238" y2="464.305"/>
	
		<line clip-path="url(#SVGID_6_)" fill="none" stroke="#DAE000" stroke-width="3" stroke-miterlimit="10" x1="687.343" y1="173.802" x2="1124.979" y2="476.443"/>
	
		<line clip-path="url(#SVGID_6_)" fill="none" stroke="#DAE000" stroke-width="3" stroke-miterlimit="10" x1="678.021" y1="185.676" x2="1115.657" y2="488.317"/>
	
		<line clip-path="url(#SVGID_6_)" fill="none" stroke="#DAE000" stroke-width="3" stroke-miterlimit="10" x1="671.506" y1="196.766" x2="1109.142" y2="499.407"/>
	
		<line clip-path="url(#SVGID_6_)" fill="none" stroke="#DAE000" stroke-width="3" stroke-miterlimit="10" x1="662.923" y1="207.571" x2="1100.559" y2="510.212"/>
	
		<line clip-path="url(#SVGID_6_)" fill="none" stroke="#F8B62D" stroke-width="3" stroke-miterlimit="10" x1="656.665" y1="219.709" x2="1094.301" y2="522.35"/>
	
		<line clip-path="url(#SVGID_6_)" fill="none" stroke="#F8B62D" stroke-width="3" stroke-miterlimit="10" x1="647.343" y1="231.583" x2="1084.979" y2="534.224"/>
	
		<line clip-path="url(#SVGID_6_)" fill="none" stroke="#F8B62D" stroke-width="3" stroke-miterlimit="10" x1="749.049" y1="80.65" x2="1186.685" y2="383.291"/>
	
		<line clip-path="url(#SVGID_6_)" fill="none" stroke="#F8B62D" stroke-width="3" stroke-miterlimit="10" x1="739.727" y1="92.524" x2="1177.363" y2="395.165"/>
	
		<line clip-path="url(#SVGID_6_)" fill="none" stroke="#DAE000" stroke-width="3" stroke-miterlimit="10" x1="733.212" y1="103.614" x2="1170.848" y2="406.254"/>
	
		<line clip-path="url(#SVGID_6_)" fill="none" stroke="#DAE000" stroke-width="3" stroke-miterlimit="10" x1="724.629" y1="114.419" x2="1162.265" y2="417.06"/>
	
		<line clip-path="url(#SVGID_6_)" fill="none" stroke="#DAE000" stroke-width="3" stroke-miterlimit="10" x1="718.371" y1="126.557" x2="1156.007" y2="429.197"/>
	
		<line clip-path="url(#SVGID_6_)" fill="none" stroke="#DAE000" stroke-width="3" stroke-miterlimit="10" x1="709.049" y1="138.431" x2="1146.685" y2="441.072"/>
</g>
<path fill="#F8B62D" d="M1240.138,385.174c0,6.627-5.373,12-12,12H952.862c-6.627,0-12-5.373-12-12v-30.348c0-6.627,5.373-12,12-12
	h275.275c6.627,0,12,5.373,12,12V385.174z"/>
<g>
	<path d="M1053.011,369.476h-10.232v-10.26h0.675v3.996h8.855v-3.996h0.702V369.476z M1052.309,368.72v-4.779h-8.855v4.779H1052.309
		z M1060.193,381.599h-15.175v-5.346h13.474v-3.402h-13.662v-0.729h14.337v4.86h-13.446v3.888h14.473V381.599z M1063.028,364.777
		h-3.861v6.048h-0.675v-12.446h0.675v5.696h3.861V364.777z"/>
	<path d="M1085.816,378.493h-21.114v-0.675h6.21v-5.697h0.729v5.697h7.264v-5.697h0.729v5.697h6.184V378.493z M1066.781,370.016
		h4.212l-0.702-6.588l0.81-0.162l0.648,6.75h6.966l0.999-6.75l0.837,0.162l-1.106,6.588h4.185v0.702h-16.848V370.016z
		 M1083.629,361.618h-16.794v-0.675h16.794V361.618z"/>
	<path d="M1116.379,378.655h-21.303v-1.728h8.343v-6.237h2.052v6.237h10.908V378.655z M1097.56,360.755h16.146v2.511
		c0,4.374-0.315,7.956-0.945,10.746l-1.998-0.216c0.271-1.098,0.495-2.952,0.676-5.563l-14.202,0.729l-0.324-1.81l14.634-0.54
		c0.036-1.115,0.054-1.881,0.054-2.295v-1.863h-14.04V360.755z"/>
	<path d="M1132.822,370.231l-1.08,1.674c-1.152-0.342-2.3-0.94-3.442-1.795c-1.144-0.855-1.984-1.805-2.524-2.849
		c-0.378,1.063-1.152,2.093-2.322,3.091c-1.17,0.999-2.439,1.742-3.807,2.228l-1.135-1.619c1.603-0.486,3.015-1.328,4.239-2.525
		c1.224-1.196,1.881-2.497,1.971-3.901h-5.373v-1.7h12.88v1.7h-5.4c0.09,1.351,0.729,2.552,1.917,3.604
		C1129.933,369.192,1131.292,369.89,1132.822,370.231z M1135.819,374.295c1.386,0.766,2.079,1.822,2.079,3.173
		c0,1.35-0.693,2.407-2.079,3.172c-1.387,0.766-3.34,1.147-5.859,1.147c-2.502,0-4.441-0.382-5.818-1.147
		c-1.377-0.765-2.065-1.822-2.065-3.172c0-1.351,0.688-2.407,2.065-3.173c1.377-0.765,3.316-1.147,5.818-1.147
		C1132.479,373.147,1134.433,373.53,1135.819,374.295z M1128.988,360.809h-6.426v-1.729h6.426V360.809z M1135.711,377.468
		c0-0.828-0.504-1.472-1.512-1.931c-1.009-0.459-2.421-0.688-4.239-0.688c-1.782,0-3.177,0.229-4.185,0.688
		c-1.009,0.459-1.513,1.103-1.513,1.931c0,0.81,0.504,1.444,1.513,1.903c1.008,0.459,2.402,0.688,4.185,0.688
		c1.818,0,3.23-0.229,4.239-0.688C1135.207,378.912,1135.711,378.277,1135.711,377.468z M1137.709,373.039h-2.052v-14.769h2.052
		V373.039z"/>
</g>
<g>
	<path fill="#696167" d="M1000.246,296.564c4.083-0.001,8.166-0.001,12.249-0.002c1.868,0.001,3.736,0.002,5.603,0.003
		c4.087,0,8.174,0.001,12.26,0.001c1.867,0,3.733,0,5.6,0c4.096,0,8.191,0,12.287,0.001c0.607,0.015,1.216,0.013,1.822,0.049
		c1.044,0.06,1.75,0.743,1.748,1.661c-0.002,0.912-0.706,1.619-1.763,1.629c-4.221,0.039-8.443,0.047-12.664,0.058
		c-3.148,0.008-6.295,0.005-9.443,0.006c-8.3,0.003-16.6,0.01-24.9,0.007c-1.753-0.001-3.505-0.032-5.258-0.061
		c-1.287-0.021-2.062-0.68-2.027-1.696c0.034-0.986,0.784-1.586,2.017-1.611C998.602,296.593,999.424,296.579,1000.246,296.564z"/>
	<g>
		<path fill="#A4CC47" d="M1035.959,296.565c0-11.059,0-22.118,0.001-33.177c0-2.082,0.448-2.537,2.503-2.54
			c2.362-0.003,4.724-0.002,7.086-0.001c2.342,0.001,2.696,0.348,2.696,2.649c0.001,11.023,0,22.046,0.001,33.069
			C1044.15,296.566,1040.055,296.566,1035.959,296.565z"/>
		<path fill="#EAD54B" d="M1018.099,296.565c0-8.119,0-16.238,0.001-24.357c0-1.966,0.487-2.445,2.486-2.447
			c2.468-0.003,4.936-0.004,7.404,0.001c1.855,0.003,2.368,0.508,2.369,2.34c0.002,8.155,0.001,16.309,0.001,24.464
			C1026.272,296.566,1022.185,296.565,1018.099,296.565z"/>
		<path fill="#91D1F0" d="M1031.633,257.273c-3.292,0-6.583,0.022-9.874-0.015c-0.82-0.009-1.411,0.251-1.98,0.832
			c-2.328,2.377-4.673,4.738-7.061,7.054c-0.705,0.684-0.875,1.272-0.556,2.249c1.082,3.318-0.804,6.762-4.101,7.707
			c-3.332,0.955-6.713-0.923-7.603-4.318c-0.586-2.236-0.097-4.287,1.603-5.912c1.702-1.626,3.751-2.268,6.024-1.484
			c1.018,0.351,1.613,0.141,2.324-0.593c2.563-2.647,5.209-5.214,7.791-7.842c0.756-0.77,1.594-1.1,2.673-1.096
			c6.869,0.027,13.738,0.012,20.607,0.015c1.596,0.001,2.525,0.627,2.536,1.689c0.011,1.068-0.92,1.71-2.509,1.712
			C1038.215,257.275,1034.924,257.273,1031.633,257.273z"/>
		<path fill="#D97764" d="M1000.246,296.564c-0.001-5.185-0.004-10.37-0.002-15.555c0.001-1.795,0.477-2.259,2.303-2.261
			c2.61-0.003,5.221-0.006,7.831,0.002c1.553,0.004,2.113,0.567,2.115,2.15c0.007,5.221,0.002,10.441,0.002,15.662
			C1008.412,296.563,1004.329,296.564,1000.246,296.564z"/>
		<g>
			
				<line fill="none" stroke="#F8B62D" stroke-width="3" stroke-miterlimit="10" x1="1037.507" y1="240.259" x2="1037.663" y2="239.637"/>
			<path fill="#C0845B" d="M991.016,314.656c-12.345-0.008-24.691-0.007-37.036-0.034c-1.486-0.003-3.047,0.357-4.4-0.634
				c0-2.506,0-5.012,0-7.518c0.256-0.057,0.315-0.329,0.497-0.479c0.915-0.754,1.978-0.179,2.939-0.415c0.5,0.015,1,0.043,1.5,0.043
				c33.302,0.002,66.603,0.002,99.905,0.003c0.5,0,1,0.024,1.5,0.037c-0.006,2.981-0.011,5.962-0.017,8.943
				c-6.083,0.01-12.166,0.021-18.249,0.03c-6.513,0.009-13.025,0.016-19.538,0.024c-5.82-0.018-11.64-0.045-17.461-0.05
				C997.443,314.604,994.229,314.638,991.016,314.656z"/>
			<path fill="#C0845B" d="M949.581,239.027c0-1.752,0.019-3.505-0.013-5.257c-0.008-0.449,0.073-0.637,0.545-0.548
				c0.173,0.033,0.357,0.005,0.535,0.005c35.228,0,70.455,0,105.683,0c0.006,1.36,0.027,2.72,0.013,4.08
				c-0.014,1.329-0.402,1.693-1.757,1.717c-0.394,0.007-0.787,0.002-1.181,0.002C1018.797,239.026,984.189,239.026,949.581,239.027z
				"/>
			<path fill="#AD6D3F" d="M949.581,239.027c34.608,0,69.216-0.001,103.825-0.001c0.394,0,0.787,0.005,1.181-0.002
				c1.355-0.023,1.743-0.388,1.757-1.717c0.014-1.36-0.007-2.72-0.013-4.08c0.895,0,1.792,0.034,2.684-0.014
				c0.465-0.025,0.557,0.089,0.552,0.551c-0.029,2.613-0.014,5.226-0.014,7.84c-1.044,0.73-2.24,0.691-3.431,0.677
				c-1.147-0.003-2.294-0.007-3.441-0.01c-0.321-0.013-0.642-0.038-0.963-0.038c-32.545-0.002-65.091-0.002-97.636,0
				c-0.356,0-0.713,0.03-1.069,0.046c-1.191,0.016-2.387,0.054-3.432-0.676C949.581,240.745,949.581,239.886,949.581,239.027z"/>
			<path fill="#AC6C3D" d="M983.517,343.2c-0.999-0.734-1.099-1.707-0.746-2.802c1.236-3.832,2.48-7.661,3.705-11.497
				c1.032-3.232,2.042-6.471,3.067-9.706c0.053-0.166,0.151-0.318,0.229-0.476c3.064-0.001,6.128-0.002,9.192-0.003
				c-0.633,1.871-1.278,3.737-1.895,5.613c-2.073,6.294-3.744,12.721-6.249,18.872C988.386,343.2,985.952,343.2,983.517,343.2z"/>
			<path fill="#AC6C3D" d="M1019.36,318.719c1.076,3.286,2.164,6.569,3.226,9.86c1.268,3.93,2.516,7.865,3.764,11.801
				c0.344,1.084,0.29,2.082-0.734,2.819c-2.434,0-4.869,0-7.303,0c-0.586-1.025-0.937-2.136-1.291-3.259
				c-1.988-6.299-4.016-12.585-6.032-18.875c-0.248-0.775-0.61-1.518-0.66-2.348C1013.341,318.718,1016.35,318.719,1019.36,318.719z
				"/>
			<path fill="#AC6C3D" d="M1008.433,343.2c-2.577,0-5.155,0-7.732,0c0.062-0.635-0.684-0.846-0.678-1.565
				c0.064-7.638,0.053-15.277,0.062-22.915c2.988,0,5.976,0,8.964,0c0.01,6.889,0.022,13.778,0.026,20.667
				C1009.076,340.691,1009.304,342.04,1008.433,343.2z"/>
			<path fill="#AD6D3F" d="M1056.121,305.577c1.163,0.13,2.427-0.251,3.432,0.678c0,2.577,0,5.155,0,7.732
				c-1.108,0.851-2.386,0.685-3.649,0.614c0.006-2.981,0.011-5.962,0.017-8.943C1055.987,305.632,1056.054,305.605,1056.121,305.577
				z"/>
			<path fill="#955E33" d="M1000.085,318.72c0-0.952,0-1.905,0-2.857c-0.604,0.885-0.917,1.849-1.121,2.853
				c-3.064,0.001-6.128,0.002-9.192,0.003c0.415-1.354,0.829-2.708,1.244-4.062c3.213-0.018,6.427-0.052,9.64-0.049
				c5.82,0.005,11.64,0.032,17.461,0.05c0.414,1.354,0.829,2.709,1.243,4.063c-3.01-0.001-6.019-0.001-9.029-0.002
				c-0.368-0.97-0.736-1.941-1.104-2.911c-0.059,0.012-0.119,0.023-0.178,0.035c0,0.959,0,1.919,0,2.878
				C1006.061,318.72,1003.073,318.72,1000.085,318.72z"/>
			<path fill="#D1ECF7" d="M1056.121,305.577c-0.067,0.027-0.134,0.055-0.201,0.082c-0.5-0.013-1-0.037-1.5-0.037
				c-33.302-0.002-66.603-0.001-99.905-0.003c-0.5,0-1-0.028-1.5-0.043c0.012-1.063,0.024-2.126,0.037-3.19
				c31.784,0,63.568,0,95.352,0c0.751,0,1.498,0.002,2.241-0.17c1.248-0.289,1.791-0.81,1.976-2.072
				c0.072-0.492,0.055-0.999,0.055-1.5c0.003-18.791,0.003-37.583,0.004-56.374c1.147,0.003,2.294,0.007,3.441,0.01
				C1056.122,263.38,1056.122,284.479,1056.121,305.577z"/>
			<path fill="#E3F3FB" d="M1052.681,242.271c-0.001,18.791-0.001,37.583-0.004,56.374c0,0.5,0.017,1.008-0.055,1.5
				c-0.185,1.263-0.728,1.783-1.976,2.072c-0.743,0.172-1.49,0.17-2.241,0.17c-31.784,0-63.568,0-95.352,0
				c-0.012-0.428-0.034-0.857-0.034-1.285c-0.003-19.607-0.004-39.214-0.006-58.821c0.356-0.016,0.713-0.046,1.069-0.046
				c32.545-0.002,65.091-0.002,97.636,0C1052.039,242.234,1052.36,242.258,1052.681,242.271z M1000.246,296.564
				c-0.822,0.015-1.644,0.029-2.466,0.045c-1.233,0.025-1.983,0.625-2.017,1.611c-0.035,1.016,0.739,1.674,2.027,1.696
				c1.752,0.029,3.505,0.06,5.258,0.061c8.3,0.003,16.6-0.003,24.9-0.007c3.148-0.001,6.295,0.002,9.443-0.006
				c4.221-0.011,8.443-0.019,12.664-0.058c1.057-0.01,1.76-0.717,1.763-1.629c0.002-0.919-0.703-1.601-1.748-1.661
				c-0.606-0.035-1.215-0.034-1.822-0.049c0-11.023,0-22.046-0.001-33.069c0-2.301-0.355-2.648-2.696-2.649
				c-2.362-0.001-4.724-0.003-7.086,0.001c-2.055,0.003-2.502,0.458-2.503,2.54c-0.001,11.059-0.001,22.118-0.001,33.177
				c-1.867,0-3.734,0-5.6,0c0-8.155,0.001-16.309-0.001-24.464c0-1.832-0.513-2.337-2.369-2.34
				c-2.468-0.004-4.936-0.003-7.404-0.001c-1.999,0.002-2.485,0.481-2.486,2.447c-0.001,8.119-0.001,16.238-0.001,24.357
				c-1.868-0.001-3.736-0.002-5.603-0.003c0-5.221,0.005-10.441-0.002-15.662c-0.002-1.583-0.562-2.146-2.115-2.15
				c-2.61-0.007-5.221-0.004-7.831-0.002c-1.826,0.002-2.302,0.465-2.303,2.261C1000.242,286.194,1000.245,291.379,1000.246,296.564
				z M976.416,248.059c-0.641,0.01-1.297-0.068-1.92,0.043c-5.806,1.035-9.713,4.321-11.421,9.992
				c-1.58,5.247,0.275,11.09,4.581,14.451c4.696,3.666,9.825,4.222,15.165,1.556c4.67-2.332,7.775-7.663,7.352-12.274
				C990.677,254.635,983.664,247.617,976.416,248.059z M1031.633,257.273c3.291,0,6.583,0.003,9.874-0.001
				c1.589-0.002,2.52-0.644,2.509-1.712c-0.011-1.062-0.941-1.689-2.536-1.689c-6.869-0.003-13.738,0.012-20.607-0.015
				c-1.079-0.004-1.917,0.326-2.673,1.096c-2.582,2.629-5.228,5.196-7.791,7.842c-0.711,0.735-1.307,0.944-2.324,0.593
				c-2.273-0.784-4.322-0.142-6.024,1.484c-1.7,1.624-2.189,3.676-1.603,5.912c0.89,3.396,4.27,5.273,7.603,4.318
				c3.297-0.945,5.183-4.389,4.101-7.707c-0.318-0.977-0.148-1.565,0.556-2.249c2.388-2.316,4.733-4.677,7.061-7.054
				c0.569-0.581,1.16-0.841,1.98-0.832C1025.05,257.295,1028.341,257.273,1031.633,257.273z M973.744,296.609
				c-3.467,0-6.934,0-10.401,0.001c-0.321,0-0.648-0.021-0.963,0.025c-0.914,0.132-1.493,0.807-1.452,1.692
				c0.044,0.923,0.564,1.432,1.461,1.559c0.281,0.04,0.57,0.031,0.856,0.031c6.97,0.001,13.94,0.002,20.909-0.002
				c0.391,0,0.794,0,1.171-0.086c0.699-0.16,1.103-0.651,1.191-1.352c0.094-0.751-0.226-1.317-0.9-1.673
				c-0.396-0.209-0.827-0.196-1.257-0.195C980.821,296.61,977.283,296.609,973.744,296.609z M973.664,286.509
				c3.502,0,7.004,0.001,10.507,0c1.592-0.001,2.373-0.555,2.361-1.669c-0.012-1.076-0.768-1.608-2.299-1.611
				c-1.858-0.003-3.717-0.001-5.575-0.001c-5.253,0-10.507,0.007-15.76-0.006c-0.96-0.002-1.709,0.276-1.939,1.291
				c-0.258,1.139,0.539,1.986,1.876,1.991C966.446,286.518,970.055,286.509,973.664,286.509z M973.855,289.918
				c-3.645,0-7.29-0.005-10.935,0.003c-1.274,0.003-1.967,0.572-1.994,1.59c-0.029,1.073,0.671,1.684,1.997,1.685
				c7.183,0.007,14.366,0.006,21.549,0c1.325-0.001,2.064-0.602,2.061-1.634c-0.003-1.033-0.751-1.64-2.064-1.642
				C980.931,289.914,977.393,289.918,973.855,289.918z"/>
			<path fill="#EAD54C" d="M990.173,261.828c0.423,4.612-2.682,9.943-7.352,12.274c-5.34,2.666-10.469,2.109-15.165-1.556
				c-4.306-3.361-6.161-9.204-4.581-14.451c1.708-5.672,5.614-8.958,11.421-9.992c0.623-0.111,1.279-0.033,1.92-0.043
				c0,3.937-0.004,7.873,0,11.81c0.002,1.622,0.328,1.951,1.947,1.954C982.299,261.829,986.236,261.827,990.173,261.828z"/>
			<path fill="#D97764" d="M990.173,261.828c-3.937-0.001-7.873,0.002-11.81-0.005c-1.619-0.003-1.945-0.331-1.947-1.954
				c-0.004-3.937-0.001-7.873,0-11.81C983.664,247.617,990.677,254.635,990.173,261.828z"/>
		</g>
	</g>
	<path fill="#675F67" d="M973.744,296.609c3.539,0,7.077,0.001,10.616-0.001c0.43,0,0.86-0.014,1.257,0.195
		c0.674,0.356,0.994,0.922,0.9,1.673c-0.088,0.701-0.491,1.192-1.191,1.352c-0.377,0.086-0.78,0.086-1.171,0.086
		c-6.97,0.005-13.94,0.004-20.909,0.002c-0.286,0-0.575,0.009-0.856-0.031c-0.897-0.127-1.417-0.637-1.461-1.559
		c-0.042-0.885,0.537-1.56,1.452-1.692c0.316-0.046,0.642-0.025,0.963-0.025C966.81,296.609,970.277,296.609,973.744,296.609z"/>
	<path fill="#665E66" d="M973.664,286.509c-3.609,0-7.219,0.009-10.828-0.005c-1.338-0.005-2.134-0.852-1.876-1.991
		c0.23-1.016,0.978-1.293,1.939-1.291c5.253,0.013,10.507,0.006,15.76,0.006c1.858,0,3.717-0.002,5.575,0.001
		c1.531,0.003,2.287,0.535,2.299,1.611c0.012,1.114-0.769,1.669-2.361,1.669C980.669,286.51,977.167,286.509,973.664,286.509z"/>
	<path fill="#665E66" d="M973.855,289.918c3.538,0,7.076-0.004,10.614,0.002c1.313,0.002,2.061,0.61,2.064,1.642
		c0.003,1.031-0.737,1.633-2.061,1.634c-7.183,0.005-14.366,0.006-21.549,0c-1.326-0.001-2.026-0.612-1.997-1.685
		c0.028-1.018,0.721-1.587,1.994-1.59C966.565,289.913,970.21,289.918,973.855,289.918z"/>
</g>
</svg>
