<?xml version="1.0" encoding="utf-8"?>
<!-- Generator: Adobe Illustrator 17.0.0, SVG Export Plug-In . SVG Version: 6.00 Build 0)  -->
<!DOCTYPE svg PUBLIC "-//W3C//DTD SVG 1.1//EN" "http://www.w3.org/Graphics/SVG/1.1/DTD/svg11.dtd">
<svg version="1.1" id="레이어_1" xmlns="http://www.w3.org/2000/svg" xmlns:xlink="http://www.w3.org/1999/xlink" x="0px"
	 y="0px" width="1080px" height="450px" viewBox="0 0 1080 450" enable-background="new 0 0 1080 450" xml:space="preserve">
<rect fill="#0B497C" width="1080" height="450"/>
<polygon fill="#21A564" points="594.362,450 0,450 0,0 496.536,0 "/>
<path fill="#F8B62D" d="M419.638,386.522c0,6.627-5.373,12-12,12H132.362c-6.627,0-12-5.373-12-12v-30.348c0-6.627,5.373-12,12-12
	h275.275c6.627,0,12,5.373,12,12V386.522z"/>
<text transform="matrix(1 0 0 1 196.3855 380.4062)"><tspan x="0" y="0" font-family="'AppleSDGothicNeoT00'" font-size="27">스크립트 </tspan><tspan x="100.52" y="0" font-family="'AppleSDGothicNeoR00'" font-size="27">번역</tspan></text>
<path fill="#F8B62D" d="M959.638,391.696c0,6.627-5.373,12-12,12H672.362c-6.627,0-12-5.373-12-12v-30.348c0-6.627,5.373-12,12-12
	h275.275c6.627,0,12,5.373,12,12V391.696z"/>
<text transform="matrix(1 0 0 1 759.74 385.5801)"><tspan x="0" y="0" font-family="'AppleSDGothicNeoT00'" font-size="27">발표 </tspan><tspan x="53.81" y="0" font-family="'AppleSDGothicNeoR00'" font-size="27">코칭</tspan></text>
<circle fill="#F8B62D" cx="80.652" cy="284.754" r="35"/>
<g>
	<defs>
		<circle id="SVGID_1_" cx="405.088" cy="132.419" r="64.983"/>
	</defs>
	<clipPath id="SVGID_2_">
		<use xlink:href="#SVGID_1_"  overflow="visible"/>
	</clipPath>
	
		<line clip-path="url(#SVGID_2_)" fill="none" stroke="#F8B62D" stroke-width="3" stroke-miterlimit="10" x1="170.811" y1="262.358" x2="627.722" y2="-10.313"/>
	
		<line clip-path="url(#SVGID_2_)" fill="none" stroke="#F8B62D" stroke-width="3" stroke-miterlimit="10" x1="177.083" y1="274.649" x2="633.993" y2="1.978"/>
	
		<line clip-path="url(#SVGID_2_)" fill="none" stroke="#F8B62D" stroke-width="3" stroke-miterlimit="10" x1="185.531" y1="285.379" x2="642.442" y2="12.708"/>
	
		<line clip-path="url(#SVGID_2_)" fill="none" stroke="#F8B62D" stroke-width="3" stroke-miterlimit="10" x1="192.469" y1="298.786" x2="649.379" y2="26.115"/>
	
		<line clip-path="url(#SVGID_2_)" fill="none" stroke="#F8B62D" stroke-width="3" stroke-miterlimit="10" x1="199.857" y1="309.315" x2="656.767" y2="36.644"/>
	
		<line clip-path="url(#SVGID_2_)" fill="none" stroke="#F8B62D" stroke-width="3" stroke-miterlimit="10" x1="206.128" y1="321.607" x2="663.039" y2="48.935"/>
	
		<line clip-path="url(#SVGID_2_)" fill="none" stroke="#F8B62D" stroke-width="3" stroke-miterlimit="10" x1="214.576" y1="332.336" x2="671.487" y2="59.665"/>
	
		<line clip-path="url(#SVGID_2_)" fill="none" stroke="#F8B62D" stroke-width="3" stroke-miterlimit="10" x1="221.514" y1="345.743" x2="678.424" y2="73.072"/>
	
		<line clip-path="url(#SVGID_2_)" fill="none" stroke="#F8B62D" stroke-width="3" stroke-miterlimit="10" x1="111.647" y1="167.571" x2="568.558" y2="-105.1"/>
	
		<line clip-path="url(#SVGID_2_)" fill="none" stroke="#F8B62D" stroke-width="3" stroke-miterlimit="10" x1="117.919" y1="179.862" x2="574.829" y2="-92.809"/>
	
		<line clip-path="url(#SVGID_2_)" fill="none" stroke="#F8B62D" stroke-width="3" stroke-miterlimit="10" x1="126.367" y1="190.592" x2="583.277" y2="-82.08"/>
	
		<line clip-path="url(#SVGID_2_)" fill="none" stroke="#F8B62D" stroke-width="3" stroke-miterlimit="10" x1="133.304" y1="203.999" x2="590.215" y2="-68.672"/>
	
		<line clip-path="url(#SVGID_2_)" fill="none" stroke="#F8B62D" stroke-width="3" stroke-miterlimit="10" x1="140.693" y1="214.528" x2="597.603" y2="-58.143"/>
	
		<line clip-path="url(#SVGID_2_)" fill="none" stroke="#F8B62D" stroke-width="3" stroke-miterlimit="10" x1="146.964" y1="226.819" x2="603.874" y2="-45.852"/>
	
		<line clip-path="url(#SVGID_2_)" fill="none" stroke="#F8B62D" stroke-width="3" stroke-miterlimit="10" x1="155.412" y1="237.549" x2="612.323" y2="-35.122"/>
	
		<line clip-path="url(#SVGID_2_)" fill="none" stroke="#F8B62D" stroke-width="3" stroke-miterlimit="10" x1="162.35" y1="250.956" x2="619.26" y2="-21.715"/>
</g>
<text transform="matrix(1 0 0 1 95.0002 162.2898)"><tspan x="0" y="0" font-family="'AppleSDGothicNeoR00'" font-size="27">스크립트의 맞춤법 교정부터</tspan><tspan x="0" y="32.4" font-family="'AppleSDGothicNeoR00'" font-size="27">5개 국어 번역까지 제공하는</tspan><tspan x="0" y="64.8" font-family="'AppleSDGothicNeoB00'" font-size="27">국내 1위 발표 솔루션 서비스,</tspan><tspan x="0" y="118.8" fill="#FFFFFF" stroke="#000000" stroke-miterlimit="10" font-family="'AppleSDGothicNeoH00'" font-size="45">플루언트</tspan></text>
<g>
	<path fill="#696167" d="M719.746,302.971c4.083-0.001,8.166-0.001,12.249-0.002c1.868,0.001,3.736,0.002,5.603,0.003
		c4.087,0,8.174,0.001,12.26,0.001c1.867,0,3.734,0,5.6,0c4.096,0,8.191,0,12.287,0.001c0.607,0.015,1.216,0.013,1.822,0.049
		c1.044,0.06,1.75,0.743,1.748,1.661c-0.002,0.912-0.706,1.619-1.763,1.629c-4.221,0.039-8.442,0.047-12.664,0.058
		c-3.148,0.008-6.295,0.005-9.443,0.006c-8.3,0.003-16.6,0.01-24.9,0.007c-1.753-0.001-3.505-0.032-5.258-0.061
		c-1.287-0.021-2.062-0.68-2.027-1.696c0.034-0.986,0.784-1.586,2.017-1.611C718.102,302.999,718.924,302.986,719.746,302.971z"/>
	<g>
		<path fill="#A4CC47" d="M755.459,302.972c0-11.059,0-22.118,0.001-33.177c0-2.082,0.448-2.537,2.503-2.54
			c2.362-0.003,4.724-0.002,7.086-0.001c2.341,0.001,2.696,0.348,2.696,2.649c0.001,11.023,0,22.046,0,33.069
			C763.65,302.972,759.555,302.972,755.459,302.972z"/>
		<path fill="#EAD54B" d="M737.599,302.972c0-8.119,0-16.238,0.001-24.357c0-1.966,0.487-2.445,2.486-2.447
			c2.468-0.003,4.936-0.004,7.404,0.001c1.855,0.003,2.368,0.508,2.369,2.34c0.002,8.155,0.001,16.309,0.001,24.464
			C745.772,302.972,741.685,302.972,737.599,302.972z"/>
		<path fill="#91D1F0" d="M751.133,263.679c-3.291,0-6.583,0.022-9.874-0.015c-0.82-0.009-1.411,0.251-1.98,0.832
			c-2.328,2.377-4.673,4.738-7.061,7.054c-0.705,0.684-0.875,1.272-0.556,2.249c1.082,3.318-0.804,6.762-4.101,7.707
			c-3.332,0.955-6.713-0.923-7.603-4.318c-0.586-2.236-0.097-4.287,1.603-5.912c1.702-1.626,3.751-2.268,6.024-1.484
			c1.018,0.351,1.613,0.141,2.324-0.593c2.563-2.647,5.209-5.214,7.791-7.842c0.756-0.77,1.594-1.1,2.673-1.096
			c6.869,0.027,13.738,0.012,20.607,0.015c1.596,0.001,2.525,0.627,2.537,1.689c0.011,1.068-0.92,1.71-2.509,1.712
			C757.715,263.682,754.424,263.679,751.133,263.679z"/>
		<path fill="#D97764" d="M719.746,302.971c-0.001-5.185-0.004-10.37-0.002-15.555c0.001-1.795,0.477-2.259,2.303-2.261
			c2.61-0.003,5.221-0.006,7.831,0.002c1.553,0.004,2.113,0.567,2.115,2.15c0.007,5.221,0.002,10.441,0.002,15.662
			C727.912,302.97,723.829,302.97,719.746,302.971z"/>
		<g>
			
				<line fill="none" stroke="#F8B62D" stroke-width="3" stroke-miterlimit="10" x1="757.007" y1="246.666" x2="757.163" y2="246.043"/>
			<path fill="#C0845B" d="M710.516,321.062c-12.345-0.008-24.691-0.007-37.036-0.034c-1.486-0.003-3.047,0.357-4.4-0.634
				c0-2.506,0-5.012,0-7.518c0.256-0.057,0.315-0.329,0.497-0.479c0.915-0.754,1.978-0.179,2.939-0.415c0.5,0.015,1,0.043,1.5,0.043
				c33.302,0.002,66.603,0.002,99.905,0.003c0.5,0,1,0.024,1.5,0.037c-0.006,2.981-0.011,5.962-0.017,8.943
				c-6.083,0.01-12.166,0.021-18.249,0.03c-6.513,0.009-13.025,0.016-19.538,0.024c-5.82-0.018-11.64-0.045-17.461-0.05
				C716.943,321.01,713.729,321.045,710.516,321.062z"/>
			<path fill="#C0845B" d="M669.081,245.433c0-1.752,0.019-3.505-0.013-5.257c-0.008-0.449,0.073-0.637,0.545-0.548
				c0.173,0.033,0.357,0.005,0.535,0.005c35.228,0,70.455,0,105.683,0c0.006,1.36,0.027,2.72,0.013,4.08
				c-0.014,1.329-0.402,1.693-1.757,1.717c-0.394,0.007-0.787,0.002-1.181,0.002C738.297,245.433,703.689,245.433,669.081,245.433z"
				/>
			<path fill="#AD6D3F" d="M669.081,245.433c34.608,0,69.216-0.001,103.825-0.001c0.394,0,0.787,0.005,1.181-0.002
				c1.355-0.023,1.743-0.388,1.757-1.717c0.014-1.36-0.007-2.72-0.013-4.08c0.895,0,1.792,0.034,2.684-0.014
				c0.465-0.025,0.557,0.089,0.552,0.551c-0.029,2.613-0.014,5.226-0.014,7.84c-1.044,0.73-2.24,0.691-3.431,0.677
				c-1.147-0.003-2.294-0.007-3.441-0.01c-0.321-0.013-0.642-0.038-0.963-0.038c-32.545-0.002-65.091-0.002-97.636,0
				c-0.356,0-0.713,0.03-1.069,0.046c-1.191,0.016-2.387,0.054-3.432-0.676C669.081,247.152,669.081,246.293,669.081,245.433z"/>
			<path fill="#AC6C3D" d="M703.017,349.606c-0.999-0.734-1.099-1.707-0.746-2.802c1.236-3.832,2.48-7.661,3.705-11.497
				c1.032-3.232,2.042-6.471,3.067-9.706c0.053-0.166,0.151-0.318,0.229-0.476c3.064-0.001,6.128-0.002,9.192-0.003
				c-0.633,1.871-1.278,3.737-1.895,5.613c-2.073,6.294-3.744,12.721-6.249,18.872C707.886,349.606,705.452,349.606,703.017,349.606
				z"/>
			<path fill="#AC6C3D" d="M738.86,325.126c1.076,3.286,2.164,6.569,3.226,9.86c1.268,3.93,2.516,7.865,3.764,11.801
				c0.344,1.084,0.29,2.082-0.734,2.819c-2.434,0-4.869,0-7.303,0c-0.586-1.025-0.937-2.136-1.291-3.259
				c-1.988-6.299-4.016-12.585-6.032-18.875c-0.248-0.775-0.61-1.518-0.66-2.348C732.841,325.125,735.85,325.126,738.86,325.126z"/>
			<path fill="#AC6C3D" d="M727.933,349.606c-2.577,0-5.155,0-7.732,0c0.062-0.635-0.684-0.846-0.678-1.565
				c0.064-7.638,0.053-15.277,0.062-22.915c2.988,0,5.976,0,8.964,0c0.01,6.889,0.022,13.778,0.026,20.667
				C728.576,347.098,728.804,348.446,727.933,349.606z"/>
			<path fill="#AD6D3F" d="M775.621,311.984c1.163,0.13,2.427-0.251,3.432,0.678c0,2.577,0,5.155,0,7.732
				c-1.108,0.851-2.387,0.685-3.649,0.614c0.006-2.981,0.011-5.962,0.017-8.943C775.487,312.039,775.554,312.012,775.621,311.984z"
				/>
			<path fill="#955E33" d="M719.585,325.126c0-0.952,0-1.905,0-2.857c-0.604,0.885-0.917,1.849-1.121,2.853
				c-3.064,0.001-6.128,0.002-9.192,0.003c0.415-1.354,0.829-2.708,1.244-4.062c3.213-0.018,6.427-0.052,9.64-0.049
				c5.82,0.005,11.64,0.032,17.461,0.05c0.414,1.354,0.829,2.709,1.243,4.063c-3.01-0.001-6.019-0.001-9.029-0.002
				c-0.368-0.97-0.736-1.941-1.104-2.911c-0.059,0.012-0.119,0.023-0.178,0.035c0,0.959,0,1.919,0,2.878
				C725.561,325.126,722.573,325.126,719.585,325.126z"/>
			<path fill="#D1ECF7" d="M775.621,311.984c-0.067,0.027-0.134,0.055-0.201,0.082c-0.5-0.013-1-0.037-1.5-0.037
				c-33.302-0.002-66.603-0.001-99.905-0.003c-0.5,0-1-0.028-1.5-0.043c0.012-1.063,0.024-2.126,0.037-3.19
				c31.784,0,63.568,0,95.352,0c0.751,0,1.498,0.002,2.241-0.17c1.247-0.289,1.791-0.81,1.976-2.072
				c0.072-0.492,0.055-0.999,0.055-1.5c0.003-18.791,0.003-37.583,0.004-56.374c1.147,0.003,2.294,0.007,3.441,0.01
				C775.622,269.787,775.622,290.885,775.621,311.984z"/>
			<path fill="#E3F3FB" d="M772.181,248.678c-0.001,18.791-0.001,37.583-0.004,56.374c0,0.5,0.017,1.008-0.055,1.5
				c-0.185,1.263-0.728,1.783-1.976,2.072c-0.743,0.172-1.49,0.17-2.241,0.17c-31.784,0-63.568,0-95.352,0
				c-0.012-0.428-0.034-0.857-0.034-1.285c-0.003-19.607-0.004-39.214-0.006-58.821c0.356-0.016,0.713-0.046,1.069-0.046
				c32.545-0.002,65.091-0.002,97.636,0C771.539,248.64,771.86,248.665,772.181,248.678z M719.746,302.971
				c-0.822,0.015-1.644,0.029-2.466,0.045c-1.233,0.025-1.983,0.625-2.017,1.611c-0.035,1.016,0.739,1.674,2.027,1.696
				c1.752,0.029,3.505,0.06,5.258,0.061c8.3,0.003,16.6-0.003,24.9-0.007c3.148-0.001,6.295,0.002,9.443-0.006
				c4.221-0.011,8.443-0.019,12.664-0.058c1.057-0.01,1.76-0.717,1.763-1.629c0.002-0.919-0.703-1.601-1.748-1.661
				c-0.606-0.035-1.215-0.034-1.822-0.049c0-11.023,0-22.046,0-33.069c0-2.301-0.355-2.648-2.696-2.649
				c-2.362-0.001-4.724-0.003-7.086,0.001c-2.055,0.003-2.502,0.458-2.503,2.54c-0.001,11.059-0.001,22.118-0.001,33.177
				c-1.867,0-3.733,0-5.6,0c0-8.155,0.001-16.309-0.001-24.464c-0.001-1.832-0.513-2.337-2.369-2.34
				c-2.468-0.004-4.936-0.003-7.404-0.001c-1.999,0.002-2.485,0.481-2.486,2.447c-0.001,8.119-0.001,16.238-0.001,24.357
				c-1.868-0.001-3.736-0.002-5.603-0.003c0-5.221,0.005-10.441-0.002-15.662c-0.002-1.583-0.562-2.146-2.115-2.15
				c-2.61-0.007-5.221-0.004-7.831-0.002c-1.826,0.002-2.302,0.465-2.303,2.261C719.742,292.601,719.745,297.786,719.746,302.971z
				 M695.916,254.466c-0.641,0.01-1.297-0.068-1.92,0.043c-5.806,1.035-9.713,4.321-11.421,9.992
				c-1.58,5.247,0.275,11.09,4.581,14.451c4.696,3.666,9.825,4.222,15.165,1.556c4.67-2.332,7.775-7.663,7.352-12.274
				C710.177,261.042,703.164,254.023,695.916,254.466z M751.133,263.679c3.291,0,6.583,0.003,9.874-0.001
				c1.589-0.002,2.52-0.644,2.509-1.712c-0.011-1.062-0.941-1.689-2.537-1.689c-6.869-0.003-13.738,0.012-20.607-0.015
				c-1.079-0.004-1.917,0.326-2.673,1.096c-2.582,2.629-5.228,5.196-7.791,7.842c-0.711,0.735-1.307,0.944-2.324,0.593
				c-2.273-0.784-4.322-0.142-6.024,1.484c-1.7,1.624-2.189,3.676-1.603,5.912c0.89,3.396,4.27,5.273,7.603,4.318
				c3.297-0.945,5.183-4.389,4.101-7.707c-0.318-0.977-0.148-1.565,0.556-2.249c2.388-2.316,4.733-4.677,7.061-7.054
				c0.569-0.581,1.16-0.841,1.98-0.832C744.55,263.701,747.841,263.68,751.133,263.679z M693.244,303.016
				c-3.467,0-6.934,0-10.401,0.001c-0.321,0-0.648-0.021-0.963,0.025c-0.914,0.132-1.493,0.807-1.452,1.692
				c0.044,0.923,0.564,1.432,1.461,1.559c0.281,0.04,0.57,0.031,0.856,0.031c6.97,0.001,13.94,0.002,20.909-0.002
				c0.391,0,0.794,0,1.171-0.086c0.699-0.16,1.103-0.651,1.191-1.352c0.094-0.751-0.226-1.317-0.9-1.673
				c-0.396-0.209-0.827-0.196-1.257-0.195C700.321,303.017,696.783,303.016,693.244,303.016z M693.164,292.916
				c3.502,0,7.004,0.001,10.507,0c1.592-0.001,2.373-0.555,2.361-1.669c-0.012-1.076-0.768-1.608-2.299-1.611
				c-1.858-0.003-3.717-0.001-5.575-0.001c-5.253,0-10.507,0.007-15.76-0.006c-0.96-0.002-1.709,0.276-1.939,1.291
				c-0.258,1.139,0.539,1.986,1.876,1.991C685.946,292.924,689.555,292.915,693.164,292.916z M693.355,296.325
				c-3.645,0-7.29-0.005-10.935,0.003c-1.274,0.003-1.967,0.572-1.994,1.59c-0.029,1.073,0.671,1.684,1.997,1.685
				c7.183,0.007,14.366,0.006,21.549,0c1.325-0.001,2.064-0.602,2.061-1.634c-0.003-1.033-0.751-1.64-2.064-1.642
				C700.431,296.321,696.893,296.325,693.355,296.325z"/>
			<path fill="#EAD54C" d="M709.673,268.234c0.423,4.612-2.682,9.943-7.352,12.274c-5.34,2.666-10.469,2.109-15.165-1.556
				c-4.306-3.361-6.161-9.204-4.581-14.451c1.708-5.672,5.614-8.958,11.421-9.992c0.623-0.111,1.279-0.033,1.92-0.043
				c0,3.937-0.004,7.873,0,11.81c0.002,1.622,0.328,1.951,1.947,1.954C701.799,268.236,705.736,268.233,709.673,268.234z"/>
			<path fill="#D97764" d="M709.673,268.234c-3.937-0.001-7.873,0.002-11.81-0.005c-1.619-0.003-1.945-0.331-1.947-1.954
				c-0.004-3.937-0.001-7.873,0-11.81C703.164,254.023,710.177,261.042,709.673,268.234z"/>
		</g>
	</g>
	<path fill="#675F67" d="M693.244,303.016c3.539,0,7.077,0.001,10.616-0.001c0.43,0,0.86-0.014,1.257,0.195
		c0.674,0.356,0.994,0.922,0.9,1.673c-0.088,0.701-0.491,1.192-1.191,1.352c-0.377,0.086-0.78,0.086-1.171,0.086
		c-6.97,0.005-13.94,0.004-20.909,0.002c-0.286,0-0.575,0.009-0.856-0.031c-0.897-0.127-1.417-0.637-1.461-1.559
		c-0.042-0.885,0.537-1.56,1.452-1.692c0.316-0.046,0.642-0.025,0.963-0.025C686.31,303.016,689.777,303.016,693.244,303.016z"/>
	<path fill="#665E66" d="M693.164,292.915c-3.609,0-7.219,0.009-10.828-0.005c-1.338-0.005-2.134-0.852-1.876-1.991
		c0.23-1.016,0.978-1.293,1.939-1.291c5.253,0.013,10.507,0.006,15.76,0.006c1.858,0,3.717-0.002,5.575,0.001
		c1.531,0.003,2.287,0.535,2.299,1.611c0.012,1.114-0.769,1.669-2.361,1.669C700.169,292.917,696.667,292.916,693.164,292.915z"/>
	<path fill="#665E66" d="M693.355,296.325c3.538,0,7.076-0.004,10.614,0.002c1.313,0.002,2.061,0.61,2.064,1.642
		c0.003,1.031-0.737,1.633-2.061,1.634c-7.183,0.005-14.366,0.006-21.549,0c-1.326-0.001-2.026-0.612-1.997-1.685
		c0.028-1.018,0.721-1.587,1.994-1.59C686.065,296.32,689.71,296.325,693.355,296.325z"/>
</g>
<text transform="matrix(1 0 0 1 707.0791 162.0861)"><tspan x="0" y="0" fill="#F7F8F8" font-family="'AppleSDGothicNeoR00'" font-size="27">나에게 필요한 발표 코칭과</tspan><tspan x="-69.497" y="32.4" fill="#F7F8F8" font-family="'AppleSDGothicNeoR00'" font-size="27">인공지능 기반 감정분석을 이용해</tspan><tspan x="-76.085" y="64.8" fill="#F7F8F8" font-family="'AppleSDGothicNeoB00'" font-size="27">발표 연습결과 분석까지 해주니까,</tspan><tspan x="89.044" y="118.8" fill="#21A564" stroke="#172A88" stroke-miterlimit="10" font-family="'AppleSDGothicNeoH00'" font-size="45">자신감 UP</tspan></text>
</svg>
