<?xml version="1.0" encoding="utf-8"?>
<!-- Generator: Adobe Illustrator 17.0.0, SVG Export Plug-In . SVG Version: 6.00 Build 0)  -->
<!DOCTYPE svg PUBLIC "-//W3C//DTD SVG 1.1//EN" "http://www.w3.org/Graphics/SVG/1.1/DTD/svg11.dtd">
<svg version="1.1" id="레이어_1" xmlns="http://www.w3.org/2000/svg" xmlns:xlink="http://www.w3.org/1999/xlink" x="0px"
	 y="0px" width="1080px" height="450px" viewBox="0 0 1080 450" enable-background="new 0 0 1080 450" xml:space="preserve">
<rect fill="#F8B62D" width="1080" height="452"/>
<g>
	<defs>
		<circle id="SVGID_1_" cx="659.265" cy="-126.559" r="64.983"/>
	</defs>
	<clipPath id="SVGID_2_">
		<use xlink:href="#SVGID_1_"  overflow="visible"/>
	</clipPath>
	
		<line clip-path="url(#SVGID_2_)" fill="none" stroke="#F8B62D" stroke-width="3" stroke-miterlimit="10" x1="424.988" y1="3.38" x2="881.898" y2="-269.291"/>
	
		<line clip-path="url(#SVGID_2_)" fill="none" stroke="#F8B62D" stroke-width="3" stroke-miterlimit="10" x1="431.259" y1="15.672" x2="888.17" y2="-257"/>
	
		<line clip-path="url(#SVGID_2_)" fill="none" stroke="#F8B62D" stroke-width="3" stroke-miterlimit="10" x1="439.708" y1="26.401" x2="896.618" y2="-246.27"/>
	
		<line clip-path="url(#SVGID_2_)" fill="none" stroke="#F8B62D" stroke-width="3" stroke-miterlimit="10" x1="446.645" y1="39.809" x2="903.555" y2="-232.863"/>
	
		<line clip-path="url(#SVGID_2_)" fill="none" stroke="#F8B62D" stroke-width="3" stroke-miterlimit="10" x1="454.033" y1="50.337" x2="910.944" y2="-222.334"/>
	
		<line clip-path="url(#SVGID_2_)" fill="none" stroke="#F8B62D" stroke-width="3" stroke-miterlimit="10" x1="460.305" y1="62.629" x2="917.215" y2="-210.042"/>
	
		<line clip-path="url(#SVGID_2_)" fill="none" stroke="#F8B62D" stroke-width="3" stroke-miterlimit="10" x1="468.753" y1="73.358" x2="925.663" y2="-199.313"/>
	
		<line clip-path="url(#SVGID_2_)" fill="none" stroke="#F8B62D" stroke-width="3" stroke-miterlimit="10" x1="475.69" y1="86.766" x2="932.601" y2="-185.905"/>
	
		<line clip-path="url(#SVGID_2_)" fill="none" stroke="#F8B62D" stroke-width="3" stroke-miterlimit="10" x1="365.824" y1="-91.407" x2="822.734" y2="-364.078"/>
	
		<line clip-path="url(#SVGID_2_)" fill="none" stroke="#F8B62D" stroke-width="3" stroke-miterlimit="10" x1="372.095" y1="-79.115" x2="829.006" y2="-351.787"/>
	
		<line clip-path="url(#SVGID_2_)" fill="none" stroke="#F8B62D" stroke-width="3" stroke-miterlimit="10" x1="380.543" y1="-68.386" x2="837.454" y2="-341.057"/>
	
		<line clip-path="url(#SVGID_2_)" fill="none" stroke="#F8B62D" stroke-width="3" stroke-miterlimit="10" x1="387.481" y1="-54.979" x2="844.391" y2="-327.65"/>
	
		<line clip-path="url(#SVGID_2_)" fill="none" stroke="#F8B62D" stroke-width="3" stroke-miterlimit="10" x1="394.869" y1="-44.45" x2="851.779" y2="-317.121"/>
	
		<line clip-path="url(#SVGID_2_)" fill="none" stroke="#F8B62D" stroke-width="3" stroke-miterlimit="10" x1="401.14" y1="-32.158" x2="858.051" y2="-304.83"/>
	
		<line clip-path="url(#SVGID_2_)" fill="none" stroke="#F8B62D" stroke-width="3" stroke-miterlimit="10" x1="409.589" y1="-21.429" x2="866.499" y2="-294.1"/>
	
		<line clip-path="url(#SVGID_2_)" fill="none" stroke="#F8B62D" stroke-width="3" stroke-miterlimit="10" x1="416.526" y1="-8.021" x2="873.437" y2="-280.693"/>
</g>
<text transform="matrix(1 0 0 1 123.3335 -156.8768)"><tspan x="0" y="0" font-family="'AppleSDGothicNeoR00'" font-size="27">스크립트의 맞춤법 교정부터</tspan><tspan x="0" y="32.4" font-family="'AppleSDGothicNeoR00'" font-size="27">5개 국어 번역까지 제공하는</tspan><tspan x="0" y="64.8" font-family="'AppleSDGothicNeoB00'" font-size="27">국내 1위 발표 솔루션 서비스,</tspan><tspan x="0" y="118.8" fill="#FFFFFF" stroke="#000000" stroke-miterlimit="10" font-family="'AppleSDGothicNeoH00'" font-size="45">플루언트</tspan></text>
<g>
	<path fill="#696167" d="M1160.57,268.625c4.083-0.001,8.166-0.001,12.249-0.002c1.868,0.001,3.736,0.002,5.603,0.003
		c4.087,0,8.174,0.001,12.26,0.001c1.867,0,3.733,0,5.6,0c4.096,0,8.191,0,12.287,0.001c0.607,0.015,1.216,0.013,1.822,0.048
		c1.044,0.06,1.75,0.743,1.748,1.661c-0.002,0.912-0.706,1.619-1.763,1.629c-4.221,0.039-8.443,0.047-12.664,0.058
		c-3.148,0.008-6.295,0.005-9.443,0.006c-8.3,0.003-16.6,0.01-24.9,0.007c-1.753-0.001-3.505-0.032-5.258-0.061
		c-1.287-0.021-2.062-0.68-2.027-1.696c0.034-0.986,0.784-1.586,2.017-1.611C1158.926,268.653,1159.748,268.64,1160.57,268.625z"/>
	<g>
		<path fill="#A4CC47" d="M1196.284,268.626c0-11.059,0-22.118,0.001-33.177c0-2.082,0.448-2.537,2.503-2.54
			c2.362-0.003,4.724-0.002,7.086-0.001c2.342,0.001,2.696,0.348,2.696,2.649c0.001,11.023,0,22.046,0.001,33.069
			C1204.475,268.626,1200.379,268.626,1196.284,268.626z"/>
		<path fill="#EAD54B" d="M1178.423,268.626c0-8.119,0-16.238,0.001-24.357c0-1.966,0.487-2.445,2.486-2.447
			c2.468-0.003,4.936-0.004,7.404,0.001c1.855,0.003,2.368,0.508,2.369,2.34c0.002,8.155,0.001,16.309,0.001,24.464
			C1186.596,268.626,1182.51,268.626,1178.423,268.626z"/>
		<path fill="#91D1F0" d="M1191.957,229.333c-3.292,0-6.583,0.022-9.874-0.015c-0.82-0.009-1.411,0.251-1.98,0.832
			c-2.328,2.377-4.673,4.738-7.061,7.054c-0.705,0.684-0.875,1.272-0.556,2.249c1.082,3.318-0.804,6.762-4.101,7.707
			c-3.333,0.955-6.713-0.923-7.603-4.318c-0.586-2.236-0.097-4.287,1.603-5.912c1.702-1.626,3.751-2.268,6.024-1.484
			c1.017,0.351,1.613,0.141,2.324-0.593c2.563-2.647,5.209-5.214,7.791-7.842c0.756-0.77,1.594-1.1,2.673-1.096
			c6.869,0.027,13.738,0.012,20.607,0.015c1.596,0.001,2.525,0.627,2.536,1.689c0.011,1.068-0.92,1.71-2.509,1.712
			C1198.54,229.336,1195.248,229.333,1191.957,229.333z"/>
		<path fill="#D97764" d="M1160.57,268.625c-0.001-5.185-0.004-10.37-0.002-15.555c0.001-1.795,0.477-2.259,2.303-2.261
			c2.61-0.003,5.221-0.006,7.831,0.002c1.553,0.004,2.113,0.567,2.115,2.15c0.007,5.221,0.002,10.441,0.002,15.662
			C1168.736,268.624,1164.653,268.624,1160.57,268.625z"/>
		<g>
			
				<line fill="none" stroke="#F8B62D" stroke-width="3" stroke-miterlimit="10" x1="1197.832" y1="212.32" x2="1197.987" y2="211.697"/>
			<path fill="#C0845B" d="M1151.341,286.716c-12.345-0.008-24.691-0.007-37.036-0.034c-1.486-0.003-3.047,0.357-4.4-0.634
				c0-2.506,0-5.012,0-7.518c0.256-0.057,0.314-0.329,0.497-0.479c0.915-0.754,1.978-0.179,2.939-0.415c0.5,0.015,1,0.043,1.5,0.043
				c33.302,0.002,66.603,0.002,99.905,0.003c0.5,0,1,0.024,1.5,0.037c-0.006,2.981-0.011,5.962-0.017,8.943
				c-6.083,0.01-12.166,0.021-18.249,0.03c-6.513,0.009-13.025,0.016-19.538,0.024c-5.82-0.018-11.64-0.045-17.46-0.05
				C1157.767,286.664,1154.554,286.699,1151.341,286.716z"/>
			<path fill="#C0845B" d="M1109.905,211.087c0-1.752,0.019-3.505-0.013-5.257c-0.008-0.449,0.073-0.637,0.545-0.548
				c0.173,0.033,0.357,0.005,0.536,0.005c35.228,0,70.455,0,105.683,0c0.006,1.36,0.027,2.72,0.013,4.08
				c-0.014,1.329-0.402,1.693-1.757,1.717c-0.394,0.007-0.787,0.002-1.181,0.002
				C1179.121,211.087,1144.513,211.087,1109.905,211.087z"/>
			<path fill="#AD6D3F" d="M1109.905,211.087c34.608,0,69.216-0.001,103.825-0.001c0.394,0,0.787,0.005,1.181-0.002
				c1.355-0.023,1.743-0.388,1.757-1.717c0.014-1.36-0.007-2.72-0.013-4.08c0.895,0,1.792,0.034,2.684-0.014
				c0.465-0.025,0.557,0.089,0.552,0.551c-0.029,2.613-0.014,5.226-0.014,7.84c-1.044,0.73-2.24,0.691-3.431,0.677
				c-1.147-0.003-2.294-0.007-3.441-0.01c-0.321-0.013-0.642-0.038-0.963-0.038c-32.545-0.002-65.091-0.002-97.636,0
				c-0.356,0-0.713,0.03-1.069,0.046c-1.192,0.016-2.387,0.054-3.432-0.676C1109.905,212.806,1109.905,211.946,1109.905,211.087z"/>
			<path fill="#AC6C3D" d="M1143.842,315.26c-0.999-0.734-1.099-1.707-0.746-2.802c1.236-3.832,2.48-7.661,3.705-11.497
				c1.032-3.232,2.042-6.471,3.067-9.706c0.053-0.166,0.151-0.318,0.229-0.476c3.064-0.001,6.128-0.002,9.192-0.003
				c-0.632,1.871-1.277,3.737-1.895,5.613c-2.073,6.294-3.744,12.721-6.249,18.872C1148.71,315.26,1146.276,315.26,1143.842,315.26z
				"/>
			<path fill="#AC6C3D" d="M1179.684,290.78c1.076,3.286,2.164,6.569,3.226,9.86c1.267,3.93,2.516,7.865,3.764,11.801
				c0.344,1.084,0.29,2.082-0.734,2.819c-2.434,0-4.869,0-7.303,0c-0.586-1.025-0.937-2.136-1.291-3.259
				c-1.988-6.299-4.016-12.585-6.032-18.875c-0.248-0.775-0.61-1.518-0.66-2.348C1173.665,290.779,1176.675,290.78,1179.684,290.78z
				"/>
			<path fill="#AC6C3D" d="M1168.757,315.26c-2.578,0-5.155,0-7.732,0c0.062-0.635-0.684-0.846-0.678-1.565
				c0.064-7.638,0.053-15.277,0.062-22.915c2.988,0,5.976,0,8.964,0c0.01,6.889,0.022,13.778,0.026,20.667
				C1169.4,312.752,1169.628,314.1,1168.757,315.26z"/>
			<path fill="#AD6D3F" d="M1216.446,277.638c1.163,0.13,2.427-0.251,3.432,0.678c0,2.577,0,5.155,0,7.732
				c-1.108,0.851-2.386,0.685-3.649,0.614c0.006-2.981,0.011-5.962,0.017-8.943C1216.312,277.693,1216.379,277.666,1216.446,277.638
				z"/>
			<path fill="#955E33" d="M1160.409,290.78c0-0.952,0-1.905,0-2.857c-0.604,0.885-0.917,1.849-1.121,2.853
				c-3.064,0.001-6.128,0.002-9.192,0.003c0.415-1.354,0.829-2.708,1.244-4.062c3.213-0.018,6.427-0.052,9.64-0.049
				c5.82,0.005,11.64,0.032,17.46,0.05c0.414,1.354,0.829,2.709,1.243,4.063c-3.01-0.001-6.019-0.001-9.029-0.002
				c-0.368-0.97-0.736-1.941-1.104-2.911c-0.059,0.012-0.119,0.023-0.178,0.035c0,0.959,0,1.919,0,2.878
				C1166.385,290.78,1163.397,290.78,1160.409,290.78z"/>
			<path fill="#D1ECF7" d="M1216.446,277.638c-0.067,0.027-0.134,0.055-0.201,0.082c-0.5-0.013-1-0.037-1.5-0.037
				c-33.302-0.002-66.603-0.001-99.905-0.003c-0.5,0-1-0.028-1.5-0.043c0.012-1.063,0.024-2.126,0.036-3.19
				c31.784,0,63.568,0,95.352,0c0.751,0,1.498,0.002,2.241-0.17c1.248-0.289,1.791-0.81,1.976-2.072
				c0.072-0.492,0.055-0.999,0.055-1.5c0.003-18.791,0.003-37.583,0.004-56.374c1.147,0.003,2.294,0.007,3.441,0.01
				C1216.446,235.441,1216.446,256.539,1216.446,277.638z"/>
			<path fill="#E3F3FB" d="M1213.005,214.332c-0.001,18.791-0.001,37.583-0.004,56.374c0,0.5,0.017,1.008-0.055,1.5
				c-0.185,1.263-0.728,1.783-1.976,2.072c-0.743,0.172-1.49,0.17-2.241,0.17c-31.784,0-63.568,0-95.352,0
				c-0.012-0.428-0.034-0.857-0.034-1.285c-0.003-19.607-0.005-39.214-0.006-58.821c0.356-0.016,0.713-0.046,1.069-0.046
				c32.545-0.002,65.091-0.002,97.636,0C1212.363,214.294,1212.684,214.319,1213.005,214.332z M1160.57,268.625
				c-0.822,0.015-1.644,0.029-2.466,0.045c-1.233,0.025-1.983,0.625-2.017,1.611c-0.035,1.016,0.74,1.674,2.027,1.696
				c1.752,0.029,3.505,0.06,5.258,0.061c8.3,0.003,16.6-0.003,24.9-0.007c3.148-0.001,6.295,0.002,9.443-0.006
				c4.221-0.011,8.443-0.019,12.664-0.058c1.057-0.01,1.76-0.717,1.763-1.629c0.002-0.919-0.703-1.601-1.748-1.661
				c-0.606-0.035-1.215-0.034-1.822-0.048c0-11.023,0-22.046-0.001-33.069c0-2.301-0.355-2.648-2.696-2.649
				c-2.362-0.001-4.724-0.003-7.086,0.001c-2.055,0.003-2.502,0.458-2.503,2.54c-0.001,11.059-0.001,22.118-0.001,33.177
				c-1.867,0-3.734,0-5.6,0c0-8.155,0.001-16.309-0.001-24.464c0-1.832-0.513-2.337-2.369-2.34
				c-2.468-0.004-4.936-0.003-7.404-0.001c-1.999,0.002-2.485,0.481-2.486,2.447c-0.001,8.119-0.001,16.238-0.001,24.357
				c-1.868-0.001-3.736-0.002-5.603-0.003c0-5.221,0.005-10.441-0.002-15.662c-0.002-1.583-0.562-2.146-2.115-2.15
				c-2.61-0.007-5.221-0.004-7.831-0.002c-1.826,0.002-2.302,0.465-2.303,2.261C1160.566,258.255,1160.569,263.44,1160.57,268.625z
				 M1136.74,220.12c-0.641,0.01-1.297-0.068-1.92,0.043c-5.807,1.035-9.713,4.321-11.421,9.992
				c-1.58,5.247,0.275,11.09,4.581,14.451c4.696,3.666,9.825,4.222,15.165,1.556c4.67-2.332,7.775-7.663,7.352-12.274
				C1151.001,226.696,1143.988,219.677,1136.74,220.12z M1191.957,229.333c3.291,0,6.583,0.003,9.874-0.001
				c1.589-0.002,2.52-0.644,2.509-1.712c-0.011-1.062-0.941-1.689-2.536-1.689c-6.869-0.003-13.738,0.012-20.607-0.015
				c-1.079-0.004-1.917,0.326-2.673,1.096c-2.582,2.629-5.228,5.196-7.791,7.842c-0.712,0.735-1.307,0.944-2.324,0.593
				c-2.273-0.784-4.322-0.142-6.024,1.484c-1.7,1.624-2.189,3.676-1.603,5.912c0.89,3.396,4.27,5.273,7.603,4.318
				c3.297-0.945,5.183-4.389,4.101-7.707c-0.318-0.977-0.148-1.565,0.556-2.249c2.388-2.316,4.733-4.677,7.061-7.054
				c0.569-0.581,1.16-0.841,1.98-0.832C1185.374,229.355,1188.666,229.334,1191.957,229.333z M1134.069,268.67
				c-3.467,0-6.934,0-10.401,0.001c-0.321,0-0.648-0.021-0.963,0.025c-0.914,0.132-1.494,0.807-1.452,1.692
				c0.044,0.923,0.564,1.432,1.461,1.559c0.281,0.04,0.57,0.031,0.856,0.031c6.97,0.001,13.94,0.002,20.909-0.002
				c0.391,0,0.794,0,1.171-0.086c0.699-0.16,1.103-0.651,1.191-1.352c0.094-0.751-0.225-1.317-0.9-1.673
				c-0.396-0.209-0.827-0.196-1.256-0.195C1141.146,268.671,1137.607,268.67,1134.069,268.67z M1133.989,258.57
				c3.502,0,7.004,0.001,10.507,0c1.592-0.001,2.373-0.555,2.361-1.669c-0.011-1.076-0.767-1.608-2.299-1.611
				c-1.858-0.003-3.717-0.001-5.575-0.001c-5.253,0-10.507,0.007-15.76-0.006c-0.96-0.002-1.708,0.276-1.938,1.291
				c-0.258,1.139,0.539,1.986,1.876,1.991C1126.77,258.578,1130.379,258.569,1133.989,258.57z M1134.179,261.979
				c-3.645,0-7.29-0.005-10.935,0.003c-1.274,0.003-1.967,0.572-1.994,1.59c-0.029,1.073,0.671,1.684,1.997,1.685
				c7.183,0.007,14.366,0.006,21.549,0c1.324-0.001,2.064-0.602,2.061-1.634c-0.003-1.033-0.751-1.64-2.064-1.642
				C1141.255,261.975,1137.717,261.979,1134.179,261.979z"/>
			<path fill="#EAD54C" d="M1150.497,233.888c0.423,4.612-2.682,9.943-7.352,12.274c-5.34,2.666-10.469,2.109-15.165-1.556
				c-4.306-3.361-6.161-9.204-4.581-14.451c1.708-5.672,5.614-8.958,11.421-9.992c0.623-0.111,1.279-0.033,1.92-0.043
				c0,3.937-0.004,7.873,0,11.81c0.002,1.622,0.328,1.951,1.947,1.954C1142.624,233.89,1146.56,233.887,1150.497,233.888z"/>
			<path fill="#D97764" d="M1150.497,233.888c-3.937-0.001-7.873,0.002-11.81-0.005c-1.619-0.003-1.945-0.331-1.947-1.954
				c-0.004-3.937-0.001-7.873,0-11.81C1143.988,219.677,1151.001,226.696,1150.497,233.888z"/>
		</g>
	</g>
	<path fill="#675F67" d="M1134.069,268.67c3.538,0,7.077,0.001,10.615-0.001c0.43,0,0.86-0.014,1.256,0.195
		c0.674,0.356,0.994,0.922,0.9,1.673c-0.088,0.701-0.491,1.192-1.191,1.352c-0.377,0.086-0.78,0.086-1.171,0.086
		c-6.97,0.005-13.94,0.004-20.909,0.002c-0.286,0-0.575,0.009-0.856-0.031c-0.897-0.127-1.417-0.637-1.461-1.559
		c-0.042-0.885,0.537-1.56,1.452-1.692c0.316-0.046,0.642-0.025,0.963-0.025C1127.135,268.67,1130.602,268.67,1134.069,268.67z"/>
	<path fill="#665E66" d="M1133.989,258.569c-3.609,0-7.219,0.009-10.828-0.005c-1.338-0.005-2.134-0.852-1.876-1.991
		c0.23-1.016,0.978-1.294,1.938-1.291c5.253,0.013,10.507,0.006,15.76,0.006c1.858,0,3.717-0.002,5.575,0.001
		c1.531,0.003,2.287,0.535,2.299,1.611c0.012,1.114-0.769,1.669-2.361,1.669C1140.993,258.571,1137.491,258.57,1133.989,258.569z"/>
	<path fill="#665E66" d="M1134.179,261.979c3.538,0,7.076-0.004,10.614,0.002c1.313,0.002,2.062,0.61,2.064,1.642
		c0.003,1.031-0.737,1.633-2.061,1.634c-7.183,0.005-14.366,0.006-21.549,0c-1.326-0.001-2.026-0.612-1.997-1.685
		c0.028-1.018,0.721-1.587,1.994-1.59C1126.889,261.973,1130.534,261.979,1134.179,261.979z"/>
</g>
<path fill="#050000" d="M521.528,260.261c0.354,0.028,0.708,0.056,1.062,0.084C522.193,260.867,521.814,261.155,521.528,260.261z"/>
<path fill="none" d="M229,230.667c-4.403-12.151,2.559-37.94,8.938-48.516c4.155-6.89,11.973-9.176,16.849-14.984
	c4.607-5.487,7.741-15.407,9.444-22.288c6.576-26.57,4.037-59.882,25.559-79.213c12.434-11.168,24.212-15.837,41.019-18.962
	c21.213-3.944,25.273,7.008,37.129,20.833C377.177,78.311,393.002,85.53,395.667,99c1.249,6.315,2.471,10.602,5.185,16.647
	c2.322,5.172,2.273,14.213,6.481,17.433c2.803-6.456,10.042-11.646,13.941-18.247c5.479-9.276,10.812-19.376,16.038-29.001
	c8.163-15.033,11.903-29.329,28.215-37.706c21.534-11.059,44.781-2.071,65.725,5.851c10.861,4.108,19.395,9.029,28.442,16.084
	c9.043,7.052,24.057,12.398,31.723,20.81c9.513,10.438,7.291,32.73,10.083,45.629"/>
<text transform="matrix(0.6284 -0.7779 0.7779 0.6284 244.96 177.9565)"><tspan x="0" y="0" font-family="'NanumSquareR'" font-size="33">플</tspan><tspan x="36.484" y="-4.499" font-family="'NanumSquareR'" font-size="33" rotate="-29.739">루</tspan><tspan x="61.865" y="-19.861" font-family="'NanumSquareR'" font-size="33" rotate="-27.403">언</tspan><tspan x="86.554" y="-33.922" font-family="'NanumSquareR'" font-size="33" rotate="-7.421">트</tspan><tspan x="114.1" y="-37.423" font-family="'NanumSquareR'" font-size="33" rotate="18.83">시</tspan><tspan x="140.689" y="-28.125" font-family="'NanumSquareR'" font-size="33" rotate="38.743">작</tspan><tspan x="164.844" y="-13.247" font-family="'NanumSquareR'" font-size="33" rotate="82.466">하</tspan><tspan x="164.135" y="15.691" font-family="'NanumSquareR'" font-size="33" rotate="95.943">고</tspan><tspan x="162.215" y="46.105" font-family="'NanumSquareR'" font-size="33" rotate="94.793"> </tspan><tspan x="161.809" y="53.241" font-family="'NanumSquareR'" font-size="33" rotate="104.341"> </tspan><tspan x="159.937" y="59.847" font-family="'NanumSquareR'" font-size="33" rotate="115.573"> </tspan><tspan x="156.33" y="66.376" font-family="'NanumSquareR'" font-size="33" rotate="120.55"> </tspan><tspan x="138.596" y="98.207" font-family="'NanumSquareR'" font-size="33" rotate="-1.844">나</tspan><tspan x="170.496" y="95.829" font-family="'NanumSquareR'" font-size="33" rotate="-10.522">의</tspan><tspan x="199.544" y="89.292" font-family="'NanumSquareR'" font-size="33" rotate="-8.191">성</tspan><tspan x="226.847" y="84.063" font-family="'NanumSquareR'" font-size="33" rotate="24.884">공</tspan><tspan x="251.958" y="95.496" font-family="'NanumSquareR'" font-size="33" rotate="55.641">시</tspan><tspan x="267.536" y="119.344" font-family="'NanumSquareR'" font-size="33" rotate="70.493">대</tspan><tspan x="278.017" y="146.375" font-family="'NanumSquareR'" font-size="33" rotate="80.889">시</tspan><tspan x="281.036" y="176.771" font-family="'NanumSquareR'" font-size="33" rotate="80.418">작</tspan><tspan x="289.322" y="204.186" font-family="'NanumSquareR'" font-size="33" rotate="108.729">됐</tspan><tspan x="278.755" y="229.267" font-family="'NanumSquareR'" font-size="33" rotate="136.498">다</tspan></text>
<g>
	<path fill="#284540" stroke="#000000" stroke-miterlimit="10" d="M383.551,365.063c-0.072,1.407-0.013,2.806-0.295,4.22
		c-0.36,1.803,0.583,2.805,2.449,2.769c3.804-0.072,7.575-0.571,11.35-1.001c1.889-0.216,3.808-0.022,5.683-0.467
		c0.729-0.173,0.866,0.206,0.834,0.941c-0.275,6.373-0.89,12.717-1.43,19.07c-0.364,4.275-0.671,8.556-1.242,12.806
		c-0.569,4.236-1.026,8.471-2.421,12.595c-1.309,3.869-3.117,6.551-7.467,7.487c-4.253,0.915-7.867,3.131-9.301,7.755
		c-0.449,1.449-1.607,0.722-2.467,0.424c-4.416-1.529-8.172-4.183-11.769-7.073c-5.433-4.366-10.364-9.285-15.086-14.379
		c-7.385-7.966-14.68-16.023-21.061-24.855c-3.738-5.175-7.653-10.222-11.427-15.372c-1.525-2.08-2.699-4.382-3.714-6.758
		c3.719,0.481,7.44,0.909,11.187,1.13c6.271,0.369,12.465,1.2,18.496,3.083c2.048,0.639,4.208,0.862,6.368,0.911
		C362.817,368.59,373.169,366.682,383.551,365.063z"/>
	<g>
		<path fill="#FEFEFE" stroke="#000000" stroke-miterlimit="10" d="M354.964,290.92c-0.004,0.122,0.032,0.266-0.02,0.364
			c-0.669,1.28-1.778,2.581-0.587,4.023c1.375,1.666,3.003,3.074,5.346,3.183c0.614,0.029,1.237,0.068,1.844,0
			c1.432-0.161,1.831,0.423,1.977,1.861c0.413,4.069,1.828,6.561,6.69,6.969c0.751,0.063,1.338,0.196,1.497,1.032
			c0.525,2.755,1.765,5.191,3.335,7.48c-2.322,7.167-5.774,13.842-9.007,20.611c-1.107,2.318-2.241,4.623-3.369,6.93
			c-0.236,0.482-0.363,1.148-1.033,1.164c-2.443,0.061-4.842,0.932-7.334,0.303c-0.84-0.212-1.36-0.524-1.803-1.303
			c-6.238-10.973-10.191-22.709-11.897-35.212c-0.257-1.883-0.601-3.755-0.941-5.625c-0.429-2.356-0.361-2.416,2.139-2.753
			c3.187-0.429,6.196-1.401,8.877-3.229c1.408-0.96,2.842-1.867,2.952-3.894C353.673,292.066,354.257,291.374,354.964,290.92z"/>
		<g>
			<g>
				<path fill="#F9CFA9" stroke="#000000" stroke-miterlimit="10" d="M330.275,235.586c-0.858-3.989-1.74-7.972-2.568-11.967
					c-2.253-10.864-6.87-20.652-12.932-29.914c-4.163-6.361-6.888-13.52-8.057-21.037c-2.375-15.279-2.111-30.513,2.506-45.415
					c2.598-8.385,7.216-15.368,15.172-19.73c11.336-6.215,23.382-3.183,32.516,5.165c7.428,6.788,11.318,15.635,13.261,25.328
					c2.112,10.536,2.042,21.15,0.065,31.704c-1.449,7.737-4.458,14.94-8.23,21.822c-0.549,1.001-0.649,1.84-0.242,2.91
					c1.629,4.286,3.181,8.602,4.75,12.911c0.833,2.288,0.732,4.724,1.015,7.089c0.715,5.973,1.821,11.872,2.984,17.767
					c-1.286,0.63-2.698,0.708-4.075,0.965c-7.352,1.373-14.767,2.136-22.239,2.392c-3.8,0.13-7.611-0.204-11.404,0.307
					C331.96,235.996,331.076,236.018,330.275,235.586z"/>
				<g>
					<path fill="#050000" stroke="#000000" stroke-miterlimit="10" d="M472.842,275.515c1.221-2.113,2.927-2.952,5.378-2.256
						c1.047,0.297,2.169,0.491,3.291,0.275c1.34,0.92,2.416,0.937,3.592-0.474c6.431-7.715,13.063-15.26,20.641-21.884
						c5.87-5.131,11.991-9.919,19.263-13.034c11.691-5.007,23.978-7.931,36.32-10.71c4.231-0.953,8.547-1.505,12.714-2.747
						c0.185-0.004,0.388,0.041,0.551-0.02c3.333-1.259,5.739,0.287,8.251,2.33c9.45,7.684,19.025,15.216,28.556,22.801
						c2.112,1.681,2.081,1.623,4.264-0.051c4.381-3.358,9.113-6.074,14.504-7.478c8.847-2.304,16.944-0.472,24.439,4.529
						c13.379,8.928,23.36,20.639,29.187,35.734c2.832,7.335,4.099,15.016,5.434,22.733c1.306,7.553-0.748,14.515-2.319,21.641
						c-0.366,1.659-1.253,3.224-0.984,5.01c-0.331,0.203-0.534,0.479-0.624,0.868c-0.882,3.807-2.509,7.386-2.727,11.415
						c-0.33,6.112-1.109,12.201-1.743,18.295c-0.342,3.296-0.616,6.592-0.837,9.9c-0.331,4.949-0.941,9.879-1.35,14.824
						c-0.329,3.974-0.373,7.977-0.833,11.934c-0.817,7.021-1.007,14.079-1.315,21.121c-0.276,6.31-0.38,12.644-0.091,18.969
						c0.126,2.764,0.315,5.516,1.273,8.142c0.247,0.677,0.229,1.295,0.031,1.975c-0.462,1.59-0.864,3.197-1.291,4.797
						c-153.102,0-306.203,0-459.305,0c0-5.956,0.664-11.87,1.052-17.803c0.4-6.117,0.694-12.24,1.135-18.356
						c0.405-5.611,0.73-11.23,1.07-16.845c0.393-6.486,0.755-12.976,1.128-19.464c0.254-4.407,0.53-8.815,0.737-13.223
						c0.354-7.537,0.749-15.072,1.125-22.608c0.284-5.699,0.545-11.405,0.695-17.105c0.15-5.713,0.694-11.42,0.466-17.143
						c-0.02-0.492-0.162-1.068,0.037-1.463c0.577-1.145-0.448-2.788,1.136-3.589c3.577,3.011,7.169,6.004,10.721,9.044
						c0.873,0.747,1.778,1.182,2.938,1.37c10.209,1.655,20.417,3.33,30.476,5.78c2.606,0.635,2.717,0.5,2.074-2.089
						c-1.633-6.567-3.259-13.137-4.844-19.716c-0.323-1.342-0.918-2.166-2.271-2.805c-5.502-2.596-9.033-7.22-11.585-12.504
						c-7.973-16.511-11.859-33.904-10.439-52.291c0.781-10.112,3.832-19.514,9.318-28.124c3.657-5.739,8.858-9.14,15.324-10.712
						c1.605-0.39,2.299-1.118,2.763-2.656c4.213-13.976,8.244-28.004,10.653-42.421c1.827-10.934,3.081-21.966,5.015-32.879
						c3.4-19.181,13.763-33.562,31.153-42.41c17.385-8.845,36.382-4.912,50.097,9.846c7.029,7.563,11.738,16.527,15.586,26
						c5.322,13.1,8.964,26.716,12.254,40.427c3.203,13.348,6.237,26.737,9.344,40.108c0.376,1.619,0.917,3.223,1.075,4.863
						c0.172,1.78,1.074,2.167,2.657,2.246c4.553,0.228,9.09,0.647,13.55,1.679c7.965,1.844,13.893,6.298,17.068,13.895
						c8.651,20.699,18.607,40.771,28.85,60.71c0.08,0.155,0.077,0.352,0.111,0.53c-3.975-0.538-7.949-1.076-11.923-1.614
						c-2.455-0.46-4.905-0.953-7.367-1.372c-6.879-1.171-13.951-1.672-20.599-3.623c-8.698-2.553-17.455-5.385-24.767-11.193
						c-1.568-1.245-3.33-1.959-5.337-2.243c-6.076-0.86-11.819,0.536-17.514,2.387c-1.033,0.336-1.971,0.999-3.123,0.938
						c-0.038-0.305-0.033-0.622-0.12-0.912c-2.449-8.111-4.466-16.333-6.315-24.599c-1.163-5.893-2.269-11.793-2.984-17.766
						c-0.283-2.365-0.182-4.802-1.015-7.089c-1.569-4.309-3.121-8.625-4.75-12.911c-0.407-1.071-0.307-1.91,0.242-2.91
						c3.772-6.882,6.78-14.085,8.23-21.822c1.977-10.554,2.046-21.168-0.065-31.704c-1.943-9.693-5.833-18.54-13.261-25.328
						c-9.134-8.348-21.18-11.38-32.516-5.165c-7.956,4.362-12.574,11.345-15.172,19.73c-4.617,14.902-4.881,30.137-2.506,45.415
						c1.169,7.517,3.893,14.675,8.057,21.037c6.062,9.262,10.679,19.05,12.932,29.914c0.828,3.995,1.711,7.978,2.568,11.967
						c0.057,0.609,0.079,1.223,0.177,1.825c0.669,4.113,1.425,8.212,2.013,12.336c0.556,3.901,0.487,3.797,4.292,4.016
						c3.611,0.208,7.268,0.402,10.571,2.188c-0.666-0.058-1.346-0.05-1.997-0.184c-7.654-1.576-13.564,1.177-17.313,7.977
						c-2.45,4.443-3.567,9.252-3.979,14.228c-0.274,3.314-0.148,6.64,2.104,9.439c0.073,0.208,0.118,0.445,0.425,0.413l-0.032-0.094
						l-0.093,0.034c0.038,0.321,0.226,0.524,0.512,0.649l0.056,0.056c0.328,0.552,0.829,0.891,1.403,1.142l-0.018-0.011
						c0.74,0.662,1.622,0.996,2.595,1.12l-0.003-0.005c0.215,0.102,0.42,0.253,0.647,0.298c5.249,1.031,10.399,0.141,15.526-0.881
						c3.22-0.642,6.41-1.431,9.857-2.209c-0.383,0.825-0.657,1.416-0.93,2.006c0,0,0.067-0.043,0.067-0.043
						c-0.237,0.056-0.422,0.165-0.444,0.439l0.076-0.086c-0.263,0.038-0.446,0.156-0.457,0.45l0.078-0.097
						c-0.275,0.033-0.477,0.135-0.451,0.462l0.076-0.062l-0.067-0.071c-0.707,0.454-1.292,1.146-1.333,1.905
						c-0.111,2.027-1.544,2.934-2.952,3.894c-2.681,1.829-5.691,2.8-8.877,3.229c-2.499,0.337-2.568,0.397-2.139,2.753
						c0.341,1.87,0.685,3.742,0.941,5.625c1.705,12.503,5.658,24.239,11.897,35.212c0.443,0.779,0.962,1.091,1.803,1.303
						c2.492,0.629,4.89-0.242,7.334-0.303c0.67-0.017,0.798-0.682,1.033-1.164c1.128-2.307,2.262-4.612,3.369-6.93
						c3.233-6.77,6.685-13.444,9.007-20.612c1.456,0.415,2.748,1.226,4.263,1.554c4.605,0.999,9.177,2.148,13.765,3.224
						c5.724,1.343,11.399,3.032,17.382,2.645c2.237-0.145,4.265-0.684,5.948-2.419c2.615-2.697,5.632-4.955,8.61-7.244
						c7.253-5.578,14.93-10.544,22.499-15.668c3.154-1.99,6.298-3.997,9.467-5.962c2.186-1.355,4.322-2.695,5.989-4.765
						C466.165,283.226,469.541,279.4,472.842,275.515z M383.551,365.063c0.476-4.48,0.631-8.958-0.383-13.388
						c-0.705-3.077-2.561-4.543-5.676-4.796c-3.597-0.292-7.101,0.338-10.614,0.921c-1.077,0.179-2.072,0.368-2.727,1.507
						c-0.404,0.702-1.249,0.918-2.253,0.723c-3.055-0.595-6.141-1.103-9.273-0.532c-0.499,0.091-1.021,0.149-1.356-0.306
						c-0.664-0.9-1.687-0.965-2.623-1.107c-6.873-1.036-13.265-3.319-19.161-7.039c-1.96-1.236-3.877-2.62-6.108-3.35
						c-6.04-1.977-11.447-0.131-16.661,2.847c-0.647,0.369-0.523,0.688-0.222,1.162c1.685,2.655,2.563,5.674,3.833,8.516
						c1.939,4.341,3.641,8.789,5.862,13.003c1.015,2.375,2.19,4.677,3.714,6.758c3.774,5.15,7.689,10.197,11.427,15.372
						c6.38,8.832,13.675,16.889,21.061,24.855c4.723,5.094,9.654,10.014,15.086,14.379c3.597,2.89,7.353,5.544,11.769,7.073
						c0.86,0.298,2.017,1.025,2.467-0.424c1.434-4.624,5.048-6.841,9.301-7.755c4.35-0.935,6.158-3.617,7.467-7.487
						c1.395-4.124,1.852-8.359,2.421-12.595c0.571-4.25,0.878-8.531,1.242-12.806c0.54-6.353,1.155-12.697,1.43-19.07
						c0.032-0.735-0.105-1.114-0.834-0.941c-1.875,0.446-3.794,0.252-5.683,0.467c-3.775,0.431-7.546,0.929-11.35,1.001
						c-1.866,0.035-2.809-0.966-2.449-2.769C383.538,367.869,383.479,366.47,383.551,365.063z"/>
					<path fill="#551F1E" stroke="#000000" stroke-miterlimit="10" d="M225.693,306.555c-1.584,0.801-0.559,2.444-1.136,3.589
						c-0.199,0.394-0.056,0.971-0.037,1.463c0.227,5.724-0.316,11.43-0.466,17.143c-0.15,5.7-0.41,11.407-0.695,17.105
						c-0.376,7.536-0.77,15.07-1.125,22.608c-0.207,4.408-0.484,8.816-0.737,13.223c-0.373,6.488-0.735,12.977-1.128,19.464
						c-0.34,5.615-0.665,11.234-1.07,16.845c-0.441,6.116-0.735,12.239-1.135,18.356c-0.388,5.933-1.052,11.847-1.052,17.803
						c-44.501,0-89.001,0-133.502,0c0.173-1.368-0.331-2.677-0.356-4.026c-0.184-9.785,0.056-19.568-0.29-29.359
						c-0.37-10.464-0.101-20.951-0.097-31.427c0.011-25.562-0.128-51.126,0.349-76.686c0.596-1.147,0.199-2.356,0.216-3.538
						c0.238-16.009,0.98-32,1.942-47.978c0.536-8.903,1.257-17.802,2.19-26.672c1.421-13.509,3.175-26.973,6.117-40.263
						c1.878-8.484,4.043-16.852,7.444-24.879c3.95-9.324,9.052-17.872,16.559-24.777c6.52-5.998,14.063-10.118,22.809-11.985
						c10.381-2.216,20.782-2.093,31.174-0.357c5.958,0.996,11.613,3.103,16.731,6.328c5.518,3.477,10.258,7.779,14.332,13.008
						c6.966,8.939,11.034,19.125,13.997,29.841c3.304,11.947,4.959,24.197,6.125,36.518c0.748,7.901,1.176,15.818,1.577,23.745
						c0.955,18.903,0.536,37.81,0.506,56.716c-0.003,1.784-0.07,3.572-0.21,5.349C224.637,304.837,224.926,305.758,225.693,306.555z
						"/>
					<path fill="#050000" stroke="#000000" stroke-miterlimit="10" d="M83.217,312.655c-0.477,25.56-0.338,51.124-0.349,76.686
						c-0.005,10.477-0.273,20.963,0.097,31.427c0.346,9.791,0.105,19.574,0.29,29.359c0.025,1.349,0.529,2.658,0.356,4.026
						c-30.818,0-61.635-0.01-92.453,0.036c-1.266,0.002-1.518-0.248-1.515-1.515c0.051-20.709,0.036-41.419,0.036-62.128
						c5.942-5.144,11.834-10.347,17.853-15.4c2.196-1.844,3.371-3.871,2.898-6.78c-0.124-0.76,0.137-1.579,0.195-2.373
						c0.228-3.126,1.138-6.134,1.581-9.223c1.755-4.061,3.297-8.264,6.07-11.764c7.388-9.324,15.636-17.738,26.506-23.021
						c6.292-3.058,13.162-4.356,19.971-5.733C70.899,315.008,77.062,313.851,83.217,312.655z"/>
					<path fill="#050000" stroke="#000000" stroke-miterlimit="10" d="M455.601,160.074c-2.585-4.86-4.676-9.93-5.63-15.357
						c-2.479-14.1-3.508-28.261-0.19-42.366c3.792-16.122,14.048-26.411,29.515-31.754c13.721-4.74,27.907-6.045,42.269-5.036
						c11.627,0.817,22.655,3.941,32.45,10.61c9.44,6.427,16.056,15.139,20.69,25.467c6.695,14.924,8.365,30.493,6.207,46.617
						c-0.712,5.319-1.866,10.546-2.74,15.829c-0.147,0.267-0.362,0.516-0.429,0.801c-2.83,12.042-6.677,23.784-10.507,35.53
						c-0.27,0.829-0.645,1.527-1.391,2.079c-6.212,4.596-12.41,9.21-18.57,13.875c-0.761,0.576-1.469,0.697-2.35,0.649
						c-13.338-0.728-26.677-1.463-40.019-2.111c-1.369-0.066-2.202-0.434-2.965-1.598c-3.565-5.437-7.156-10.859-10.875-16.191
						c-5.849-8.386-11.957-16.558-20.121-22.927C465.45,169.906,459.584,166.01,455.601,160.074z"/>
					<path fill="#F9CFA9" stroke="#000000" stroke-miterlimit="10" d="M455.601,160.074c3.983,5.936,9.849,9.832,15.345,14.119
						c8.165,6.369,14.273,14.541,20.121,22.927c3.719,5.332,7.31,10.754,10.875,16.191c0.763,1.164,1.595,1.531,2.965,1.598
						c13.342,0.648,26.68,1.382,40.019,2.111c0.88,0.048,1.589-0.073,2.35-0.649c6.16-4.665,12.358-9.279,18.57-13.875
						c0.746-0.552,1.12-1.249,1.391-2.079c3.83-11.747,7.677-23.488,10.507-35.53c0.067-0.285,0.282-0.534,0.429-0.801
						c0.137,0.123,0.258,0.273,0.413,0.365c4.808,2.87,5.818,5.188,3.963,12.556c-1.759,6.987-5.904,12.771-10.13,18.434
						c-1.327,1.779-2.263,3.499-2.412,5.762c-0.347,5.277-0.909,10.542-0.144,15.824c0.105,0.725,0.316,1.434,0.479,2.15
						c-9.278,1.976-18.15,5.266-26.984,8.601c-4.526,1.708-9.019,3.555-13.456,5.529c-6.571,2.924-13.049,6.041-19.201,9.726
						c-6.099,3.653-11.928,7.769-17.274,12.507c-0.096-2.645-1.544-4.431-3.709-5.715c-5.184-3.076-10.364-6.134-14.966-10.096
						c-9.357-8.056-14.482-18.415-16.862-30.332c-1.864-9.336-2.232-18.797-2.476-28.273
						C455.234,174.103,455.324,167.088,455.601,160.074z"/>
					<path fill="#FEFEFE" stroke="#000000" stroke-miterlimit="10" d="M493.427,255.538c5.346-4.738,11.174-8.853,17.274-12.507
						c6.152-3.685,12.63-6.802,19.201-9.726c4.437-1.974,8.929-3.821,13.456-5.529c8.835-3.335,17.707-6.626,26.984-8.601
						c0.841-0.367,1.135,0.119,1.442,0.809c0.708,1.587,1.5,3.137,2.258,4.702c-4.167,1.241-8.483,1.793-12.713,2.746
						c-12.342,2.779-24.63,5.703-36.32,10.71c-7.273,3.115-13.393,7.903-19.263,13.034c-7.578,6.623-14.21,14.169-20.641,21.884
						c-1.176,1.411-2.252,1.394-3.592,0.474c0.006-2.148,0.084-4.298-0.013-6.441c-0.044-0.98,0.282-1.602,0.985-2.198
						C486.143,261.789,489.781,258.659,493.427,255.538z"/>
					<path fill="#FEFEFE" stroke="#000000" stroke-miterlimit="10" d="M472.842,275.515c-3.301,3.885-6.677,7.711-9.873,11.681
						c-1.667,2.07-3.803,3.41-5.989,4.765c-3.17,1.965-6.313,3.973-9.467,5.962c0.34-1.857,0.642-3.721,1.025-5.569
						c1.307-6.312,4.18-11.979,7.371-17.494c0.525-0.907,0.412-1.42-0.249-2.025c3.974,0.538,7.948,1.076,11.923,1.614
						C469.275,275.104,471.165,274.784,472.842,275.515z"/>
					<path fill="#F9CFA9" stroke="#000000" stroke-miterlimit="10" d="M455.66,272.835c0.661,0.605,0.773,1.118,0.249,2.025
						c-3.191,5.515-6.064,11.182-7.371,17.494c-0.382,1.848-0.685,3.712-1.025,5.569c-7.569,5.124-15.246,10.09-22.499,15.668
						c-2.977,2.29-5.994,4.547-8.61,7.244c-1.683,1.735-3.711,2.275-5.948,2.419c-5.983,0.387-11.658-1.302-17.382-2.645
						c-4.588-1.076-9.16-2.225-13.765-3.224c-1.515-0.329-2.807-1.139-4.263-1.554c-1.57-2.289-2.81-4.725-3.335-7.48
						c-0.159-0.836-0.746-0.968-1.497-1.032c-4.863-0.408-6.277-2.9-6.69-6.969c-0.146-1.438-0.545-2.022-1.977-1.861
						c-0.607,0.068-1.23,0.029-1.844,0c-2.343-0.109-3.971-1.518-5.346-3.183c-1.191-1.443-0.082-2.744,0.587-4.023
						c0.051-0.098,0.015-0.242,0.02-0.364l0.067,0.071c0,0-0.076,0.062-0.077,0.061c0.15-0.154,0.301-0.308,0.452-0.461
						c0,0-0.078,0.097-0.079,0.096c0.152-0.15,0.305-0.299,0.458-0.449c0,0-0.076,0.086-0.076,0.085
						c0.148-0.147,0.296-0.292,0.445-0.438c0,0-0.067,0.043-0.067,0.043c1.411-0.485,2.907-0.859,3.392-2.568
						c0.248-0.029,0.497-0.057,0.88-0.102c-0.463-0.285-0.673-0.109-0.869,0.115c-1.675,0.227-3.36,0.252-5.032,0.654
						c-7.708,1.852-15.406,3.909-23.471,2.688c0,0,0.003,0.005,0.004,0.005c-0.609-0.966-1.594-1.063-2.595-1.12
						c0,0,0.018,0.011,0.018,0.011c-0.08-0.857-0.719-1.027-1.403-1.142c0,0-0.056-0.056-0.056-0.056
						c-0.171-0.216-0.342-0.433-0.512-0.649l0.093-0.034c0,0,0.032,0.094,0.031,0.094c-0.142-0.137-0.283-0.276-0.424-0.414
						c-2.251-2.799-2.378-6.125-2.104-9.439c0.412-4.976,1.529-9.785,3.979-14.228c3.749-6.8,9.659-9.554,17.313-7.977
						c0.651,0.134,1.33,0.126,1.997,0.184c0,0-0.042-0.056-0.042-0.056c0.203,0.635,0.472,0.431,0.755,0.059
						c0.748-0.078,1.153,0.612,1.822,0.788c5.241,1.383,10.283,3.335,15.272,5.435c0.794,0.334,1.682,0.719,2.501,0.315
						c3.127-1.543,6.214-3.168,9.316-4.763c1.152,0.061,2.09-0.602,3.123-0.938c5.696-1.851,11.438-3.247,17.514-2.387
						c2.007,0.284,3.77,0.997,5.337,2.243c7.311,5.808,16.069,8.64,24.767,11.193c6.648,1.951,13.72,2.452,20.599,3.623
						C450.755,271.882,453.204,272.375,455.66,272.835z"/>
					<path fill="#F9CFA9" stroke="#000000" stroke-miterlimit="10" d="M383.551,365.063c-10.382,1.619-20.734,3.527-31.312,3.286
						c-2.16-0.049-4.32-0.271-6.368-0.911c-6.031-1.883-12.225-2.714-18.496-3.083c-3.747-0.221-7.468-0.649-11.187-1.13
						c-2.221-4.214-3.923-8.662-5.862-13.003c-1.27-2.843-2.148-5.861-3.833-8.516c-0.301-0.474-0.425-0.793,0.222-1.162
						c5.215-2.978,10.621-4.823,16.661-2.847c2.231,0.73,4.149,2.113,6.108,3.35c5.895,3.72,12.288,6.002,19.161,7.039
						c0.936,0.141,1.959,0.206,2.623,1.107c0.336,0.455,0.857,0.397,1.356,0.306c3.132-0.571,6.218-0.063,9.273,0.532
						c1.003,0.195,1.849-0.02,2.253-0.723c0.655-1.139,1.65-1.328,2.727-1.507c3.513-0.583,7.018-1.213,10.614-0.921
						c3.114,0.253,4.971,1.719,5.676,4.796C384.182,356.105,384.027,360.583,383.551,365.063z"/>
				</g>
				<path fill="#FEFEFE" stroke="#000000" stroke-miterlimit="10" d="M376.952,257.73c-3.102,1.595-6.189,3.22-9.316,4.763
					c-0.819,0.404-1.707,0.019-2.501-0.315c-4.989-2.1-10.031-4.052-15.272-5.435c-0.669-0.176-1.074-0.866-1.823-0.788
					c-0.252-0.02-0.503-0.04-0.754-0.059c0,0,0.042,0.056,0.042,0.056c-3.303-1.787-6.96-1.981-10.572-2.188
					c-3.806-0.219-3.737-0.115-4.292-4.016c-0.587-4.124-1.344-8.224-2.013-12.336c-0.098-0.602-0.12-1.216-0.177-1.825
					c0.802,0.432,1.685,0.41,2.525,0.297c3.793-0.511,7.604-0.177,11.404-0.307c7.472-0.256,14.887-1.018,22.239-2.392
					c1.376-0.257,2.789-0.335,4.075-0.965c1.848,8.265,3.866,16.487,6.315,24.598C376.919,257.107,376.914,257.425,376.952,257.73z"
					/>
			</g>
			<path fill="#FEFEFE" stroke="#000000" stroke-miterlimit="10" d="M330.988,290.715c8.065,1.222,15.763-0.836,23.471-2.688
				c1.672-0.402,3.357-0.427,5.032-0.654l-0.011-0.014c-0.485,1.708-1.981,2.082-3.392,2.568c0.274-0.59,0.547-1.181,0.93-2.006
				c-3.447,0.778-6.637,1.568-9.857,2.209c-5.128,1.022-10.277,1.913-15.526,0.881C331.408,290.968,331.203,290.817,330.988,290.715
				z"/>
		</g>
	</g>
</g>
<text transform="matrix(1 0 0 1 898.1667 124.0003)" font-family="'AppleSDGothicNeoSB00'" font-size="33">2월 한달간</text>
<rect x="695.864" y="63.288" fill="#21A564" fill-opacity="0.8" width="347.303" height="18"/>
<text transform="matrix(1 0 0 1 695.8638 72.5002)" font-family="'AppleSDGothicNeoB00'" font-size="33">발표코칭 전강의 10% 할인</text>
<text transform="matrix(1 0 0 1 771.1271 357.3925)"><tspan x="0" y="0" font-family="'AppleSDGothicNeoB00'" font-size="30">지금 코칭신청하면</tspan><tspan x="-50.369" y="36" font-family="'AppleSDGothicNeoB00'" font-size="30">자소서 첨삭 </tspan><tspan x="93.688" y="36" fill="#C30D23" font-family="'AppleSDGothicNeoB00'" font-size="30">할인쿠폰</tspan><tspan x="196.647" y="36" font-family="'AppleSDGothicNeoB00'" font-size="30"> 증정!</tspan></text>
</svg>
